<?xml version="1.0" encoding="UTF-8" standalone="no"?>
<!-- Created with Inkscape (http://www.inkscape.org/) -->

<svg
   width="1035.7368mm"
   height="195.36848mm"
   viewBox="0 0 1035.7368 195.36848"
   version="1.1"
   id="svg32084"
   inkscape:version="1.3.2 (091e20e, 2023-11-25)"
   sodipodi:docname="neuroimaging-workflow-large.svg"
   xmlns:inkscape="http://www.inkscape.org/namespaces/inkscape"
   xmlns:sodipodi="http://sodipodi.sourceforge.net/DTD/sodipodi-0.dtd"
   xmlns="http://www.w3.org/2000/svg"
   xmlns:svg="http://www.w3.org/2000/svg"
   xmlns:rdf="http://www.w3.org/1999/02/22-rdf-syntax-ns#"
   xmlns:cc="http://creativecommons.org/ns#">
  <sodipodi:namedview
     id="namedview32086"
     pagecolor="#ffffff"
     bordercolor="#666666"
     borderopacity="1.0"
     inkscape:pageshadow="2"
     inkscape:pageopacity="0.0"
     inkscape:pagecheckerboard="0"
     inkscape:document-units="mm"
     showgrid="false"
     fit-margin-left="5"
     fit-margin-top="5"
     fit-margin-right="5"
     fit-margin-bottom="5"
     inkscape:zoom="0.20522339"
     inkscape:cx="1162.1482"
     inkscape:cy="384.94638"
     inkscape:window-width="1400"
     inkscape:window-height="847"
     inkscape:window-x="40"
     inkscape:window-y="25"
     inkscape:window-maximized="1"
     inkscape:current-layer="layer1"
     inkscape:showpageshadow="2"
     inkscape:deskcolor="#d1d1d1" />
  <defs
     id="defs32081" />
  <g
     inkscape:label="Layer 1"
     inkscape:groupmode="layer"
     id="layer1"
     transform="translate(182.42512,95.642982)">
    <text
       style="font-variant:normal;font-weight:bold;font-stretch:normal;font-size:23.3055px;font-family:'Myriad Pro';-inkscape-font-specification:MyriadPro-Bold;writing-mode:lr-tb;display:inline;fill:#808080;fill-opacity:1;fill-rule:nonzero;stroke:none;stroke-width:0.731534"
       id="text28005"
       x="-176.15541"
       y="67.981499"
       inkscape:export-filename="/home/oesteban/Dropbox/Graphics/MRIQC/mriqc-neuroimaging-workflow.png"
       inkscape:export-xdpi="200"
       inkscape:export-ydpi="200"><tspan
         x="-176.15541 -161.07678 -150.869 -137.04887 -123.50841 -117.09941 -107.03146 -100.62247 -92.092674 -85.683678 -72.283043"
         y="67.981499"
         sodipodi:role="line"
         id="tspan28003"
         style="stroke-width:0.731534">Acquisition</tspan></text>
    <g
       id="g28025"
       transform="matrix(0.99650297,0,0,-0.99650297,-248.25924,1137.3557)"
       inkscape:export-filename="/home/oesteban/Dropbox/Graphics/MRIQC/mriqc-neuroimaging-workflow.png"
       inkscape:export-xdpi="200"
       inkscape:export-ydpi="200"
       style="display:inline">
      <path
         d="m 71.111,1166.004 h 75.516 v -7.068 H 71.111 Z"
         style="opacity:0.5;fill:#000000;fill-opacity:1;fill-rule:nonzero;stroke:none"
         id="path28007" />
      <g
         transform="translate(130.3811,1180.8618)"
         id="g28011"
         style="opacity:0.5">
        <path
           d="m 0,0 c 0,4.943 4.014,8.943 8.957,8.943 4.936,0 8.962,-4 8.962,-8.943 0,-4.928 -4.026,-8.947 -8.962,-8.947 C 4.014,-8.947 0,-4.928 0,0"
           style="fill:#000000;fill-opacity:1;fill-rule:nonzero;stroke:none"
           id="path28009" />
      </g>
      <g
         transform="translate(118.9287,1190.1171)"
         id="g28015"
         style="opacity:0.5">
        <path
           d="m 0,0 h -30.004 l -17.842,-2.727 v -15.464 l 9.004,-0.003 c -0.714,1.152 -1.147,2.499 -1.147,3.951 0,4.173 3.398,7.568 7.578,7.568 h 16.43 l 13.319,2.78 0.739,-3.532 -13.685,-2.853 h -16.803 c -2.191,0 -3.967,-1.772 -3.967,-3.961 0,-2.169 1.746,-3.923 3.914,-3.952 L 0.07,-18.196 c 5.029,0.039 9.067,4.085 9.067,9.089 C 9.139,-4.081 5.065,0.002 0,0.002 Z"
           style="fill:#000000;fill-opacity:1;fill-rule:nonzero;stroke:none"
           id="path28013" />
      </g>
      <g
         transform="translate(134.4553,1139.965)"
         id="g28019"
         style="opacity:0.5">
        <path
           d="m 0,0 c 20.015,0 36.241,16.203 36.241,36.188 0,19.988 -16.224,36.189 -36.241,36.189 -13.085,0 -24.519,-6.953 -30.891,-17.335 h 15.178 c 4.28,3.581 9.785,5.74 15.803,5.74 13.602,0 24.629,-11.012 24.629,-24.594 0,-13.585 -11.029,-24.597 -24.629,-24.597 -3.859,0 -7.494,0.912 -10.746,2.492 H -28.648 C -22.021,5.531 -11.669,0.002 0,0.002 Z"
           style="fill:#000000;fill-opacity:1;fill-rule:nonzero;stroke:none"
           id="path28017" />
      </g>
      <g
         transform="translate(147.1828,1219.5731)"
         id="g28023"
         style="opacity:0.5">
        <path
           d="m 0,0 c -0.203,-0.809 -0.927,-1.347 -1.723,-1.347 -0.144,0 -0.291,0.016 -0.434,0.057 -6.845,1.704 -14.114,1.704 -20.964,0 -0.953,-0.254 -1.918,0.34 -2.157,1.292 -0.239,0.952 0.341,1.915 1.298,2.152 C -16.568,4 -8.708,4 -1.296,2.154 -0.343,1.915 0.235,0.952 -0.002,0 Z m -12.728,12.735 c -24.799,0 -45.824,-16.083 -53.228,-38.366 l 6.911,1.074 11.215,-0.004 c 6.733,12.468 19.924,20.943 35.101,20.943 22.015,0 39.862,-17.822 39.862,-39.804 0,-21.984 -17.845,-39.803 -39.862,-39.803 -13.824,0 -25.994,7.032 -33.144,17.706 h -18.33 c 8.618,-19.857 28.416,-33.756 51.474,-33.756 30.976,0 56.09,25.072 56.09,56.005 0,30.927 -25.114,56.005 -56.09,56.005 z"
           style="fill:#000000;fill-opacity:1;fill-rule:nonzero;stroke:none"
           id="path28021" />
      </g>
    </g>
    <g
       transform="matrix(0.99650297,0,0,-0.99650297,-39.521867,-34.833296)"
       id="g28029"
       style="display:inline;fill:#808080;fill-opacity:0.996919;stroke:#808080;stroke-opacity:1">
      <path
         d="M 0,0 H 28.34"
         style="fill:#808080;fill-opacity:0.996919;stroke:#808080;stroke-width:2;stroke-linecap:butt;stroke-linejoin:miter;stroke-miterlimit:8;stroke-dasharray:none;stroke-opacity:1"
         id="path28027" />
    </g>
    <g
       transform="matrix(0.99650297,0,0,-0.99650297,-13.578212,-41.726185)"
       id="g28033"
       style="display:inline;fill:#808080;fill-opacity:1;stroke:#808080;stroke-opacity:1">
      <path
         d="M 0,0 13.833,-6.917 -0.001,-13.833 Z"
         style="fill:#808080;fill-opacity:1;fill-rule:evenodd;stroke:#808080;stroke-opacity:1"
         id="path28031" />
    </g>
    <text
       style="font-variant:normal;font-weight:bold;font-stretch:normal;font-size:22.5324px;font-family:'Myriad Pro';-inkscape-font-specification:MyriadPro-Bold;writing-mode:lr-tb;display:inline;fill:#808080;fill-opacity:1;fill-rule:nonzero;stroke:none;stroke-width:0.731534"
       id="text28041"
       x="14.596082"
       y="67.438858"
       inkscape:export-filename="/home/oesteban/Dropbox/Graphics/MRIQC/mriqc-neuroimaging-workflow.png"
       inkscape:export-xdpi="200"
       inkscape:export-ydpi="200"><tspan
         x="14.596082 28.002886 41.004093 54.208069 66.150276 78.047394 86.609711 96.388802 102.56268 115.5639 128.7679"
         y="67.438858"
         sodipodi:role="line"
         id="tspan28037"
         style="stroke-width:0.731534">Conversion</tspan><tspan
         x="37.105991 45.375362 58.376591 62.928123 76.537712 82.959457 98.642029"
         y="94.477646"
         sodipodi:role="line"
         id="tspan28039"
         style="stroke-width:0.731534">to BIDS</tspan></text>
    <g
       transform="matrix(0.99650297,0,0,-0.99650297,76.895394,-14.671764)"
       id="g28045"
       style="display:inline;opacity:0.5"
       inkscape:export-filename="/home/oesteban/Dropbox/Graphics/MRIQC/mriqc-neuroimaging-workflow.png"
       inkscape:export-xdpi="200"
       inkscape:export-ydpi="200">
      <path
         d="m 0,0 c -2.279,0.743 -3.782,2.825 -3.782,5.214 v 0.525 h -54.25 v -6.524 c 0,-2.955 2.418,-5.373 5.373,-5.373 H 1.99 c 0.084,0.226 0.173,0.453 0.29,0.667 l 0.697,1.364 c -0.6,1.172 -1.108,2.398 -1.515,3.644 z m -7.309,22.472 14.046,7.845 c 0.827,0.462 1.13,1.503 0.668,2.334 -0.16,0.29 -0.407,0.525 -0.689,0.676 l -14.025,7.834 c -0.827,0.461 -1.868,0.159 -2.321,-0.668 -0.462,-0.827 -0.16,-1.868 0.667,-2.321 L 2.405,31.82 -8.963,25.469 c -0.827,-0.462 -1.129,-1.503 -0.667,-2.322 0.453,-0.839 1.494,-1.129 2.321,-0.676 z m -6.393,23.802 c -0.924,0.214 -1.847,-0.365 -2.053,-1.289 l -5.856,-25.578 c -0.214,-0.915 0.365,-1.839 1.28,-2.053 0.924,-0.214 1.847,0.365 2.053,1.289 l 5.856,25.578 c 0.223,0.923 -0.357,1.839 -1.28,2.053 M -36.43,31.82 l 11.369,6.352 c 0.827,0.462 1.129,1.503 0.667,2.321 -0.462,0.827 -1.503,1.129 -2.321,0.668 l -14.037,-7.838 c -0.282,-0.151 -0.517,-0.386 -0.689,-0.676 -0.462,-0.827 -0.159,-1.868 0.668,-2.334 l 14.046,-7.846 c 0.827,-0.462 1.868,-0.159 2.321,0.668 0.462,0.827 0.16,1.868 -0.667,2.321 z M -3.707,9.177 h -54.325 v 41.622 c 0,2.955 2.418,5.373 5.373,5.373 h 71.281 c 2.956,0 5.374,-2.418 5.374,-5.373 V 34.52 H 22.48 c -2.397,0 -4.483,-1.516 -5.214,-3.795 L 16.792,29.272 C 15.533,28.873 14.319,28.37 13.148,27.757 l -1.364,0.696 C 9.655,29.541 7.107,29.142 5.42,27.442 L 3.283,25.305 C 1.595,23.617 1.188,21.069 2.271,18.941 L 2.968,17.577 C 2.368,16.405 1.86,15.18 1.465,13.933 l -1.46,-0.475 c -1.969,-0.65 -3.367,-2.292 -3.712,-4.281 z m 4.652,-25.138 h -7.502 l -2.288,6.373 h -16.347 l -2.279,-6.373 h -7.502 c -0.945,0 -1.721,-0.764 -1.721,-1.708 0,-0.945 0.772,-1.721 1.721,-1.721 H 0.944 c 0.945,0 1.722,0.772 1.722,1.721 0,0.936 -0.773,1.708 -1.722,1.708 z M 34.603,6.725 c 0,2.922 -1.183,5.579 -3.106,7.502 -1.923,1.922 -4.567,3.106 -7.502,3.106 -2.934,0 -5.587,-1.192 -7.502,-3.106 -1.922,-1.923 -3.106,-4.568 -3.106,-7.502 0,-2.935 1.184,-5.588 3.106,-7.502 1.923,-1.923 4.568,-3.106 7.502,-3.106 2.922,0 5.579,1.183 7.502,3.106 1.927,1.914 3.106,4.572 3.106,7.502 M 48.36,8.232 V 5.214 C 48.36,4.311 47.802,3.539 46.941,3.27 L 44.792,2.573 C 44.124,2.359 43.642,1.864 43.461,1.188 43.033,-0.315 42.429,-1.755 41.677,-3.098 41.333,-3.711 41.324,-4.4 41.643,-5.021 l 1.021,-2.011 c 0.407,-0.806 0.256,-1.742 -0.378,-2.376 l -2.137,-2.137 c -0.634,-0.633 -1.57,-0.785 -2.376,-0.377 l -2.011,1.02 c -0.621,0.323 -1.31,0.31 -1.922,-0.034 -1.344,-0.751 -2.784,-1.356 -4.287,-1.771 -0.675,-0.193 -1.171,-0.668 -1.385,-1.344 l -0.697,-2.136 c -0.281,-0.861 -1.041,-1.419 -1.943,-1.419 h -3.019 c -0.902,0 -1.675,0.558 -1.943,1.419 l -0.697,2.136 c -0.214,0.668 -0.71,1.151 -1.386,1.344 -1.502,0.419 -2.942,1.02 -4.286,1.771 -0.612,0.344 -1.301,0.353 -1.922,0.034 l -2.011,-1.02 c -0.806,-0.408 -1.742,-0.256 -2.376,0.377 l -2.137,2.137 c -0.634,0.647 -0.785,1.579 -0.378,2.376 l 1.021,2.011 C 6.717,-4.4 6.704,-3.711 6.36,-3.098 5.608,-1.755 5.004,-0.315 4.588,1.188 4.395,1.864 3.921,2.359 3.245,2.573 L 1.096,3.27 C 0.235,3.551 -0.323,4.324 -0.323,5.214 v 3.018 c 0,0.902 0.558,1.675 1.419,1.944 l 2.149,0.696 c 0.668,0.214 1.138,0.71 1.331,1.386 0.428,1.503 1.02,2.942 1.771,4.286 0.345,0.613 0.353,1.301 0.034,1.922 l -1.02,2.011 c -0.407,0.806 -0.256,1.742 0.378,2.376 l 2.136,2.137 c 0.647,0.634 1.579,0.785 2.376,0.378 l 2.011,-1.02 c 0.621,-0.324 1.31,-0.303 1.923,0.033 1.343,0.752 2.783,1.356 4.286,1.784 0.676,0.194 1.171,0.668 1.385,1.331 l 0.697,2.137 c 0.281,0.86 1.054,1.419 1.944,1.419 h 3.018 c 0.903,0 1.675,-0.558 1.944,-1.419 l 0.697,-2.137 c 0.214,-0.667 0.709,-1.15 1.385,-1.331 1.503,-0.428 2.943,-1.032 4.286,-1.784 0.613,-0.344 1.301,-0.352 1.923,-0.033 l 2.01,1.02 c 0.806,0.407 1.743,0.256 2.376,-0.378 l 2.137,-2.137 c 0.634,-0.634 0.785,-1.57 0.378,-2.376 l -1.02,-2.011 c -0.323,-0.621 -0.302,-1.309 0.033,-1.922 0.752,-1.344 1.356,-2.783 1.785,-4.286 0.193,-0.676 0.667,-1.171 1.33,-1.386 l 2.15,-0.696 C 47.802,9.907 48.36,9.143 48.36,8.232 Z M 29.08,11.8 c 1.301,-1.301 2.107,-3.094 2.107,-5.071 0,-1.99 -0.806,-3.774 -2.107,-5.071 -1.302,-1.301 -3.094,-2.095 -5.071,-2.095 -1.99,0 -3.774,0.806 -5.072,2.095 -1.301,1.301 -2.094,3.094 -2.094,5.071 0,1.977 0.806,3.774 2.094,5.071 1.302,1.302 3.094,2.107 5.072,2.107 1.977,-0.012 3.761,-0.818 5.071,-2.107"
         style="fill:#000000;fill-opacity:1;fill-rule:nonzero;stroke:none"
         id="path28043" />
    </g>
    <g
       transform="matrix(0.99650297,0,0,-0.99650297,143.94622,-31.867352)"
       id="g28049"
       style="display:inline;fill:#808080;fill-opacity:0.996919;stroke:#808080;stroke-opacity:1">
      <path
         d="M 0,0 H 28.34"
         style="fill:#808080;fill-opacity:0.996919;stroke:#808080;stroke-width:2;stroke-linecap:butt;stroke-linejoin:miter;stroke-miterlimit:8;stroke-dasharray:none;stroke-opacity:1"
         id="path28047" />
    </g>
    <g
       transform="matrix(0.99650297,0,0,-0.99650297,169.88989,-38.760242)"
       id="g28053"
       style="display:inline;fill:#808080;fill-opacity:1;stroke:#808080;stroke-opacity:1">
      <path
         d="M 0,0 13.833,-6.917 -0.001,-13.833 Z"
         style="fill:#808080;fill-opacity:1;fill-rule:evenodd;stroke:#808080;stroke-opacity:1"
         id="path28051" />
    </g>
    <text
       style="font-variant:normal;font-weight:bold;font-stretch:normal;font-size:22.5324px;font-family:'Myriad Pro';-inkscape-font-specification:MyriadPro-Bold;writing-mode:lr-tb;display:inline;fill:#808080;fill-opacity:1;fill-rule:nonzero;stroke:none;stroke-width:0.731534"
       id="text28061"
       x="221.0585"
       y="67.055801"
       inkscape:export-filename="/home/oesteban/Dropbox/Graphics/MRIQC/mriqc-neuroimaging-workflow.png"
       inkscape:export-xdpi="200"
       inkscape:export-ydpi="200"><tspan
         x="221.0585 240.12094 253.48265 259.90436 276.06012"
         y="67.055801"
         sodipodi:role="line"
         id="tspan28059"
         style="stroke-width:0.731534">MRIQC</tspan></text>
    <g
       transform="matrix(0.99650297,0,0,-0.99650297,260.36345,-16.161474)"
       id="g28065"
       style="display:inline;opacity:0.5"
       inkscape:export-filename="/home/oesteban/Dropbox/Graphics/MRIQC/mriqc-neuroimaging-workflow.png"
       inkscape:export-xdpi="200"
       inkscape:export-ydpi="200">
      <path
         d="m 0,0 c -2.279,0.743 -3.782,2.825 -3.782,5.214 v 0.525 h -54.25 v -6.524 c 0,-2.955 2.418,-5.373 5.373,-5.373 H 1.99 c 0.084,0.226 0.173,0.453 0.29,0.667 l 0.697,1.364 c -0.6,1.172 -1.108,2.398 -1.515,3.644 z m -7.309,22.472 14.046,7.845 c 0.827,0.462 1.13,1.503 0.668,2.334 -0.16,0.29 -0.407,0.525 -0.689,0.676 l -14.025,7.834 c -0.827,0.461 -1.868,0.159 -2.321,-0.668 -0.462,-0.827 -0.16,-1.868 0.667,-2.321 L 2.405,31.82 -8.963,25.469 c -0.827,-0.462 -1.129,-1.503 -0.667,-2.322 0.453,-0.839 1.494,-1.129 2.321,-0.676 z m -6.393,23.802 c -0.924,0.214 -1.847,-0.365 -2.053,-1.289 l -5.856,-25.578 c -0.214,-0.915 0.365,-1.839 1.28,-2.053 0.924,-0.214 1.847,0.365 2.053,1.289 l 5.856,25.578 c 0.223,0.923 -0.357,1.839 -1.28,2.053 M -36.43,31.82 l 11.369,6.352 c 0.827,0.462 1.129,1.503 0.667,2.321 -0.462,0.827 -1.503,1.129 -2.321,0.668 l -14.037,-7.838 c -0.282,-0.151 -0.517,-0.386 -0.689,-0.676 -0.462,-0.827 -0.159,-1.868 0.668,-2.334 l 14.046,-7.846 c 0.827,-0.462 1.868,-0.159 2.321,0.668 0.462,0.827 0.16,1.868 -0.667,2.321 z M -3.707,9.177 h -54.325 v 41.622 c 0,2.955 2.418,5.373 5.373,5.373 h 71.281 c 2.956,0 5.374,-2.418 5.374,-5.373 V 34.52 H 22.48 c -2.397,0 -4.483,-1.516 -5.214,-3.795 L 16.792,29.272 C 15.533,28.873 14.319,28.37 13.148,27.757 l -1.364,0.696 C 9.655,29.541 7.107,29.142 5.42,27.442 L 3.283,25.305 C 1.595,23.617 1.188,21.069 2.271,18.941 L 2.968,17.577 C 2.368,16.405 1.86,15.18 1.465,13.933 l -1.46,-0.475 c -1.969,-0.65 -3.367,-2.292 -3.712,-4.281 z m 4.652,-25.138 h -7.502 l -2.288,6.373 h -16.347 l -2.279,-6.373 h -7.502 c -0.944,0 -1.721,-0.764 -1.721,-1.708 0,-0.945 0.772,-1.721 1.721,-1.721 H 0.944 c 0.945,0 1.722,0.772 1.722,1.721 0,0.936 -0.773,1.708 -1.722,1.708 z M 34.603,6.725 c 0,2.922 -1.183,5.579 -3.106,7.502 -1.923,1.922 -4.567,3.106 -7.502,3.106 -2.934,0 -5.587,-1.192 -7.502,-3.106 -1.922,-1.923 -3.106,-4.568 -3.106,-7.502 0,-2.935 1.184,-5.588 3.106,-7.502 1.923,-1.923 4.568,-3.106 7.502,-3.106 2.922,0 5.579,1.183 7.502,3.106 1.927,1.914 3.106,4.572 3.106,7.502 M 48.36,8.232 V 5.214 C 48.36,4.311 47.802,3.539 46.941,3.27 L 44.792,2.573 C 44.124,2.359 43.642,1.864 43.461,1.188 43.033,-0.315 42.429,-1.755 41.677,-3.098 41.333,-3.711 41.324,-4.4 41.643,-5.021 l 1.021,-2.011 c 0.407,-0.806 0.256,-1.742 -0.378,-2.376 l -2.137,-2.137 c -0.634,-0.633 -1.57,-0.785 -2.376,-0.377 l -2.011,1.02 c -0.621,0.323 -1.31,0.31 -1.922,-0.034 -1.344,-0.751 -2.784,-1.356 -4.287,-1.771 -0.675,-0.193 -1.171,-0.668 -1.385,-1.344 l -0.697,-2.136 c -0.281,-0.861 -1.041,-1.419 -1.943,-1.419 h -3.019 c -0.902,0 -1.675,0.558 -1.943,1.419 l -0.697,2.136 c -0.214,0.668 -0.71,1.151 -1.385,1.344 -1.503,0.419 -2.943,1.02 -4.287,1.771 -0.612,0.344 -1.301,0.353 -1.922,0.034 l -2.011,-1.02 c -0.806,-0.408 -1.742,-0.256 -2.376,0.377 l -2.137,2.137 c -0.634,0.647 -0.785,1.579 -0.378,2.376 l 1.02,2.011 C 6.717,-4.4 6.704,-3.711 6.36,-3.098 5.609,-1.755 5.004,-0.315 4.588,1.188 4.395,1.864 3.921,2.359 3.245,2.573 L 1.096,3.27 C 0.235,3.551 -0.323,4.324 -0.323,5.214 v 3.018 c 0,0.902 0.558,1.675 1.419,1.944 l 2.149,0.696 c 0.668,0.214 1.138,0.71 1.331,1.386 0.428,1.503 1.02,2.942 1.771,4.286 0.345,0.613 0.353,1.301 0.034,1.922 l -1.02,2.011 c -0.407,0.806 -0.256,1.742 0.378,2.376 l 2.136,2.137 c 0.647,0.634 1.579,0.785 2.376,0.378 l 2.011,-1.02 c 0.621,-0.324 1.31,-0.303 1.923,0.033 1.343,0.752 2.783,1.356 4.286,1.784 0.676,0.194 1.171,0.668 1.385,1.331 l 0.697,2.137 c 0.281,0.86 1.054,1.419 1.944,1.419 h 3.018 c 0.903,0 1.675,-0.558 1.944,-1.419 l 0.697,-2.137 c 0.214,-0.667 0.709,-1.15 1.385,-1.331 1.503,-0.428 2.943,-1.032 4.286,-1.784 0.613,-0.344 1.301,-0.352 1.923,-0.033 l 2.01,1.02 c 0.806,0.407 1.743,0.256 2.376,-0.378 l 2.137,-2.137 c 0.634,-0.634 0.785,-1.57 0.378,-2.376 l -1.02,-2.011 c -0.323,-0.621 -0.302,-1.309 0.033,-1.922 0.752,-1.344 1.356,-2.783 1.785,-4.286 0.193,-0.676 0.667,-1.171 1.33,-1.386 l 2.15,-0.696 C 47.802,9.907 48.36,9.143 48.36,8.232 Z M 29.08,11.8 c 1.301,-1.301 2.107,-3.094 2.107,-5.071 0,-1.99 -0.806,-3.774 -2.107,-5.071 -1.302,-1.301 -3.094,-2.095 -5.072,-2.095 -1.989,0 -3.774,0.806 -5.071,2.095 -1.301,1.301 -2.094,3.094 -2.094,5.071 0,1.977 0.806,3.774 2.094,5.071 1.302,1.302 3.094,2.107 5.071,2.107 1.978,-0.012 3.762,-0.818 5.072,-2.107"
         style="fill:#000000;fill-opacity:1;fill-rule:nonzero;stroke:none"
         id="path28063" />
    </g>
    <path
       d="m 327.4143,-35.037307 h 28.24088"
       style="display:inline;fill:#808080;fill-opacity:0.996919;stroke:#808080;stroke-width:1.99301;stroke-linecap:butt;stroke-linejoin:miter;stroke-miterlimit:8;stroke-dasharray:none;stroke-opacity:1"
       id="path28067" />
    <path
       d="m 353.35796,-41.930162 13.78462,6.892819 -13.78561,6.891796 z"
       style="display:inline;fill:#808080;fill-opacity:1;fill-rule:evenodd;stroke:#808080;stroke-width:0.996502;stroke-opacity:1"
       id="path28071" />
    <text
       style="font-variant:normal;font-weight:bold;font-stretch:normal;font-size:22.5324px;font-family:'Myriad Pro';-inkscape-font-specification:MyriadPro-Bold;writing-mode:lr-tb;display:inline;fill:#808080;fill-opacity:1;fill-rule:nonzero;stroke:none;stroke-width:0.731534"
       id="text28077"
       x="381.96048"
       y="67.866951"
       inkscape:export-filename="/home/oesteban/Dropbox/Graphics/MRIQC/mriqc-neuroimaging-workflow.png"
       inkscape:export-xdpi="200"
       inkscape:export-ydpi="200"><tspan
         x="381.96048 395.3898 402.84808 410.53159 429.57153 442.93323 449.40002 462.35617 470.73825 482.61282"
         y="67.866951"
         sodipodi:role="line"
         id="tspan28075"
         style="stroke-width:0.731534">d/fMRIPrep</tspan></text>
    <g
       transform="matrix(0.99650297,0,0,-0.99650297,443.8316,-14.165034)"
       id="g28085"
       style="display:inline;opacity:0.5"
       inkscape:export-filename="/home/oesteban/Dropbox/Graphics/MRIQC/mriqc-neuroimaging-workflow.png"
       inkscape:export-xdpi="200"
       inkscape:export-ydpi="200">
      <path
         d="m 0,0 c -2.28,0.743 -3.782,2.825 -3.782,5.214 v 0.525 h -54.25 v -6.524 c 0,-2.955 2.418,-5.373 5.373,-5.373 H 1.99 c 0.084,0.226 0.173,0.453 0.29,0.667 l 0.697,1.364 c -0.6,1.172 -1.108,2.398 -1.515,3.644 z m -7.309,22.472 14.046,7.845 c 0.827,0.462 1.13,1.503 0.668,2.334 -0.16,0.29 -0.407,0.525 -0.689,0.676 l -14.025,7.834 c -0.827,0.461 -1.868,0.159 -2.321,-0.668 -0.462,-0.827 -0.16,-1.868 0.667,-2.321 L 2.405,31.82 -8.963,25.469 c -0.827,-0.462 -1.129,-1.503 -0.667,-2.322 0.453,-0.839 1.494,-1.129 2.321,-0.676 z m -6.393,23.802 c -0.924,0.214 -1.847,-0.365 -2.053,-1.289 l -5.856,-25.578 c -0.214,-0.915 0.365,-1.839 1.28,-2.053 0.924,-0.214 1.847,0.365 2.053,1.289 l 5.856,25.578 c 0.223,0.923 -0.357,1.839 -1.28,2.053 M -36.43,31.82 l 11.369,6.352 c 0.827,0.462 1.129,1.503 0.667,2.321 -0.462,0.827 -1.503,1.129 -2.321,0.668 l -14.037,-7.838 c -0.282,-0.151 -0.517,-0.386 -0.689,-0.676 -0.462,-0.827 -0.159,-1.868 0.668,-2.334 l 14.046,-7.846 c 0.826,-0.462 1.868,-0.159 2.321,0.668 0.462,0.827 0.16,1.868 -0.667,2.321 z M -3.707,9.177 h -54.325 v 41.622 c 0,2.955 2.418,5.373 5.373,5.373 h 71.281 c 2.956,0 5.374,-2.418 5.374,-5.373 V 34.52 H 22.48 c -2.397,0 -4.483,-1.516 -5.214,-3.795 L 16.792,29.272 C 15.533,28.873 14.319,28.37 13.148,27.757 l -1.364,0.696 C 9.655,29.541 7.107,29.142 5.42,27.442 L 3.283,25.305 C 1.595,23.617 1.188,21.069 2.271,18.941 L 2.968,17.577 C 2.368,16.405 1.86,15.18 1.465,13.933 l -1.46,-0.475 c -1.969,-0.65 -3.367,-2.292 -3.712,-4.281 z m 4.652,-25.138 h -7.502 l -2.288,6.373 h -16.347 l -2.279,-6.373 h -7.502 c -0.944,0 -1.721,-0.764 -1.721,-1.708 0,-0.945 0.772,-1.721 1.721,-1.721 H 0.944 c 0.945,0 1.722,0.772 1.722,1.721 0,0.936 -0.773,1.708 -1.722,1.708 z M 34.603,6.725 c 0,2.922 -1.183,5.579 -3.106,7.502 -1.923,1.922 -4.567,3.106 -7.502,3.106 -2.934,0 -5.587,-1.192 -7.502,-3.106 -1.922,-1.923 -3.106,-4.568 -3.106,-7.502 0,-2.935 1.184,-5.588 3.106,-7.502 1.923,-1.923 4.568,-3.106 7.502,-3.106 2.922,0 5.579,1.183 7.502,3.106 1.927,1.914 3.106,4.572 3.106,7.502 M 48.36,8.232 V 5.214 C 48.36,4.311 47.802,3.539 46.941,3.27 L 44.792,2.573 C 44.124,2.359 43.642,1.864 43.461,1.188 43.033,-0.315 42.428,-1.755 41.677,-3.098 41.333,-3.711 41.324,-4.4 41.643,-5.021 l 1.021,-2.011 c 0.407,-0.806 0.256,-1.742 -0.378,-2.376 l -2.137,-2.137 c -0.634,-0.633 -1.57,-0.785 -2.376,-0.377 l -2.011,1.02 c -0.621,0.323 -1.309,0.31 -1.922,-0.034 -1.344,-0.751 -2.784,-1.356 -4.287,-1.771 -0.675,-0.193 -1.171,-0.668 -1.385,-1.344 l -0.697,-2.136 c -0.281,-0.861 -1.041,-1.419 -1.943,-1.419 h -3.019 c -0.902,0 -1.675,0.558 -1.943,1.419 l -0.697,2.136 c -0.214,0.668 -0.71,1.151 -1.385,1.344 -1.503,0.419 -2.943,1.02 -4.287,1.771 -0.613,0.344 -1.301,0.353 -1.922,0.034 l -2.011,-1.02 c -0.806,-0.408 -1.742,-0.256 -2.376,0.377 l -2.137,2.137 c -0.634,0.647 -0.785,1.579 -0.378,2.376 l 1.021,2.011 C 6.717,-4.4 6.704,-3.711 6.36,-3.098 5.609,-1.755 5.004,-0.315 4.588,1.188 4.395,1.864 3.921,2.359 3.245,2.573 L 1.096,3.27 C 0.235,3.551 -0.323,4.324 -0.323,5.214 v 3.018 c 0,0.902 0.558,1.675 1.419,1.944 l 2.149,0.696 c 0.667,0.214 1.138,0.71 1.331,1.386 0.428,1.503 1.02,2.942 1.771,4.286 0.345,0.613 0.353,1.301 0.034,1.922 l -1.02,2.011 c -0.408,0.806 -0.256,1.742 0.378,2.376 l 2.136,2.137 c 0.647,0.634 1.579,0.785 2.376,0.378 l 2.011,-1.02 c 0.621,-0.324 1.31,-0.303 1.923,0.033 1.343,0.752 2.783,1.356 4.286,1.784 0.676,0.194 1.171,0.668 1.385,1.331 l 0.697,2.137 c 0.281,0.86 1.054,1.419 1.944,1.419 h 3.018 c 0.903,0 1.675,-0.558 1.944,-1.419 l 0.697,-2.137 c 0.214,-0.667 0.709,-1.15 1.385,-1.331 1.503,-0.428 2.943,-1.032 4.286,-1.784 0.613,-0.344 1.301,-0.352 1.923,-0.033 l 2.01,1.02 c 0.806,0.407 1.743,0.256 2.376,-0.378 l 2.137,-2.137 c 0.634,-0.634 0.785,-1.57 0.378,-2.376 l -1.02,-2.011 c -0.323,-0.621 -0.302,-1.309 0.033,-1.922 0.752,-1.344 1.356,-2.783 1.785,-4.286 0.193,-0.676 0.667,-1.171 1.33,-1.386 l 2.15,-0.696 C 47.802,9.907 48.36,9.143 48.36,8.232 Z M 29.08,11.8 c 1.301,-1.301 2.107,-3.094 2.107,-5.071 0,-1.99 -0.806,-3.774 -2.107,-5.071 -1.302,-1.301 -3.094,-2.095 -5.071,-2.095 -1.99,0 -3.775,0.806 -5.072,2.095 -1.301,1.301 -2.094,3.094 -2.094,5.071 0,1.977 0.806,3.774 2.094,5.071 1.302,1.302 3.094,2.107 5.072,2.107 1.977,-0.012 3.761,-0.818 5.071,-2.107"
         style="fill:#000000;fill-opacity:1;fill-rule:nonzero;stroke:none"
         id="path28083" />
    </g>
    <g
       transform="matrix(0.99650297,0,0,-0.99650297,510.88244,-34.495229)"
       id="g28089"
       style="display:inline;fill:#808080;fill-opacity:0.996919;stroke:#808080;stroke-opacity:1">
      <path
         d="M 0,0 H 28.34"
         style="fill:#808080;fill-opacity:0.996919;stroke:#808080;stroke-width:2;stroke-linecap:butt;stroke-linejoin:miter;stroke-miterlimit:8;stroke-dasharray:none;stroke-opacity:1"
         id="path28087" />
    </g>
    <g
       transform="matrix(0.99650297,0,0,-0.99650297,536.82607,-41.388119)"
       id="g28093"
       style="display:inline;fill:#808080;fill-opacity:1;stroke:#808080;stroke-opacity:1">
      <path
         d="M 0,0 13.833,-6.917 -0.001,-13.833 Z"
         style="fill:#808080;fill-opacity:1;fill-rule:evenodd;stroke:#808080;stroke-opacity:1"
         id="path28091" />
    </g>
    <g
       transform="matrix(0.99650297,0,0,-0.99650297,585.31905,-15.955064)"
       id="g28109"
       style="display:inline;opacity:0.5"
       inkscape:export-filename="/home/oesteban/Dropbox/Graphics/MRIQC/mriqc-neuroimaging-workflow.png"
       inkscape:export-xdpi="200"
       inkscape:export-ydpi="200">
      <path
         d="m 0,0 c -0.531,-0.845 -0.97,-1.756 -1.275,-2.714 -0.372,-1.162 -0.573,-2.412 -0.573,-3.716 0,-3.337 1.351,-6.356 3.537,-8.542 2.187,-2.187 5.206,-3.537 8.542,-3.537 0.79,0 1.568,0.079 2.3,0.213 0.765,0.146 1.496,0.36 2.194,0.644 0.644,0.259 1.363,-0.055 1.623,-0.686 0.067,-0.159 0.092,-0.313 0.092,-0.472 0.1,-2.818 1.317,-5.373 3.223,-7.221 1.903,-1.848 4.507,-2.998 7.367,-2.998 2.86,0 5.557,1.196 7.48,3.111 1.927,1.915 3.111,4.562 3.111,7.48 v 80.204 c 0,2.906 -1.196,5.557 -3.111,7.48 -1.915,1.915 -4.562,3.111 -7.48,3.111 -2.918,0 -5.452,-1.15 -7.367,-2.998 -1.915,-1.861 -3.144,-4.428 -3.223,-7.267 -0.021,-0.685 -0.586,-1.229 -1.275,-1.204 -0.147,0 -0.293,0.034 -0.427,0.092 -0.698,0.28 -1.442,0.498 -2.195,0.644 -0.732,0.146 -1.509,0.213 -2.299,0.213 -3.337,0 -6.356,-1.35 -8.542,-3.537 -2.187,-2.186 -3.537,-5.205 -3.537,-8.542 0,-3.336 1.35,-6.355 3.537,-8.541 2.186,-2.187 5.205,-3.537 8.542,-3.537 0.685,0 1.25,-0.565 1.25,-1.251 0,-0.685 -0.565,-1.25 -1.25,-1.25 -4.023,0 -7.66,1.635 -10.298,4.269 -0.351,0.351 -0.686,0.719 -1.003,1.104 -4.169,-1.016 -7.819,-3.379 -10.465,-6.602 -2.739,-3.357 -4.382,-7.639 -4.382,-12.304 0,-5.373 2.174,-10.243 5.703,-13.756 3.516,-3.516 8.383,-5.703 13.755,-5.703 0.686,0 1.25,-0.564 1.25,-1.25 0,-0.686 -0.564,-1.25 -1.25,-1.25 -1.204,0 -2.379,0.1 -3.524,0.28 z m 29.213,39.635 c 0.598,0.326 1.35,0.101 1.689,-0.497 0.326,-0.598 0.1,-1.351 -0.497,-1.69 -1.781,-0.969 -2.965,-1.902 -3.55,-2.805 -0.238,-0.359 -0.36,-0.698 -0.372,-1.016 -0.013,-0.305 0.067,-0.631 0.246,-0.97 0.385,-0.698 1.171,-1.442 2.354,-2.22 0.573,-0.372 0.745,-1.15 0.36,-1.723 -0.372,-0.572 -1.15,-0.744 -1.723,-0.359 -1.53,1.003 -2.6,2.04 -3.19,3.111 -0.405,0.744 -0.598,1.509 -0.551,2.274 0.045,0.765 0.292,1.509 0.777,2.241 0.811,1.25 2.287,2.454 4.44,3.629 z M 5.87,16.393 c 0.293,0.619 1.049,0.878 1.656,0.573 C 8.144,16.661 8.404,15.929 8.098,15.31 8.006,15.13 7.931,14.951 7.873,14.804 7.5,13.834 7.467,13.015 7.772,12.338 c 0.339,-0.72 1.083,-1.376 2.241,-1.928 0.272,-0.134 0.54,-0.247 0.832,-0.359 0.644,-0.247 0.958,-0.97 0.711,-1.61 C 11.309,7.797 10.586,7.483 9.946,7.73 9.574,7.876 9.236,8.023 8.93,8.169 7.241,8.993 6.104,10.038 5.514,11.301 4.904,12.609 4.917,14.085 5.548,15.707 5.64,15.946 5.74,16.18 5.853,16.406 Z M 28.786,1.701 C 26.511,0.89 24.776,-0.135 23.581,-1.376 22.238,-2.76 21.565,-4.441 21.54,-6.423 c 0,-0.685 -0.564,-1.237 -1.25,-1.229 -0.686,0 -1.238,0.565 -1.229,1.25 0.021,2.647 0.936,4.9 2.738,6.773 1.568,1.61 3.797,2.906 6.694,3.864 0.054,1.948 0.778,3.909 2.174,5.882 0.393,0.565 1.171,0.699 1.735,0.305 0.565,-0.392 0.699,-1.17 0.306,-1.735 C 31.432,6.885 30.872,5.15 31.006,3.482 31.14,1.814 31.997,0.146 33.565,-1.51 c 0.472,-0.498 0.451,-1.284 -0.055,-1.756 -0.497,-0.473 -1.283,-0.452 -1.756,0.054 -1.496,1.589 -2.492,3.232 -2.952,4.926 z m -1.238,-21.508 c -0.146,-0.677 -0.798,-1.103 -1.476,-0.957 -0.677,0.146 -1.103,0.799 -0.957,1.476 0.518,2.454 1.576,4.302 3.165,5.557 1.576,1.237 3.637,1.835 6.175,1.789 0.686,0 1.229,-0.573 1.229,-1.263 0,-0.685 -0.572,-1.229 -1.262,-1.229 -1.936,0.034 -3.471,-0.384 -4.595,-1.263 -1.117,-0.877 -1.869,-2.24 -2.266,-4.114 z M 9.758,-3.651 c 0.26,0.632 0.991,0.937 1.623,0.678 0.631,-0.26 0.936,-0.991 0.677,-1.623 -1.004,-2.433 -1.263,-4.189 -0.765,-5.238 0.418,-0.904 1.576,-1.343 3.47,-1.343 0.686,0 1.238,-0.551 1.25,-1.237 0,-0.686 -0.552,-1.238 -1.237,-1.25 -2.965,-0.013 -4.88,0.911 -5.745,2.784 -0.799,1.715 -0.552,4.114 0.732,7.233 z m 10.683,20.55 c 0.126,-0.678 -0.313,-1.33 -0.991,-1.455 -0.677,-0.126 -1.329,0.313 -1.455,0.991 -0.067,0.351 -0.112,0.677 -0.133,0.991 -0.101,1.442 0.238,2.625 1.024,3.562 0.757,0.903 1.881,1.488 3.37,1.768 0.418,0.08 0.844,0.134 1.308,0.168 0.686,0.045 1.284,-0.473 1.33,-1.163 0.046,-0.685 -0.473,-1.283 -1.162,-1.329 -0.372,-0.021 -0.711,-0.067 -1.025,-0.126 -0.911,-0.167 -1.555,-0.485 -1.927,-0.924 -0.351,-0.418 -0.498,-1.016 -0.439,-1.789 0.013,-0.226 0.046,-0.46 0.092,-0.698 z m -23.468,8.224 c 0.393,0.564 1.162,0.71 1.723,0.313 0.564,-0.393 0.71,-1.162 0.314,-1.722 -0.686,-1.004 -1.138,-1.869 -1.343,-2.613 -0.146,-0.519 -0.158,-0.958 -0.046,-1.309 0.101,-0.314 0.327,-0.598 0.686,-0.845 0.385,-0.259 0.903,-0.485 1.543,-0.664 0.665,-0.18 1.049,-0.866 0.865,-1.522 -0.18,-0.665 -0.865,-1.05 -1.522,-0.866 -0.923,0.247 -1.689,0.586 -2.299,1.016 -0.824,0.565 -1.363,1.276 -1.643,2.12 -0.272,0.811 -0.26,1.723 0.012,2.726 0.28,1.016 0.845,2.141 1.689,3.378 z m 30.455,26.08 c -1.827,-1.869 -2.906,-3.47 -3.224,-4.787 -0.28,-1.171 0.147,-2.153 1.296,-2.931 0.565,-0.385 0.711,-1.162 0.326,-1.723 -0.384,-0.564 -1.162,-0.71 -1.722,-0.326 -2.086,1.43 -2.86,3.291 -2.308,5.565 0.418,1.748 1.689,3.709 3.809,5.891 -1.33,1.827 -1.882,4.541 -1.656,8.145 0.046,0.686 0.632,1.204 1.317,1.171 0.686,-0.047 1.204,-0.632 1.171,-1.317 -0.213,-3.596 0.385,-5.996 1.802,-7.213 1.396,-1.195 3.742,-1.317 7.032,-0.393 0.665,0.18 1.351,-0.205 1.531,-0.865 0.179,-0.665 -0.205,-1.351 -0.866,-1.53 -3.629,-1.025 -6.455,-0.924 -8.508,0.305 z m -12.752,2.998 c 0.631,0.272 1.363,-0.034 1.622,-0.665 0.272,-0.631 -0.034,-1.363 -0.665,-1.622 -2.107,-0.891 -3.278,-1.869 -3.503,-2.965 -0.226,-1.082 0.439,-2.454 1.994,-4.101 0.472,-0.498 0.451,-1.284 -0.046,-1.756 -0.498,-0.472 -1.284,-0.452 -1.756,0.046 -2.162,2.287 -3.044,4.394 -2.626,6.33 0.406,1.936 2.074,3.516 4.98,4.733 z m 25.641,1.283 v -2.491 h 10.456 c 0.427,0 0.824,0.079 1.217,0.225 0.385,0.147 0.732,0.372 1.037,0.652 l 3.617,3.345 c 0.991,-0.698 2.195,-1.116 3.491,-1.116 1.668,0 3.177,0.677 4.269,1.768 1.091,1.092 1.768,2.601 1.768,4.269 0,1.668 -0.677,3.178 -1.768,4.269 -1.092,1.091 -2.601,1.768 -4.269,1.768 -1.668,0 -3.178,-0.677 -4.269,-1.768 -1.091,-1.091 -1.769,-2.601 -1.769,-4.269 0,-1.137 0.314,-2.195 0.858,-3.098 l -3.617,-3.336 c -0.092,-0.08 -0.167,-0.134 -0.259,-0.167 -0.092,-0.034 -0.193,-0.046 -0.305,-0.046 H 40.317 Z m 0,-65.131 v -2.492 h 10.456 c 0.126,0 0.226,-0.012 0.306,-0.046 0.079,-0.033 0.146,-0.067 0.213,-0.125 l 0.046,-0.046 3.616,-3.345 c -0.539,-0.903 -0.857,-1.974 -0.857,-3.098 0,-1.668 0.678,-3.178 1.769,-4.269 1.091,-1.091 2.601,-1.768 4.269,-1.768 1.668,0 3.177,0.677 4.268,1.768 1.092,1.091 1.769,2.601 1.769,4.269 0,1.668 -0.677,3.177 -1.769,4.269 -1.091,1.091 -2.6,1.768 -4.268,1.768 -1.309,0 -2.513,-0.418 -3.491,-1.116 l -3.617,3.345 c 0,0 -0.054,0.046 -0.092,0.066 -0.293,0.26 -0.611,0.452 -0.957,0.586 -0.385,0.146 -0.791,0.226 -1.217,0.226 H 40.305 Z m 0,13.27 h 8.563 c 0.418,0 0.824,-0.079 1.204,-0.225 0.385,-0.147 0.732,-0.36 1.037,-0.644 l 6.071,-5.544 c 0.092,-0.08 0.167,-0.134 0.259,-0.168 0.079,-0.033 0.18,-0.046 0.305,-0.046 h 2.601 c 0.246,1.171 0.823,2.208 1.643,3.032 1.091,1.091 2.6,1.768 4.269,1.768 1.668,0 3.177,-0.677 4.268,-1.768 1.091,-1.091 1.769,-2.601 1.769,-4.269 0,-1.668 -0.678,-3.178 -1.769,-4.269 -1.091,-1.091 -2.6,-1.768 -4.268,-1.768 -1.669,0 -3.178,0.677 -4.269,1.768 -0.811,0.811 -1.397,1.861 -1.643,3.031 h -2.601 c -0.418,0 -0.824,0.08 -1.204,0.226 -0.385,0.146 -0.732,0.36 -1.037,0.644 L 49.444,0.935 C 49.352,1.014 49.277,1.069 49.185,1.102 49.106,1.136 49.005,1.148 48.88,1.148 H 40.317 V 3.64 Z m 0,8.27 h 10.344 c 0.686,0 1.25,-0.564 1.25,-1.25 0,-0.685 -0.564,-1.25 -1.25,-1.25 H 40.317 Z m 0,11.018 h 17.665 c 0.259,1.463 0.97,2.772 1.974,3.783 1.283,1.284 3.064,2.087 5.038,2.087 1.973,0 3.742,-0.799 5.038,-2.087 1.283,-1.283 2.086,-3.064 2.086,-5.038 0,-1.973 -0.799,-3.742 -2.086,-5.038 -1.284,-1.283 -3.065,-2.086 -5.038,-2.086 -1.974,0 -3.742,0.799 -5.038,2.086 -1.017,1.016 -1.715,2.321 -1.974,3.784 H 40.317 Z m 0,11.017 h 10.344 c 0.686,0 1.25,-0.565 1.25,-1.25 0,-0.686 -0.564,-1.25 -1.25,-1.25 H 40.317 Z m 30.216,17.923 c 1.091,-1.091 1.768,-2.6 1.768,-4.268 0,-1.668 -0.677,-3.178 -1.768,-4.269 -1.092,-1.091 -2.601,-1.769 -4.269,-1.769 -1.668,0 -3.178,0.678 -4.269,1.769 -0.811,0.811 -1.396,1.86 -1.643,3.031 h -2.601 c -0.125,0 -0.225,-0.012 -0.305,-0.046 -0.079,-0.033 -0.167,-0.092 -0.259,-0.167 l -6.071,-5.544 c -0.313,-0.28 -0.652,-0.498 -1.037,-0.644 -0.384,-0.146 -0.79,-0.226 -1.204,-0.226 h -8.562 v 2.492 h 8.562 c 0.126,0 0.226,0.013 0.305,0.046 0.08,0.034 0.168,0.092 0.26,0.167 l 6.07,5.544 c 0.314,0.281 0.653,0.498 1.037,0.644 0.385,0.147 0.791,0.226 1.204,0.226 h 2.601 c 0.247,1.171 0.824,2.208 1.643,3.031 1.091,1.091 2.601,1.769 4.269,1.769 1.668,0 3.177,-0.678 4.269,-1.769 z"
         style="fill:#000000;fill-opacity:0.971676;fill-rule:evenodd;stroke:none"
         id="path28107" />
    </g>
    <text
       style="font-variant:normal;font-weight:bold;font-stretch:normal;font-size:22.5324px;font-family:'Myriad Pro';-inkscape-font-specification:MyriadPro-Bold;writing-mode:lr-tb;display:inline;fill:#808080;fill-opacity:1;fill-rule:nonzero;stroke:none;stroke-width:0.731534"
       id="text28115"
       x="549.31665"
       y="67.438858"
       inkscape:export-filename="/home/oesteban/Dropbox/Graphics/MRIQC/mriqc-neuroimaging-workflow.png"
       inkscape:export-xdpi="200"
       inkscape:export-ydpi="200"><tspan
         x="549.31665 562.72345 575.72467 588.92853 602.13257 614.02966 624.19183 632.4613 638.63525 650.57733 656.75128 665.02069"
         y="67.438858"
         sodipodi:role="line"
         id="tspan28111"
         style="stroke-width:0.731534">Connectivity</tspan><tspan
         x="561.50659 573.40393 585.09796 593.36737 601.92981 613.8269 623.98895 632.25836 638.43231 651.43359"
         y="94.477646"
         sodipodi:role="line"
         id="tspan28113"
         style="stroke-width:0.731534">extraction</tspan></text>
    <g
       transform="matrix(0.99650297,0,0,-0.99650297,676.2321,-33.684369)"
       id="g28119"
       style="display:inline;fill:#808080;fill-opacity:0.996919;stroke:#808080;stroke-opacity:1">
      <path
         d="M 0,0 H 28.34"
         style="fill:#808080;fill-opacity:0.996919;stroke:#808080;stroke-width:2;stroke-linecap:butt;stroke-linejoin:miter;stroke-miterlimit:8;stroke-dasharray:none;stroke-opacity:1"
         id="path28117" />
    </g>
    <g
       transform="matrix(0.99650297,0,0,-0.99650297,702.17566,-40.577259)"
       id="g28123"
       style="display:inline;fill:#808080;fill-opacity:1;stroke:#808080;stroke-opacity:1">
      <path
         d="M 0,0 13.833,-6.917 -0.001,-13.833 Z"
         style="fill:#808080;fill-opacity:1;fill-rule:evenodd;stroke:#808080;stroke-opacity:1"
         id="path28121" />
    </g>
    <text
       style="font-variant:normal;font-weight:bold;font-stretch:normal;font-size:22.5324px;font-family:'Myriad Pro';-inkscape-font-specification:MyriadPro-Bold;writing-mode:lr-tb;display:inline;fill:#808080;fill-opacity:1;fill-rule:nonzero;stroke:none;stroke-width:0.731534"
       id="text28081"
       x="750.17389"
       y="67.619118"
       inkscape:export-filename="/home/oesteban/Dropbox/Graphics/MRIQC/mriqc-neuroimaging-workflow.png"
       inkscape:export-xdpi="200"
       inkscape:export-ydpi="200"><tspan
         sodipodi:role="line"
         id="tspan28079"
         x="750.17389"
         y="67.619118"
         style="stroke-width:0.731534">Analysis</tspan></text>
    <g
       id="g28129"
       transform="matrix(0.99650297,0,0,-0.99650297,-1341.8746,1077.6593)"
       inkscape:export-filename="/home/oesteban/Dropbox/Graphics/MRIQC/mriqc-neuroimaging-workflow.png"
       inkscape:export-xdpi="200"
       inkscape:export-ydpi="200"
       style="display:inline">
      <path
         d="m 2120.418,1170.1684 c 6.1188,0 11.0891,-4.9703 11.0891,-11.0891 v -79.2076 c 0,-6.1188 -4.9703,-11.0891 -11.0891,-11.0891 -5.7227,0 -10.4356,4.3366 -11.0296,9.9208 -1.0297,-0.2772 -2.1188,-0.4159 -3.2277,-0.4159 -6.9901,0 -12.6732,5.6831 -12.6732,12.6733 0,1.4653 0.2573,2.8911 0.7128,4.1979 -5.9802,2.2574 -10.2178,8.0396 -10.2178,14.8118 0,6.3168 3.703,11.7822 9.0693,14.3169 -1.7228,2.1584 -2.7327,4.891 -2.7327,7.8613 0,6.0792 4.2772,11.1485 9.9802,12.396 -0.3168,1.0891 -0.4752,2.2574 -0.4752,3.4455 0,5.9209 4.0792,10.9109 9.5643,12.2971 0.594,5.5445 5.3069,9.8811 11.0296,9.8811 z m 28.5148,0 c 5.7227,0 10.4157,-4.3366 11.0296,-9.8811 5.505,-1.3862 9.5643,-6.3565 9.5643,-12.2971 0,-1.1881 -0.1584,-2.3564 -0.4751,-3.4455 5.7029,-1.2277 9.9801,-6.3168 9.9801,-12.396 0,-2.9703 -1.0099,-5.7029 -2.7327,-7.8613 5.3663,-2.5347 9.0693,-8.0001 9.0693,-14.3169 0,-6.7722 -4.2376,-12.5544 -10.2178,-14.8118 0.4555,-1.3068 0.7129,-2.7326 0.7129,-4.1979 0,-6.9902 -5.6831,-12.6733 -12.6733,-12.6733 -1.1089,0 -2.198,0.1387 -3.2277,0.4159 -0.594,-5.5842 -5.3069,-9.9208 -11.0296,-9.9208 -6.1188,0 -11.0891,4.9703 -11.0891,11.0891 v 79.2076 c 0,6.1188 4.9703,11.0891 11.0891,11.0891 z"
         id="path28125"
         style="fill:#808080;fill-opacity:1;stroke-width:0.19802" />
      <path
         d="m 2187.9476,1097.3611 c 0,-4.314 -1.4004,-8.2991 -3.7595,-11.5325 l 11.899,-11.9082 c 1.1749,-1.175 1.1749,-3.0829 0,-4.2578 -1.1749,-1.1748 -3.0829,-1.1748 -4.2577,0 l -11.8991,11.9084 c -3.2332,-2.3686 -7.2183,-3.7595 -11.5323,-3.7595 -10.7994,0 -19.5497,8.7503 -19.5497,19.5496 0,10.7994 8.7503,19.5497 19.5497,19.5497 10.7993,0 19.5496,-8.7503 19.5496,-19.5497 z m -19.5496,-13.5344 a 13.53445,13.53445 0 1 1 0,27.0689 13.53445,13.53445 0 1 1 0,-27.0689 z"
         id="path28127"
         style="fill:#808080;fill-opacity:0.991543;stroke:#ffffff;stroke-width:1.81875;stroke-miterlimit:8;stroke-dasharray:none;stroke-opacity:1" />
    </g>
  </g>
  <metadata
     id="metadata1">
    <rdf:RDF>
      <cc:License
         rdf:about="http://creativecommons.org/licenses/by/4.0/">
        <cc:permits
           rdf:resource="http://creativecommons.org/ns#Reproduction" />
        <cc:permits
           rdf:resource="http://creativecommons.org/ns#Distribution" />
        <cc:requires
           rdf:resource="http://creativecommons.org/ns#Notice" />
        <cc:requires
           rdf:resource="http://creativecommons.org/ns#Attribution" />
        <cc:permits
           rdf:resource="http://creativecommons.org/ns#DerivativeWorks" />
      </cc:License>
      <cc:Work
         rdf:about="">
        <cc:license
           rdf:resource="http://creativecommons.org/licenses/by/4.0/" />
      </cc:Work>
    </rdf:RDF>
  </metadata>
</svg>
