<?xml version="1.0" encoding="UTF-8" standalone="no"?>
<svg
   xmlns:dc="http://purl.org/dc/elements/1.1/"
   xmlns:cc="http://creativecommons.org/ns#"
   xmlns:rdf="http://www.w3.org/1999/02/22-rdf-syntax-ns#"
   xmlns:svg="http://www.w3.org/2000/svg"
   xmlns="http://www.w3.org/2000/svg"
   xmlns:xlink="http://www.w3.org/1999/xlink"
   xmlns:sodipodi="http://sodipodi.sourceforge.net/DTD/sodipodi-0.dtd"
   xmlns:inkscape="http://www.inkscape.org/namespaces/inkscape"
   width="98.269432mm"
   height="44.090351mm"
   viewBox="0 0 98.269432 44.090351"
   version="1.1"
   id="svg988"
   inkscape:version="1.0 (4035a4f, 2020-05-01)"
   sodipodi:docname="card-nipype.svg">
  <defs
     id="defs982">
    <linearGradient
       gradientTransform="translate(428.11226,185.94113)"
       inkscape:collect="always"
       xlink:href="#linearGradient11301"
       id="linearGradient11307"
       x1="89.136749"
       y1="111.92053"
       x2="147.77737"
       y2="168.1012"
       gradientUnits="userSpaceOnUse" />
    <linearGradient
       inkscape:collect="always"
       id="linearGradient11301">
      <stop
         style="stop-color:#ffe052;stop-opacity:1"
         offset="0"
         id="stop11303" />
      <stop
         style="stop-color:#ffc331;stop-opacity:1"
         offset="1"
         id="stop11305" />
    </linearGradient>
  </defs>
  <sodipodi:namedview
     id="base"
     pagecolor="#ffffff"
     bordercolor="#666666"
     borderopacity="1.0"
     inkscape:pageopacity="0.0"
     inkscape:pageshadow="2"
     inkscape:zoom="1.6328077"
     inkscape:cx="198.15498"
     inkscape:cy="90.951525"
     inkscape:document-units="mm"
     inkscape:current-layer="layer1"
     inkscape:document-rotation="0"
     showgrid="false"
     inkscape:snap-text-baseline="false"
     inkscape:window-width="1280"
     inkscape:window-height="755"
     inkscape:window-x="0"
     inkscape:window-y="23"
     inkscape:window-maximized="1"
     fit-margin-top="0"
     fit-margin-left="0"
     fit-margin-right="0"
     fit-margin-bottom="0" />
  <metadata
     id="metadata985">
    <rdf:RDF>
      <cc:Work
         rdf:about="">
        <dc:format>image/svg+xml</dc:format>
        <dc:type
           rdf:resource="http://purl.org/dc/dcmitype/StillImage" />
        <dc:title />
      </cc:Work>
    </rdf:RDF>
  </metadata>
  <g
     inkscape:label="Layer 1"
     inkscape:groupmode="layer"
     id="layer1"
     transform="translate(-33.200656,-64.470975)">
    <g
       id="g38237">
      <g
         transform="matrix(0.16163379,0,0,0.16163379,-40.04924,26.464047)"
         id="g1573">
        <ellipse
           ry="60.734837"
           rx="62.439674"
           cy="308.33292"
           cx="528.26031"
           id="path942"
           style="fill:#3771a2;fill-opacity:1;stroke:none" />
        <path
           style="fill:#3771a2;fill-opacity:1;stroke-width:1.34714"
           d="m 602.56099,298.30714 -12.87917,-4.20116 c -1.57375,-6.48868 -4.18668,-12.58348 -7.6765,-18.09806 l 6.05775,-11.84891 c -4.15804,-5.35091 -9.05251,-10.1256 -14.53474,-14.18169 l -12.14412,5.91114 c -5.64996,-3.4067 -11.89589,-5.95905 -18.54412,-7.4934 l -4.30534,-12.56618 c -3.36025,-0.44846 -6.78869,-0.68666 -10.27578,-0.68666 -3.48709,0 -6.91416,0.2382 -10.27578,0.68666 l -4.30533,12.56618 c -6.64823,1.53435 -12.89416,4.0867 -18.5455,7.4934 l -12.14275,-5.91114 c -5.48359,4.05609 -10.37669,8.83078 -14.532,14.18169 l 6.05773,11.84891 c -3.49118,5.51458 -6.10683,11.60938 -7.67786,18.09806 l -12.87916,4.20116 c -0.45958,3.2776 -0.70369,6.62441 -0.70369,10.02579 0,3.40137 0.24275,6.74818 0.70369,10.02579 l 12.87916,4.20116 c 1.57239,6.48868 4.18668,12.58347 7.67649,18.09806 l -6.055,11.8489 c 4.15532,5.35091 9.04841,10.12561 14.53202,14.18171 l 12.14273,-5.91115 c 5.65134,3.4067 11.89728,5.95906 18.54551,7.4934 l 4.30532,12.56484 c 3.36026,0.4498 6.78871,0.688 10.27578,0.688 3.48709,0 6.91417,-0.23819 10.27578,-0.688 l 4.30533,-12.56484 c 6.64823,-1.53434 12.89417,-4.0867 18.54414,-7.49206 l 12.1441,5.90982 c 5.48224,-4.05611 10.3767,-8.8308 14.53202,-14.18171 l -6.055,-11.8489 c 3.48981,-5.51459 6.10273,-11.60938 7.67649,-18.09806 l 12.87916,-4.20116 c 0.45959,-3.27761 0.70369,-6.62442 0.70369,-10.02579 0,-3.40138 -0.2441,-6.74819 -0.70505,-10.0258 z m -74.30202,60.04831 c -28.31124,0 -51.26299,-22.39503 -51.26299,-50.02252 0,-27.6275 22.95175,-50.02253 51.26299,-50.02253 28.31125,0 51.26299,22.39503 51.26299,50.02253 0,27.62749 -22.95174,50.02252 -51.26299,50.02252 z"
           id="path29" />
        <g
           transform="translate(2.4999997e-5)"
           id="g946">
          <path
             id="path8615"
             d="m 527.86226,253.40988 c -28.03173,0 -26.28125,12.15625 -26.28125,12.15625 l 0.0312,12.59375 h 26.75 v 3.78125 h -37.375 c 0,0 -17.9375,-2.03428 -17.9375,26.25 0,28.28427 15.65625,27.28125 15.65625,27.28125 h 9.34375 v -13.125 c 0,0 -0.50365,-15.65625 15.40625,-15.65625 15.9099,0 26.53125,0 26.53125,0 0,0 14.90625,0.24096 14.90625,-14.40625 0,-14.64721 0,-24.21875 0,-24.21875 0,0 2.26318,-14.65625 -27.03125,-14.65625 z m -14.75,8.46875 c 2.66143,0 4.8125,2.15107 4.8125,4.8125 0,2.66143 -2.15107,4.8125 -4.8125,4.8125 -2.66143,0 -4.8125,-2.15107 -4.8125,-4.8125 0,-2.66143 2.15107,-4.8125 4.8125,-4.8125 z"
             style="color:#000000;display:inline;overflow:visible;visibility:visible;fill:#ffffff;fill-opacity:1;fill-rule:nonzero;stroke:none;stroke-width:1;stroke-linecap:butt;stroke-linejoin:miter;stroke-miterlimit:4;stroke-dasharray:none;stroke-dashoffset:0;stroke-opacity:1;marker:none;marker-start:none;marker-mid:none;marker-end:none" />
          <path
             style="color:#000000;display:inline;overflow:visible;visibility:visible;fill:url(#linearGradient11307);fill-opacity:1;fill-rule:nonzero;stroke:none;stroke-width:1;stroke-linecap:butt;stroke-linejoin:miter;stroke-miterlimit:4;stroke-dasharray:none;stroke-dashoffset:0;stroke-opacity:1;marker:none;marker-start:none;marker-mid:none;marker-end:none"
             d="m 528.65836,363.25598 c 28.03174,0 26.28125,-12.15625 26.28125,-12.15625 l -0.0312,-12.59375 h -26.75 v -3.78125 h 37.375 c 0,0 17.9375,2.03427 17.9375,-26.25001 10e-6,-28.28427 -15.65625,-27.28125 -15.65625,-27.28125 h -9.34375 v 13.125 c 0,0 0.50366,15.65625 -15.40625,15.65625 -15.9099,0 -26.53125,0 -26.53125,0 0,0 -14.90625,-0.24096 -14.90625,14.40626 0,14.6472 0,24.21875 0,24.21875 0,0 -2.26318,14.65625 27.03125,14.65625 z m 14.75,-8.46875 c -2.66143,0 -4.8125,-2.15107 -4.8125,-4.8125 0,-2.66143 2.15107,-4.8125 4.8125,-4.8125 2.66143,0 4.8125,2.15107 4.8125,4.8125 10e-6,2.66143 -2.15107,4.8125 -4.8125,4.8125 z"
             id="path8620" />
        </g>
      </g>
      <text
         id="text1619"
         y="72.270714"
         x="61.73798"
         style="font-size:5.64444px;line-height:1.25;font-family:Helvetica;-inkscape-font-specification:'Helvetica, Normal';stroke-width:0.264583"
         xml:space="preserve"><tspan
           style="font-style:normal;font-variant:normal;font-weight:bold;font-stretch:normal;font-size:9.87778px;font-family:Helvetica;-inkscape-font-specification:'Helvetica, Bold';font-variant-ligatures:normal;font-variant-caps:normal;font-variant-numeric:normal;font-variant-east-asian:normal;stroke-width:0.264583"
           y="72.270714"
           x="61.73798"
           id="tspan1617"
           sodipodi:role="line">NiPype</tspan></text>
      <text
         id="text1623"
         y="80.534851"
         x="62.054165"
         style="font-size:5.64444px;line-height:0;font-family:Helvetica;-inkscape-font-specification:'Helvetica, Normal';stroke-width:0.264583"
         xml:space="preserve"><tspan
           style="font-style:oblique;font-variant:normal;font-weight:normal;font-stretch:normal;font-size:6.35px;line-height:1;font-family:Helvetica;-inkscape-font-specification:'Helvetica, Oblique';font-variant-ligatures:normal;font-variant-caps:normal;font-variant-numeric:normal;font-variant-east-asian:normal;fill:#666666;stroke-width:0.264583"
           y="80.534851"
           x="62.054165"
           id="tspan1621"
           sodipodi:role="line">Neuroimaging workflows</tspan><tspan
           id="tspan1625"
           style="font-style:oblique;font-variant:normal;font-weight:normal;font-stretch:normal;font-size:6.35px;line-height:1;font-family:Helvetica;-inkscape-font-specification:'Helvetica, Oblique';font-variant-ligatures:normal;font-variant-caps:normal;font-variant-numeric:normal;font-variant-east-asian:normal;fill:#666666;stroke-width:0.264583"
           y="86.88485"
           x="62.054165"
           sodipodi:role="line">and interfaces in Python</tspan></text>
      <text
         id="text1629"
         y="97.873337"
         x="33.121075"
         style="font-size:5.64444px;line-height:0.85;font-family:Helvetica;-inkscape-font-specification:'Helvetica, Normal';stroke-width:0.264583"
         xml:space="preserve"><tspan
           style="font-style:normal;font-variant:normal;font-weight:normal;font-stretch:normal;font-size:4.93889px;font-family:Helvetica;-inkscape-font-specification:'Helvetica, Normal';font-variant-ligatures:normal;font-variant-caps:normal;font-variant-numeric:normal;font-variant-east-asian:normal;stroke-width:0.264583"
           y="97.873337"
           x="33.121075"
           id="tspan1627"
           sodipodi:role="line">The workflow engine supporting the </tspan><tspan
           id="tspan1631"
           style="font-style:normal;font-variant:normal;font-weight:normal;font-stretch:normal;font-size:4.93889px;font-family:Helvetica;-inkscape-font-specification:'Helvetica, Normal';font-variant-ligatures:normal;font-variant-caps:normal;font-variant-numeric:normal;font-variant-east-asian:normal;stroke-width:0.264583"
           y="102.67111"
           x="33.121075"
           sodipodi:role="line">execution graph and run time management </tspan><tspan
           id="tspan1633"
           style="font-style:normal;font-variant:normal;font-weight:normal;font-stretch:normal;font-size:4.93889px;font-family:Helvetica;-inkscape-font-specification:'Helvetica, Normal';font-variant-ligatures:normal;font-variant-caps:normal;font-variant-numeric:normal;font-variant-east-asian:normal;stroke-width:0.264583"
           y="107.46889"
           x="33.121075"
           sodipodi:role="line">(staging tasks, communication, data flow).</tspan></text>
    </g>
  </g>
</svg>
