<?xml version="1.0" encoding="UTF-8" standalone="no"?>
<svg
   xmlns:dc="http://purl.org/dc/elements/1.1/"
   xmlns:cc="http://creativecommons.org/ns#"
   xmlns:rdf="http://www.w3.org/1999/02/22-rdf-syntax-ns#"
   xmlns:svg="http://www.w3.org/2000/svg"
   xmlns="http://www.w3.org/2000/svg"
   xmlns:sodipodi="http://sodipodi.sourceforge.net/DTD/sodipodi-0.dtd"
   xmlns:inkscape="http://www.inkscape.org/namespaces/inkscape"
   sodipodi:docname="card-crowdmri.svg"
   inkscape:version="1.0 (4035a4f, 2020-05-01)"
   id="svg988"
   version="1.1"
   viewBox="0 0 111.29383 43.47226"
   height="43.47226mm"
   width="111.29383mm">
  <defs
     id="defs982">
    <marker
       inkscape:isstock="true"
       style="overflow:visible"
       id="Arrow2Mend"
       refX="0"
       refY="0"
       orient="auto"
       inkscape:stockid="Arrow2Mend">
      <path
         transform="scale(-0.6)"
         d="M 8.7185878,4.0337352 -2.2072895,0.01601326 8.7185884,-4.0017078 c -1.7454984,2.3720609 -1.7354408,5.6174519 -6e-7,8.035443 z"
         style="fill:#666666;fill-opacity:1;fill-rule:evenodd;stroke:#666666;stroke-width:0.625;stroke-linejoin:round;stroke-opacity:1"
         id="path3686" />
    </marker>
    <marker
       inkscape:isstock="true"
       style="overflow:visible"
       id="Arrow2Mstart"
       refX="0"
       refY="0"
       orient="auto"
       inkscape:stockid="Arrow2Mstart">
      <path
         transform="scale(0.6)"
         d="M 8.7185878,4.0337352 -2.2072895,0.01601326 8.7185884,-4.0017078 c -1.7454984,2.3720609 -1.7354408,5.6174519 -6e-7,8.035443 z"
         style="fill:#666666;fill-opacity:1;fill-rule:evenodd;stroke:#666666;stroke-width:0.625;stroke-linejoin:round;stroke-opacity:1"
         id="path3683" />
    </marker>
    <marker
       inkscape:isstock="true"
       style="overflow:visible"
       id="Arrow1Mend"
       refX="0"
       refY="0"
       orient="auto"
       inkscape:stockid="Arrow1Mend">
      <path
         transform="matrix(-0.4,0,0,-0.4,-4,0)"
         style="fill:#666666;fill-opacity:1;fill-rule:evenodd;stroke:#666666;stroke-width:1pt;stroke-opacity:1"
         d="M 0,0 5,-5 -12.5,0 5,5 Z"
         id="path3668" />
    </marker>
    <marker
       inkscape:isstock="true"
       style="overflow:visible"
       id="Arrow2Lstart"
       refX="0"
       refY="0"
       orient="auto"
       inkscape:stockid="Arrow2Lstart">
      <path
         transform="matrix(1.1,0,0,1.1,1.1,0)"
         d="M 8.7185878,4.0337352 -2.2072895,0.01601326 8.7185884,-4.0017078 c -1.7454984,2.3720609 -1.7354408,5.6174519 -6e-7,8.035443 z"
         style="fill:#666666;fill-opacity:1;fill-rule:evenodd;stroke:#666666;stroke-width:0.625;stroke-linejoin:round;stroke-opacity:1"
         id="path3677" />
    </marker>
    <marker
       inkscape:isstock="true"
       style="overflow:visible"
       id="Arrow2Lend"
       refX="0"
       refY="0"
       orient="auto"
       inkscape:stockid="Arrow2Lend">
      <path
         transform="matrix(-1.1,0,0,-1.1,-1.1,0)"
         d="M 8.7185878,4.0337352 -2.2072895,0.01601326 8.7185884,-4.0017078 c -1.7454984,2.3720609 -1.7354408,5.6174519 -6e-7,8.035443 z"
         style="fill:#666666;fill-opacity:1;fill-rule:evenodd;stroke:#666666;stroke-width:0.625;stroke-linejoin:round;stroke-opacity:1"
         id="path3680" />
    </marker>
    <marker
       inkscape:isstock="true"
       style="overflow:visible"
       id="Arrow1Mstart"
       refX="0"
       refY="0"
       orient="auto"
       inkscape:stockid="Arrow1Mstart">
      <path
         transform="matrix(0.4,0,0,0.4,4,0)"
         style="fill:#666666;fill-opacity:1;fill-rule:evenodd;stroke:#666666;stroke-width:1pt;stroke-opacity:1"
         d="M 0,0 5,-5 -12.5,0 5,5 Z"
         id="path3665" />
    </marker>
    <marker
       inkscape:isstock="true"
       style="overflow:visible"
       id="marker3937"
       refX="0"
       refY="0"
       orient="auto"
       inkscape:stockid="Arrow1Lstart">
      <path
         transform="matrix(0.8,0,0,0.8,10,0)"
         style="fill:#000000;fill-opacity:1;fill-rule:evenodd;stroke:#000000;stroke-width:1pt;stroke-opacity:1"
         d="M 0,0 5,-5 -12.5,0 5,5 Z"
         id="path3935" />
    </marker>
    <marker
       inkscape:isstock="true"
       style="overflow:visible"
       id="Arrow1Lstart"
       refX="0"
       refY="0"
       orient="auto"
       inkscape:stockid="Arrow1Lstart">
      <path
         transform="matrix(0.8,0,0,0.8,10,0)"
         style="fill:#000000;fill-opacity:1;fill-rule:evenodd;stroke:#000000;stroke-width:1pt;stroke-opacity:1"
         d="M 0,0 5,-5 -12.5,0 5,5 Z"
         id="path3659" />
    </marker>
    <clipPath
       id="clipPath1162"
       clipPathUnits="userSpaceOnUse">
      <path
         id="path1160"
         d="m 585,24.3 c 0,-2.8 2,-5 5,-5 h 492 c 3,0 5,2.2 5,5 V 677 c 0,2 -2,5 -5,5 H 590 c -3,0 -5,-3 -5,-5 z" />
    </clipPath>
    <clipPath
       id="clipPath1172"
       clipPathUnits="userSpaceOnUse">
      <path
         id="path1170"
         d="m 585,24.3 c 0,-2.8 2,-5 5,-5 h 492 c 3,0 5,2.2 5,5 V 677 c 0,2 -2,5 -5,5 H 590 c -3,0 -5,-3 -5,-5 z" />
    </clipPath>
    <clipPath
       id="clipPath1208"
       clipPathUnits="userSpaceOnUse">
      <path
         id="path1206"
         d="m 20,705 c 0,-3 2.2,-5 5,-5 h 1057 c 3,0 5,2 5,5 v 474 c 0,3 -2,5 -5,5 H 25 c -2.8,0 -5,-2 -5,-5 z" />
    </clipPath>
    <clipPath
       id="clipPath1218"
       clipPathUnits="userSpaceOnUse">
      <path
         id="path1216"
         d="m 20,705 c 0,-3 2.2,-5 5,-5 h 1057 c 3,0 5,2 5,5 v 474 c 0,3 -2,5 -5,5 H 25 c -2.8,0 -5,-2 -5,-5 z" />
    </clipPath>
    <clipPath
       id="clipPath1552"
       clipPathUnits="userSpaceOnUse">
      <path
         id="path1550"
         d="m 20,1216 c 0,-3 2.2,-5 5,-5 h 330 c 2,0 5,2 5,5 v 430 c 0,3 -3,5 -5,5 H 25 c -2.8,0 -5,-2 -5,-5 z" />
    </clipPath>
    <clipPath
       id="clipPath1562"
       clipPathUnits="userSpaceOnUse">
      <path
         id="path1560"
         d="m 20,1216 c 0,-3 2.2,-5 5,-5 h 330 c 2,0 5,2 5,5 v 430 c 0,3 -3,5 -5,5 H 25 c -2.8,0 -5,-2 -5,-5 z" />
    </clipPath>
    <clipPath
       id="clipPath1598"
       clipPathUnits="userSpaceOnUse">
      <path
         id="path1596"
         d="m 394,1216 c 0,-3 2,-5 5,-5 h 326 c 3,0 5,2 5,5 v 430 c 0,3 -2,5 -5,5 H 399 c -3,0 -5,-2 -5,-5 z" />
    </clipPath>
    <clipPath
       id="clipPath1608"
       clipPathUnits="userSpaceOnUse">
      <path
         id="path1606"
         d="m 394,1216 c 0,-3 2,-5 5,-5 h 326 c 3,0 5,2 5,5 v 430 c 0,3 -2,5 -5,5 H 399 c -3,0 -5,-2 -5,-5 z" />
    </clipPath>
    <clipPath
       id="clipPath1624"
       clipPathUnits="userSpaceOnUse">
      <path
         id="path1622"
         d="m 728,1216 c 0,-3 3,-5 5,-5 h 349 c 3,0 5,2 5,5 v 430 c 0,3 -2,5 -5,5 H 733 c -2,0 -5,-2 -5,-5 z" />
    </clipPath>
    <clipPath
       id="clipPath1634"
       clipPathUnits="userSpaceOnUse">
      <path
         id="path1632"
         d="m 728,1216 c 0,-3 3,-5 5,-5 h 349 c 3,0 5,2 5,5 v 430 c 0,3 -2,5 -5,5 H 733 c -2,0 -5,-2 -5,-5 z" />
    </clipPath>
    <clipPath
       id="clipPath2050"
       clipPathUnits="userSpaceOnUse">
      <path
         id="path2048"
         d="m 20,24.3 c 0,-2.8 2.2,-5 5,-5 h 510 c 2,0 5,2.2 5,5 V 677 c 0,2 -3,5 -5,5 H 25 c -2.8,0 -5,-3 -5,-5 z" />
    </clipPath>
    <clipPath
       id="clipPath2060"
       clipPathUnits="userSpaceOnUse">
      <path
         id="path2058"
         d="m 20,24.3 c 0,-2.8 2.2,-5 5,-5 h 510 c 2,0 5,2.2 5,5 V 677 c 0,2 -3,5 -5,5 H 25 c -2.8,0 -5,-3 -5,-5 z" />
    </clipPath>
    <clipPath
       clipPathUnits="userSpaceOnUse"
       id="clipPath4500">
      <circle
         style="fill:#ffffff;fill-opacity:0.27566;stroke-width:0.740833;stroke-miterlimit:3.3"
         id="circle4502"
         cx="-8.0102453"
         cy="-30.27434"
         r="38.560684" />
    </clipPath>
    <inkscape:perspective
       id="perspective2669"
       inkscape:persp3d-origin="372.04725 : 387.1748 : 1"
       inkscape:vp_z="744.0945 : 562.56851 : 1"
       inkscape:vp_y="0 : 1000 : 0"
       inkscape:vp_x="0 : 562.56851 : 1"
       sodipodi:type="inkscape:persp3d" />
    <style
       id="style5077">.cls-1{fill:#1a1a1a;}</style>
  </defs>
  <sodipodi:namedview
     fit-margin-bottom="0"
     fit-margin-right="0"
     fit-margin-left="0"
     fit-margin-top="0"
     inkscape:window-maximized="1"
     inkscape:window-y="23"
     inkscape:window-x="0"
     inkscape:window-height="755"
     inkscape:window-width="1280"
     inkscape:snap-text-baseline="false"
     showgrid="false"
     inkscape:document-rotation="0"
     inkscape:current-layer="layer1"
     inkscape:document-units="mm"
     inkscape:cy="-39.869144"
     inkscape:cx="112.95477"
     inkscape:zoom="0.85909364"
     inkscape:pageshadow="2"
     inkscape:pageopacity="0.0"
     borderopacity="1.0"
     bordercolor="#666666"
     pagecolor="#ffffff"
     id="base" />
  <metadata
     id="metadata985">
    <rdf:RDF>
      <cc:Work
         rdf:about="">
        <dc:format>image/svg+xml</dc:format>
        <dc:type
           rdf:resource="http://purl.org/dc/dcmitype/StillImage" />
        <dc:title></dc:title>
      </cc:Work>
    </rdf:RDF>
  </metadata>
  <g
     transform="translate(-33.193422,-65.026365)"
     id="layer1"
     inkscape:groupmode="layer"
     inkscape:label="Layer 1">
    <g
       id="g34136">
      <text
         xml:space="preserve"
         style="font-size:5.64444px;line-height:1.25;font-family:Helvetica;-inkscape-font-specification:'Helvetica, Normal';stroke-width:0.264583"
         x="61.73798"
         y="72.270714"
         id="text1619"><tspan
           sodipodi:role="line"
           id="tspan1617"
           x="61.73798"
           y="72.270714"
           style="font-style:normal;font-variant:normal;font-weight:bold;font-stretch:normal;font-size:9.87778px;font-family:Helvetica;-inkscape-font-specification:'Helvetica, Bold';font-variant-ligatures:normal;font-variant-caps:normal;font-variant-numeric:normal;font-variant-east-asian:normal;stroke-width:0.264583">CrowdMRI</tspan></text>
      <text
         xml:space="preserve"
         style="font-size:5.64444px;line-height:0;font-family:Helvetica;-inkscape-font-specification:'Helvetica, Normal';stroke-width:0.264583"
         x="62.054165"
         y="80.534851"
         id="text1623"><tspan
           id="tspan4530"
           sodipodi:role="line"
           x="62.054165"
           y="80.534851"
           style="font-style:oblique;font-variant:normal;font-weight:normal;font-stretch:normal;font-size:6.35px;line-height:1;font-family:Helvetica;-inkscape-font-specification:'Helvetica, Oblique';font-variant-ligatures:normal;font-variant-caps:normal;font-variant-numeric:normal;font-variant-east-asian:normal;fill:#666666;stroke-width:0.264583">A database of crowdsourced</tspan><tspan
           id="tspan4932"
           sodipodi:role="line"
           x="62.054165"
           y="86.88485"
           style="font-style:oblique;font-variant:normal;font-weight:normal;font-stretch:normal;font-size:6.35px;line-height:1;font-family:Helvetica;-inkscape-font-specification:'Helvetica, Oblique';font-variant-ligatures:normal;font-variant-caps:normal;font-variant-numeric:normal;font-variant-east-asian:normal;fill:#666666;stroke-width:0.264583">neuroimaging features</tspan></text>
      <text
         xml:space="preserve"
         style="font-size:5.64444px;line-height:0.85;font-family:Helvetica;-inkscape-font-specification:'Helvetica, Normal';stroke-width:0.264583"
         x="33.121075"
         y="97.873337"
         id="text1629"><tspan
           id="tspan4543"
           sodipodi:role="line"
           x="33.121075"
           y="97.873337"
           style="font-style:normal;font-variant:normal;font-weight:normal;font-stretch:normal;font-size:4.93889px;font-family:Helvetica;-inkscape-font-specification:'Helvetica, Normal';font-variant-ligatures:normal;font-variant-caps:normal;font-variant-numeric:normal;font-variant-east-asian:normal;stroke-width:0.264583">An Internet Service endpoint to collect statistics</tspan><tspan
           id="tspan4939"
           sodipodi:role="line"
           x="33.121075"
           y="102.67111"
           style="font-style:normal;font-variant:normal;font-weight:normal;font-stretch:normal;font-size:4.93889px;font-family:Helvetica;-inkscape-font-specification:'Helvetica, Normal';font-variant-ligatures:normal;font-variant-caps:normal;font-variant-numeric:normal;font-variant-east-asian:normal;stroke-width:0.264583">about data quality, extensible to any crowdsourcing</tspan><tspan
           id="tspan4941"
           sodipodi:role="line"
           x="33.121075"
           y="107.46889"
           style="font-style:normal;font-variant:normal;font-weight:normal;font-stretch:normal;font-size:4.93889px;font-family:Helvetica;-inkscape-font-specification:'Helvetica, Normal';font-variant-ligatures:normal;font-variant-caps:normal;font-variant-numeric:normal;font-variant-east-asian:normal;stroke-width:0.264583">application.</tspan></text>
      <g
         transform="matrix(0.39340692,0,0,0.39340692,5.5522365,78.852295)"
         id="g5770">
        <path
           d="m 129.9903,-10.167851 c 0,-3.016894 -2.42647,-5.482746 -5.87843,-7.156385 -3.45198,-1.673731 -8.0935,-2.658112 -13.20511,-2.658112 -5.1116,0 -9.75303,0.984381 -13.205377,2.658112 -3.452067,1.673639 -5.878447,4.139491 -5.878447,7.156385 0.0055,7.5216689 0,15.2897318 0,22.900609 0,3.016901 2.42648,5.465616 5.878447,7.13935 3.452157,1.673735 8.093777,2.675153 13.205377,2.675153 5.11161,0 9.75313,-1.001418 13.20538,-2.675153 3.45198,-1.673637 5.87844,-4.122547 5.87844,-7.139253 m -19.08382,-30.534307 c 4.82592,0 9.19091,0.952782 12.25114,2.436542 3.06012,1.483762 4.65169,3.395642 4.65169,5.196966 0,1.8013251 -1.59157,3.6961694 -4.65169,5.1799303 -3.06023,1.4837617 -7.42522,2.4536703 -12.25114,2.4536703 -4.82582,0 -9.19091,-0.9699086 -12.251117,-2.4536703 -3.060227,-1.4837609 -4.651697,-3.3786052 -4.651697,-5.1799303 0,-1.801324 1.59147,-3.713296 4.651697,-5.196966 3.060207,-1.48367 7.425297,-2.436542 12.251117,-2.436542 z M 94.003946,-5.5332836 c 0.98456,0.962031 2.24638,1.8012328 3.697437,2.5046888 3.452157,1.6737314 8.093777,2.6752404 13.205377,2.6752404 5.11161,0 9.75312,-1.0014178 13.20537,-2.6752404 1.45106,-0.7035481 2.71289,-1.5426578 3.69745,-2.5046888 0,0.9996769 0,1.9992633 0,2.9989402 0,1.8013244 -1.59157,3.6961677 -4.65169,5.1798383 -3.06023,1.4837608 -7.42522,2.4536694 -12.25114,2.4536694 -4.82581,0 -9.1909,-0.9699086 -12.251107,-2.4536694 -3.060227,-1.483762 -4.651697,-3.3786062 -4.651697,-5.1798383 0,-0.9996769 0,-1.9992633 0,-2.9989402 z m 0,7.6335997 c 0.98456,0.9620312 2.24638,1.8012322 3.697437,2.504689 3.452157,1.67373 8.093777,2.6752398 13.205377,2.6752398 5.11161,0 9.75312,-1.0014158 13.20537,-2.6752398 1.45106,-0.7035473 2.71289,-1.5426578 3.69745,-2.504689 0,0.9996769 0,1.9992617 0,2.9988482 0,1.8013251 -1.59157,3.6961696 -4.65169,5.1798387 -3.06023,1.483757 -7.42522,2.453668 -12.25114,2.453668 -4.82581,0 -9.1909,-0.969911 -12.251107,-2.453668 -3.060227,-1.4836691 -4.651697,-3.3785136 -4.651697,-5.1798387 0,-0.9995865 0,-1.9992625 0,-2.9988482 z m 0,7.6335081 c 0.98456,0.9620308 2.24638,1.8012278 3.697437,2.5046828 3.452157,1.673735 8.093777,2.675249 13.205377,2.675249 5.11161,0 9.75312,-1.001419 13.20537,-2.675249 1.45106,-0.703455 2.71289,-1.542652 3.69745,-2.5046828 v 2.9988468 c 0,1.801232 -1.59157,3.696172 -4.65169,5.179927 -3.06023,1.483763 -7.42522,2.453577 -12.25114,2.453577 -4.82581,0 -9.1909,-0.969814 -12.251107,-2.453577 -3.060137,-1.483755 -4.651697,-3.378695 -4.651697,-5.179927 z"
           id="path5551-9"
           style="stroke-width:0.0915958" />
        <rect
           style="fill:#ffffff;fill-opacity:1;stroke-width:0.56787;stroke-miterlimit:3.3"
           id="rect5761"
           width="23.005651"
           height="50.8764"
           x="79.106087"
           y="-30.868149" />
        <path
           id="path5141-8"
           d="m 103.29101,-8.7004913 0.34286,-1.0264106 0.25756,-1.0286041 c 0.0731,-0.702229 -0.0269,-1.411668 -0.29105,-2.066396 -0.36247,-0.85725 -0.84137,-1.875896 -1.19062,-2.595563 0.72231,-0.836083 1.41287,-2.103437 1.29117,-3.590396 -0.0874,-1.074827 -0.41469,-2.116378 -0.9578,-3.048 0.79375,-1.513416 2.11667,-4.81277 0.22755,-7.879291 -1.55046,-2.524125 -4.085171,-3.251729 -5.455713,-3.458104 -1.886479,-0.28575 -3.640666,0.04762 -4.577291,0.867833 -0.565061,0.492549 -1.046659,1.073325 -1.426105,1.719792 -1.553104,-0.306917 -3.680354,-0.111125 -5.156729,1.920875 -0.892456,1.229679 -1.271959,2.758125 -1.058333,4.262437 -2.411487,0.970803 -4.04956,3.242072 -4.209521,5.836708 -0.132435,1.141576 0.0025,2.29831 0.394229,3.37873 -1.992312,1.703916 -4.299479,5.196416 -3.254375,10.2235002 0.208584,1.1478964 0.515756,2.2756703 0.918104,3.370791 -0.669396,1.12712501 -1.711854,3.27025 -1.389062,5.498044 0.264583,1.77535 1.293812,3.175 1.979083,3.94229 -0.264583,1.53723 -0.552979,4.8974398 1.635125,7.2733998 1.804459,1.94997 4.294188,2.27806 5.955771,2.23837 0.672042,1.85208 2.44475,5.29167 6.492875,5.78115 0.532157,0.06348 1.067457,0.09705 1.603375,0.10054 4.466167,0 7.262817,-2.43417 8.352897,-4.71488 0.59429,-1.265669 0.96575,-2.62439 1.09802,-4.01637 v 0 l -0.0556,-3.23056 v 0 c -0.0265,-0.18257 -0.0397,-0.35719 -0.0714,-0.52917 -0.40217,-2.5399998 -1.02129,-3.9925598 -1.67746,-4.7889598 0.28938,-0.863464 0.51141,-1.7480557 0.6641,-2.64583 l 0.24407,-1.1265664 V 0.87230629 l -0.13298,-1.02860408 v -0.02381 c -0.25011,-1.73418841 -0.81883,-3.40715631 -1.67746,-4.93448201 0.37592,-0.7510627 0.58102,-1.5759885 0.60061,-2.415646 z M 83.809551,-18.552777 c 0.185208,-2.166938 1.526645,-3.1115 2.452687,-3.508375 1.486958,0 3.283479,4.233333 5.601229,3.508375 -1.407583,-1.182688 -2.31775,-2.203979 -3.675062,-5.6515 -0.02381,-0.0635 -0.650875,-1.661584 0.373062,-3.074459 0.896938,-1.235604 2.264834,-0.931333 2.833688,-0.735541 1.476375,0.828146 0.79375,6.209771 2.667,5.423958 1.87325,-0.785812 4.651375,-2.38125 3.926416,-4.058708 -0.817562,0.0926 -2.542645,3.209396 -3.857625,1.886479 -1.103312,-1.103313 -0.851958,-3.175 -0.529166,-4.132792 0.252346,-0.600745 0.63667,-1.136989 1.124479,-1.568979 0.166687,-0.129646 1.098021,-0.441854 2.484437,-0.206375 0.878417,0.150813 2.479146,0.629708 3.423714,2.166938 1.54516,2.521479 -0.61648,5.685895 -0.635005,5.712354 -0.354638,0.513133 -0.322134,1.200102 0.07937,1.677458 0.51481,0.673201 0.82771,1.478842 0.90222,2.323042 0.0873,1.105958 -1.042424,1.981729 -1.058299,1.981729 -0.695855,0.116417 -1.502834,-1.481667 -1.502834,-1.481667 0.108891,1.136663 0.484162,2.231657 1.095375,3.196167 0,0 0.971008,1.944687 1.555738,3.331104 0.24342,0.579438 0.0212,1.447271 -0.36777,2.2225002 -10e-4,-0.00698 -10e-4,-0.014185 0,-0.02117 -0.910155,0.989542 -2.278051,1.217084 -3.376072,0.494771 -1.098021,-0.722312 -1.008062,-1.5425212 -1.542521,-4.1592502 -0.07036,-0.344802 -0.158671,-0.685696 -0.264578,-1.021288 v 0 c 0,0 -0.738188,-2.868084 -0.359833,-4.233334 0.264583,-0.933979 0.896937,-1.785937 2.550583,-1.635125 -0.889,-1.547812 -2.767542,-1.259416 -3.659188,-0.0635 -0.79375,1.082146 -0.772583,2.701396 -0.500062,3.481917 -1.852083,-1.013354 -3.190875,0.513292 -3.190875,0.513292 0,0 1.674812,0.03704 2.677583,1.100666 0.502709,0.529167 0.79375,1.198563 1.018646,3.175 0.224896,1.9764382 1.481667,4.1036882 3.037417,4.6328542 0.907994,0.3141925 1.869629,0.4437299 2.828396,0.381 -0.110242,0.3731078 -0.271391,0.7292379 -0.478896,1.058334 -0.309617,0.4646764 -0.309617,1.0699066 0,1.534583 0.86334,1.3666109 1.43113,2.8987484 1.66691,4.49791701 0.22754,1.71979599 -0.3228,3.70416599 -0.68529,4.76249599 -2.071704,-0.34131 -4.355058,-3.15383 -4.635516,-5.12497499 -0.03789,-0.36272633 -0.13533,-0.71672357 -0.288391,-1.04775001 h 0.03704 c 1.288521,-0.134938 1.4605,-3.738563 1.4605,-3.738563 0,0 -1.733021,3.053292 -4.415896,1.886479 -1.521354,-0.685271 -1.899708,-3.302 -2.050521,-4.85775 -0.145521,-1.513416 0.923396,-3.4395832 0.981604,-3.5639372 -0.100541,0.06085 -1.756833,1.082146 -2.272771,1.9288122 -0.515937,0.846667 -1.322916,1.105959 -3.074458,0.687917 -1.751542,-0.418042 -2.807229,-3.8232292 -1.838854,-5.2043542 0.0269,-0.041 0.05163,-0.0834 0.07408,-0.127 0.02546,-0.02679 0.04932,-0.05506 0.07144,-0.08467 0.611187,-0.465667 3.20675,0.8255 4.7625,-0.706437 -3.603625,0 -5.085292,-1.150938 -5.085292,-1.150938 -0.166687,-0.296333 -0.457729,-1.042458 -0.341312,-2.407708 z M 101.3038,17.128934 c -0.82021,1.72243 -3.174999,3.56393 -7.143749,3.07975 -3.074459,-0.37836 -4.183063,-3.64596 -4.437063,-4.56142 0.589091,-0.697694 1.128406,-1.435937 1.613958,-2.20927 -1.174757,0.386624 -2.372018,0.701182 -3.585104,0.94192 -1.008062,0.082 -3.092979,0.0609 -4.378854,-1.32292 -1.177396,-1.28588 -1.177396,-3.2226298 -1.026583,-4.4105998 1.653646,0.58737 3.317875,0.48683 4.733396,-1.02394 -1.648355,0.0503 -3.608917,-0.33867 -5.15673,-1.65894 -0.396875,-0.40217 -1.291166,-1.42081 -1.4605,-2.64583 -0.148166,-1.03188 0.23548,-2.172232 0.658813,-3.04006499 0.701146,1.47637499 2.873375,2.70139499 4.593167,3.78618499 1.920875,1.21444 4.59052,1.47109 4.701645,3.10886 0.248709,3.5136598 -4.632854,4.7386798 -4.632854,4.7386798 1.709209,-0.0159 4.376209,-0.40216 5.199063,-1.34937 1.016,-0.10054 2.645833,0.381 3.915833,1.34408 1.566333,1.19063 2.402417,3.82059 2.402417,3.82059 0.428625,-1.71715 -0.759354,-3.94494 -1.516063,-5.2123 -0.756708,-1.2673498 -0.79375,-3.7438498 -0.79375,-3.7438498 0,0 -1.140354,1.61925 -0.986896,2.96333 -0.39952,-0.47889 -1.412875,-0.61912 -2.17752,-0.65881 0.261254,-0.7550907 0.368319,-1.5549317 0.314854,-2.35215 -0.04498,-0.6932 -0.891646,-1.51606 -2.010834,-2.30187 1.717146,-0.48948 2.881313,-3.280834 1.288521,-3.88143799 0,0.52916699 -0.891646,2.82310799 -4.572,1.97643799 -0.211666,-0.10583 -0.41275,-0.20108 -0.60325,-0.29369 -1.772382,-0.8559988 -3.21963,-2.2633276 -4.124854,-4.011081 -0.145521,-0.322792 -0.264583,-0.624417 -0.391583,-0.947209 -0.100542,-0.216958 -0.399521,-0.957791 -0.828146,-3.01625 -0.563563,-2.719916 0.121708,-4.6963542 0.989542,-6.0166252 -0.127,2.2277922 2.061104,4.0613552 3.558645,4.7439802 1.666875,0.754062 3.4925,-0.420688 3.603625,0.568854 0.111125,0.989541 0.529167,1.248833 0.150813,2.352146 -0.378354,1.103312 -2.645833,1.629833 -5.196417,0.30427 -0.07673,2.38125 5.614459,2.54 6.487584,1.516063 0.306916,0.989542 2.468562,0.989542 3.458104,1.78593701 0.989541,0.796396 1.288521,4.32329499 2.463271,5.27579499 1.17475,0.9525 3.645959,2.01083 4.934479,3.52954 0.037,0.0397 0.0661,0.0741 0.0952,0.11112 0.27857,0.8249603 0.47791,1.6745858 0.59531,2.5373598 0.37836,2.29129 0.127,4.36827 -0.73554,6.17273 z"
           class="cls-1"
           style="fill:#1a1a1a;stroke-width:0.264583"
           sodipodi:nodetypes="ccccccccccccccccccccccccccccccccccccccscccccscccccccccccccccscscccccccscccccccccccccsscccccsscccccccccccccccccscccccccccccccssccssccccc" />
      </g>
    </g>
  </g>
</svg>
