<?xml version="1.0" encoding="utf-8"?>
<!-- Generator: Adobe Illustrator 26.5.0, SVG Export Plug-In . SVG Version: 6.00 Build 0)  -->
<svg version="1.1" id="Layer_1" xmlns="http://www.w3.org/2000/svg" xmlns:xlink="http://www.w3.org/1999/xlink" x="0px" y="0px"
	 viewBox="0 0 960 540" style="enable-background:new 0 0 960 540;" xml:space="preserve">
<style type="text/css">
	.st0{clip-path:url(#SVGID_00000142170061376430435240000010861968315611987368_);}
	.st1{clip-path:url(#SVGID_00000101066738468527741400000000198567611413778825_);}
	.st2{fill-rule:evenodd;clip-rule:evenodd;fill:#FFFFFF;}
	.st3{fill-rule:evenodd;clip-rule:evenodd;fill-opacity:0;}
	.st4{fill-opacity:0;}
	.st5{fill-rule:evenodd;clip-rule:evenodd;fill:#B6D7A8;}
	.st6{fill:none;stroke:#38761D;stroke-linejoin:round;stroke-miterlimit:10;}
	.st7{fill-rule:evenodd;clip-rule:evenodd;fill:#EA9999;}
	.st8{fill:none;stroke:#FF0000;stroke-linejoin:round;stroke-miterlimit:10;}
	.st9{fill:#FFFFFF;}
</style>
<g>
	<defs>
		<rect id="SVGID_1_" x="18" y="76.2" width="811" height="285"/>
	</defs>
	<clipPath id="SVGID_00000048491859819859781250000007963683846061328805_">
		<use xlink:href="#SVGID_1_"  style="overflow:visible;"/>
	</clipPath>
	<g style="clip-path:url(#SVGID_00000048491859819859781250000007963683846061328805_);">
		<defs>
			<rect id="SVGID_00000134240415234258935670000014615862723880617864_" y="0" width="960" height="540"/>
		</defs>
		<clipPath id="SVGID_00000111905082707696495850000015528726756117042830_">
			<use xlink:href="#SVGID_00000134240415234258935670000014615862723880617864_"  style="overflow:visible;"/>
		</clipPath>
		<g style="clip-path:url(#SVGID_00000111905082707696495850000015528726756117042830_);">
			<path class="st2" d="M0,0h960v540H0V0z"/>
			<path class="st3" d="M23.9,11.1h799.7v60.1H23.9L23.9,11.1z"/>
			<path class="st4" d="M300.5,22H547v32.5H300.5V22z"/>
			<path d="M306.4,29.5v7.4h4.1c1.1,0,1.8-0.2,2.1-0.5c0.5-0.4,0.7-1.2,0.8-2.2h0.5v6.5h-0.5c-0.1-0.9-0.2-1.5-0.4-1.8
				c-0.2-0.3-0.4-0.6-0.8-0.8c-0.4-0.2-1-0.3-1.7-0.3h-4.1v6.2c0,0.8,0,1.3,0.1,1.5c0.1,0.2,0.2,0.3,0.4,0.4c0.2,0.1,0.5,0.2,1,0.2
				h3.2c1.1,0,1.8-0.1,2.3-0.2c0.5-0.2,0.9-0.4,1.4-0.9c0.6-0.6,1.2-1.4,1.8-2.6h0.5l-1.6,4.7h-14.4v-0.5h0.7c0.4,0,0.9-0.1,1.3-0.3
				c0.3-0.1,0.5-0.4,0.6-0.7c0.1-0.3,0.2-0.9,0.2-1.8V31.8c0-1.2-0.1-1.9-0.4-2.2c-0.3-0.4-0.9-0.5-1.7-0.5h-0.7v-0.5h14.4l0.2,4.1
				h-0.5c-0.2-1-0.4-1.7-0.7-2c-0.2-0.4-0.6-0.7-1-0.8c-0.4-0.1-1-0.2-1.9-0.2H306.4z M322.4,34.2V37c1.1-1.9,2.2-2.8,3.3-2.8
				c0.5,0,0.9,0.2,1.2,0.5c0.3,0.3,0.5,0.7,0.5,1.1c0,0.4-0.1,0.7-0.4,0.9c-0.2,0.2-0.5,0.4-0.9,0.4c-0.3,0-0.7-0.2-1.1-0.5
				c-0.4-0.3-0.7-0.5-0.9-0.5c-0.2,0-0.3,0.1-0.5,0.3c-0.4,0.4-0.8,1-1.3,1.9v6.1c0,0.7,0.1,1.2,0.3,1.6c0.1,0.2,0.3,0.4,0.6,0.6
				c0.3,0.2,0.7,0.2,1.3,0.2v0.5h-6.5v-0.5c0.6,0,1.1-0.1,1.4-0.3c0.2-0.1,0.4-0.4,0.5-0.7c0.1-0.2,0.1-0.6,0.1-1.3v-4.9
				c0-1.5,0-2.3-0.1-2.6s-0.2-0.5-0.3-0.6c-0.2-0.1-0.4-0.2-0.6-0.2c-0.3,0-0.6,0.1-1,0.2l-0.1-0.5l3.8-1.5H322.4z M331.8,34.2V37
				c1.1-1.9,2.2-2.8,3.3-2.8c0.5,0,0.9,0.2,1.2,0.5c0.3,0.3,0.5,0.7,0.5,1.1c0,0.4-0.1,0.7-0.4,0.9c-0.2,0.2-0.5,0.4-0.9,0.4
				c-0.3,0-0.7-0.2-1.1-0.5c-0.4-0.3-0.7-0.5-0.9-0.5c-0.2,0-0.3,0.1-0.5,0.3c-0.4,0.4-0.8,1-1.3,1.9v6.1c0,0.7,0.1,1.2,0.3,1.6
				c0.1,0.2,0.3,0.4,0.6,0.6c0.3,0.2,0.7,0.2,1.3,0.2v0.5h-6.5v-0.5c0.6,0,1.1-0.1,1.4-0.3c0.2-0.1,0.4-0.4,0.5-0.7
				c0.1-0.2,0.1-0.6,0.1-1.3v-4.9c0-1.5,0-2.3-0.1-2.6s-0.2-0.5-0.3-0.6c-0.2-0.1-0.4-0.2-0.6-0.2c-0.3,0-0.6,0.1-1,0.2l-0.1-0.5
				l3.8-1.5H331.8z M343.7,34.2c1.9,0,3.5,0.7,4.6,2.2c1,1.2,1.5,2.7,1.5,4.3c0,1.1-0.3,2.3-0.8,3.5c-0.5,1.2-1.3,2-2.2,2.6
				c-0.9,0.6-2,0.9-3.2,0.9c-1.9,0-3.4-0.8-4.5-2.3c-0.9-1.3-1.4-2.7-1.4-4.3c0-1.2,0.3-2.3,0.9-3.5c0.6-1.1,1.3-2,2.3-2.5
				C341.6,34.5,342.6,34.2,343.7,34.2z M343.2,35.1c-0.5,0-1,0.1-1.5,0.4c-0.5,0.3-0.9,0.8-1.2,1.5c-0.3,0.7-0.5,1.7-0.5,2.8
				c0,1.8,0.4,3.4,1.1,4.8c0.7,1.3,1.7,2,2.9,2c0.9,0,1.6-0.4,2.2-1.1c0.6-0.7,0.9-2,0.9-3.8c0-2.2-0.5-4-1.4-5.3
				C345.1,35.5,344.3,35.1,343.2,35.1z M355.3,34.2V37c1.1-1.9,2.2-2.8,3.3-2.8c0.5,0,0.9,0.2,1.2,0.5c0.3,0.3,0.5,0.7,0.5,1.1
				c0,0.4-0.1,0.7-0.4,0.9c-0.2,0.2-0.5,0.4-0.9,0.4c-0.3,0-0.7-0.2-1.1-0.5c-0.4-0.3-0.7-0.5-0.9-0.5c-0.2,0-0.3,0.1-0.5,0.3
				c-0.4,0.4-0.8,1-1.3,1.9v6.1c0,0.7,0.1,1.2,0.3,1.6c0.1,0.2,0.3,0.4,0.6,0.6c0.3,0.2,0.7,0.2,1.3,0.2v0.5H351v-0.5
				c0.6,0,1.1-0.1,1.4-0.3c0.2-0.1,0.4-0.4,0.5-0.7c0.1-0.2,0.1-0.6,0.1-1.3v-4.9c0-1.5,0-2.3-0.1-2.6s-0.2-0.5-0.3-0.6
				c-0.2-0.1-0.4-0.2-0.6-0.2c-0.3,0-0.6,0.1-1,0.2l-0.1-0.5l3.8-1.5H355.3z M371.3,27.6c0.4,0,0.7,0.1,1,0.4c0.3,0.3,0.4,0.6,0.4,1
				c0,0.4-0.1,0.7-0.4,1c-0.3,0.3-0.6,0.4-1,0.4c-0.4,0-0.7-0.1-1-0.4c-0.3-0.3-0.4-0.6-0.4-1c0-0.4,0.1-0.7,0.4-1
				C370.6,27.7,370.9,27.6,371.3,27.6z M372.5,34.2v10.2c0,0.8,0.1,1.3,0.2,1.6c0.1,0.3,0.3,0.5,0.5,0.6c0.2,0.1,0.6,0.2,1.2,0.2
				v0.5h-6.1v-0.5c0.6,0,1-0.1,1.2-0.2c0.2-0.1,0.4-0.3,0.5-0.6c0.1-0.3,0.2-0.8,0.2-1.6v-4.9c0-1.4,0-2.2-0.1-2.7
				c-0.1-0.3-0.2-0.5-0.3-0.6c-0.1-0.1-0.3-0.2-0.6-0.2c-0.2,0-0.6,0.1-0.9,0.2l-0.2-0.5l3.8-1.5H372.5z M379.6,36.9
				c1.5-1.8,2.9-2.7,4.2-2.7c0.7,0,1.3,0.2,1.8,0.5c0.5,0.3,0.9,0.9,1.2,1.7c0.2,0.6,0.3,1.4,0.3,2.5v5.4c0,0.8,0.1,1.3,0.2,1.6
				c0.1,0.2,0.3,0.4,0.5,0.5c0.2,0.1,0.7,0.2,1.3,0.2v0.5h-6.3v-0.5h0.3c0.6,0,1-0.1,1.2-0.3c0.2-0.2,0.4-0.4,0.5-0.8
				c0-0.1,0-0.6,0-1.3v-5.2c0-1.1-0.2-2-0.5-2.5c-0.3-0.5-0.8-0.8-1.5-0.8c-1.1,0-2.2,0.6-3.3,1.8v6.7c0,0.9,0.1,1.4,0.2,1.6
				c0.1,0.3,0.3,0.5,0.5,0.6c0.2,0.1,0.7,0.2,1.4,0.2v0.5h-6.2v-0.5h0.3c0.6,0,1.1-0.2,1.3-0.5c0.2-0.3,0.3-1,0.3-1.9v-4.7
				c0-1.5,0-2.4-0.1-2.8c-0.1-0.3-0.2-0.6-0.3-0.7c-0.1-0.1-0.3-0.2-0.6-0.2c-0.3,0-0.6,0.1-0.9,0.2l-0.2-0.5l3.8-1.5h0.6V36.9z
				 M405.3,34.2v4.3h-0.5c-0.3-1.4-0.8-2.3-1.3-2.8c-0.5-0.5-1.2-0.7-2.1-0.7c-0.6,0-1.2,0.2-1.5,0.5c-0.4,0.3-0.6,0.7-0.6,1.1
				c0,0.5,0.1,1,0.4,1.3c0.3,0.4,0.9,0.8,1.7,1.2l2,1c1.9,0.9,2.8,2.1,2.8,3.6c0,1.2-0.4,2.1-1.3,2.8c-0.9,0.7-1.8,1-2.9,1
				c-0.8,0-1.7-0.1-2.6-0.4c-0.3-0.1-0.6-0.1-0.8-0.1c-0.2,0-0.4,0.1-0.5,0.4h-0.5v-4.5h0.5c0.3,1.3,0.8,2.2,1.5,2.9
				c0.7,0.7,1.5,1,2.5,1c0.6,0,1.2-0.2,1.5-0.6c0.4-0.4,0.6-0.8,0.6-1.3c0-0.6-0.2-1.2-0.7-1.6c-0.4-0.4-1.3-1-2.7-1.6
				c-1.3-0.7-2.2-1.3-2.6-1.8c-0.4-0.5-0.6-1.2-0.6-2c0-1,0.4-1.9,1.1-2.6c0.7-0.7,1.6-1,2.8-1c0.5,0,1.1,0.1,1.8,0.3
				c0.5,0.1,0.8,0.2,0.9,0.2c0.1,0,0.3,0,0.3-0.1c0.1-0.1,0.2-0.2,0.3-0.4H405.3z M410.3,39.3c0,1.9,0.4,3.3,1.4,4.4
				c0.9,1.1,2,1.6,3.2,1.6c0.8,0,1.5-0.2,2.2-0.7c0.6-0.5,1.1-1.2,1.5-2.3l0.4,0.3c-0.2,1.3-0.8,2.4-1.7,3.5c-0.9,1-2.1,1.5-3.5,1.5
				c-1.5,0-2.8-0.6-3.9-1.8c-1.1-1.2-1.6-2.8-1.6-4.8c0-2.2,0.6-3.9,1.7-5.1c1.1-1.2,2.5-1.8,4.2-1.8c1.4,0,2.6,0.5,3.5,1.4
				c0.9,0.9,1.4,2.2,1.4,3.8H410.3z M410.3,38.5h5.8c0-0.8-0.1-1.4-0.3-1.7c-0.2-0.5-0.6-0.9-1-1.2c-0.4-0.3-0.9-0.4-1.4-0.4
				c-0.8,0-1.4,0.3-2,0.9S410.4,37.5,410.3,38.5z M424.1,42.6c-0.8-0.4-1.4-0.9-1.8-1.6c-0.4-0.7-0.6-1.4-0.6-2.2
				c0-1.2,0.5-2.3,1.4-3.2c0.9-0.9,2.2-1.4,3.6-1.4c1.2,0,2.2,0.3,3.1,0.9h2.7c0.4,0,0.6,0,0.7,0c0.1,0,0.1,0.1,0.1,0.1
				c0.1,0.1,0.1,0.2,0.1,0.5c0,0.2,0,0.4-0.1,0.5c0,0.1-0.1,0.1-0.1,0.1c-0.1,0-0.3,0-0.7,0h-1.7c0.5,0.7,0.8,1.5,0.8,2.5
				c0,1.2-0.5,2.2-1.4,3c-0.9,0.8-2.1,1.2-3.6,1.2c-0.6,0-1.3-0.1-1.9-0.3c-0.4,0.3-0.7,0.7-0.8,0.9c-0.1,0.3-0.2,0.5-0.2,0.7
				c0,0.2,0.1,0.3,0.2,0.5c0.2,0.1,0.5,0.2,0.9,0.3c0.2,0,0.9,0.1,1.9,0.1c1.9,0,3.1,0.1,3.7,0.2c0.9,0.1,1.5,0.4,2,1
				c0.5,0.5,0.8,1.1,0.8,1.9c0,1-0.5,2-1.5,2.9c-1.4,1.3-3.3,2-5.6,2c-1.8,0-3.3-0.4-4.5-1.2c-0.7-0.5-1-0.9-1-1.4
				c0-0.2,0.1-0.4,0.2-0.7c0.2-0.3,0.5-0.8,1-1.4c0.1-0.1,0.5-0.6,1.4-1.5c-0.5-0.3-0.8-0.5-1-0.8c-0.2-0.2-0.3-0.5-0.3-0.8
				c0-0.3,0.1-0.7,0.4-1.1C422.5,44,423.1,43.4,424.1,42.6z M426.5,34.9c-0.7,0-1.3,0.3-1.7,0.8c-0.5,0.5-0.7,1.4-0.7,2.5
				c0,1.5,0.3,2.6,0.9,3.4c0.5,0.6,1.1,0.9,1.8,0.9c0.7,0,1.3-0.3,1.7-0.8c0.4-0.5,0.7-1.4,0.7-2.5c0-1.5-0.3-2.6-1-3.4
				C427.8,35.2,427.2,34.9,426.5,34.9z M423.9,47.2c-0.4,0.5-0.8,0.9-1,1.3c-0.2,0.4-0.3,0.8-0.3,1.1c0,0.4,0.3,0.8,0.8,1.2
				c0.9,0.6,2.3,0.8,4,0.8c1.7,0,2.9-0.3,3.7-0.9c0.8-0.6,1.2-1.2,1.2-1.9c0-0.5-0.2-0.8-0.7-1c-0.5-0.2-1.4-0.3-2.8-0.4
				C426.6,47.5,425,47.4,423.9,47.2z M438.6,36.9c0.9-0.9,1.5-1.4,1.6-1.6c0.4-0.4,0.9-0.6,1.3-0.8c0.5-0.2,1-0.3,1.4-0.3
				c0.8,0,1.5,0.2,2,0.7c0.6,0.5,1,1.1,1.2,2c0.9-1.1,1.7-1.8,2.4-2.2c0.7-0.3,1.3-0.5,2-0.5c0.7,0,1.3,0.2,1.8,0.5s0.9,0.9,1.2,1.7
				c0.2,0.5,0.3,1.4,0.3,2.5v5.4c0,0.8,0.1,1.3,0.2,1.6c0.1,0.2,0.3,0.4,0.5,0.5c0.2,0.1,0.7,0.2,1.2,0.2v0.5h-6.2v-0.5h0.3
				c0.5,0,1-0.1,1.3-0.3c0.2-0.1,0.4-0.4,0.5-0.7c0-0.2,0.1-0.6,0.1-1.3v-5.4c0-1-0.1-1.8-0.4-2.2c-0.4-0.6-0.9-0.9-1.7-0.9
				c-0.5,0-1,0.1-1.5,0.4c-0.5,0.2-1.1,0.7-1.8,1.3l0,0.2l0,0.6v6c0,0.9,0,1.4,0.1,1.6c0.1,0.2,0.3,0.4,0.5,0.5
				c0.3,0.1,0.7,0.2,1.4,0.2v0.5h-6.4v-0.5c0.7,0,1.2-0.1,1.4-0.2c0.3-0.2,0.4-0.4,0.5-0.7c0-0.2,0.1-0.6,0.1-1.4v-5.4
				c0-1-0.2-1.8-0.5-2.2c-0.4-0.6-1-0.9-1.7-0.9c-0.5,0-1,0.1-1.5,0.4c-0.8,0.4-1.3,0.9-1.8,1.4v6.8c0,0.8,0.1,1.4,0.2,1.6
				c0.1,0.2,0.3,0.4,0.5,0.5c0.2,0.1,0.7,0.2,1.4,0.2v0.5h-6.2v-0.5c0.6,0,1-0.1,1.2-0.2s0.4-0.3,0.5-0.6c0.1-0.3,0.2-0.8,0.2-1.6
				v-4.8c0-1.4,0-2.3-0.1-2.7c-0.1-0.3-0.2-0.5-0.3-0.6c-0.1-0.1-0.3-0.2-0.6-0.2c-0.2,0-0.6,0.1-0.9,0.2l-0.2-0.5l3.8-1.5h0.6V36.9
				z M458.9,39.3c0,1.9,0.4,3.3,1.4,4.4c0.9,1.1,2,1.6,3.2,1.6c0.8,0,1.5-0.2,2.2-0.7c0.6-0.5,1.1-1.2,1.5-2.3l0.4,0.3
				c-0.2,1.3-0.8,2.4-1.7,3.5c-0.9,1-2.1,1.5-3.5,1.5c-1.5,0-2.8-0.6-3.9-1.8c-1.1-1.2-1.6-2.8-1.6-4.8c0-2.2,0.6-3.9,1.7-5.1
				c1.1-1.2,2.5-1.8,4.2-1.8c1.4,0,2.6,0.5,3.5,1.4c0.9,0.9,1.4,2.2,1.4,3.8H458.9z M458.9,38.5h5.8c0-0.8-0.1-1.4-0.3-1.7
				c-0.2-0.5-0.6-0.9-1-1.2c-0.4-0.3-0.9-0.4-1.4-0.4c-0.8,0-1.4,0.3-2,0.9C459.4,36.6,459,37.5,458.9,38.5z M473,36.9
				c1.5-1.8,2.9-2.7,4.2-2.7c0.7,0,1.3,0.2,1.8,0.5c0.5,0.3,0.9,0.9,1.2,1.7c0.2,0.6,0.3,1.4,0.3,2.5v5.4c0,0.8,0.1,1.3,0.2,1.6
				c0.1,0.2,0.3,0.4,0.5,0.5c0.2,0.1,0.7,0.2,1.3,0.2v0.5h-6.3v-0.5h0.3c0.6,0,1-0.1,1.2-0.3c0.2-0.2,0.4-0.4,0.5-0.8
				c0-0.1,0-0.6,0-1.3v-5.2c0-1.1-0.2-2-0.5-2.5c-0.3-0.5-0.8-0.8-1.5-0.8c-1.1,0-2.2,0.6-3.3,1.8v6.7c0,0.9,0.1,1.4,0.2,1.6
				c0.1,0.3,0.3,0.5,0.5,0.6c0.2,0.1,0.7,0.2,1.4,0.2v0.5h-6.2v-0.5h0.3c0.6,0,1.1-0.2,1.3-0.5c0.2-0.3,0.3-1,0.3-1.9v-4.7
				c0-1.5,0-2.4-0.1-2.8c-0.1-0.3-0.2-0.6-0.3-0.7c-0.1-0.1-0.3-0.2-0.6-0.2c-0.3,0-0.6,0.1-0.9,0.2l-0.2-0.5l3.8-1.5h0.6V36.9z
				 M487.2,30.4v4.2h3v1h-3v8.2c0,0.8,0.1,1.4,0.4,1.7c0.2,0.3,0.5,0.4,0.9,0.4c0.3,0,0.6-0.1,0.9-0.3c0.3-0.2,0.5-0.5,0.7-0.8h0.5
				c-0.3,0.9-0.8,1.6-1.4,2c-0.6,0.4-1.2,0.7-1.8,0.7c-0.4,0-0.8-0.1-1.2-0.3c-0.4-0.2-0.7-0.6-0.9-1c-0.2-0.4-0.3-1.1-0.3-2v-8.5
				h-2v-0.5c0.5-0.2,1-0.6,1.5-1c0.5-0.5,1-1.1,1.4-1.7c0.2-0.4,0.5-1,0.9-1.9H487.2z M498.5,45.4c-1.3,1-2.1,1.6-2.4,1.8
				c-0.5,0.2-1,0.3-1.6,0.3c-0.9,0-1.6-0.3-2.2-0.9c-0.6-0.6-0.8-1.4-0.8-2.4c0-0.6,0.1-1.1,0.4-1.6c0.4-0.6,1-1.2,2-1.8
				c0.9-0.6,2.5-1.2,4.7-2v-0.5c0-1.3-0.2-2.1-0.6-2.6c-0.4-0.5-1-0.7-1.7-0.7c-0.6,0-1,0.2-1.4,0.5s-0.5,0.7-0.5,1.1l0,0.8
				c0,0.4-0.1,0.8-0.3,1c-0.2,0.2-0.5,0.3-0.8,0.3s-0.6-0.1-0.8-0.4c-0.2-0.2-0.3-0.6-0.3-1c0-0.8,0.4-1.5,1.2-2.2
				c0.8-0.7,1.9-1,3.4-1c1.1,0,2,0.2,2.8,0.6c0.5,0.3,0.9,0.7,1.2,1.3c0.2,0.4,0.2,1.2,0.2,2.4v4.3c0,1.2,0,1.9,0.1,2.2
				c0.1,0.3,0.1,0.5,0.2,0.5s0.2,0.1,0.4,0.1c0.1,0,0.3,0,0.4-0.1c0.2-0.1,0.6-0.4,1.1-1v0.8c-1,1.4-2,2.1-3,2.1
				c-0.4,0-0.8-0.2-1.1-0.5C498.7,46.7,498.5,46.1,498.5,45.4z M498.5,44.5v-4.8c-1.4,0.6-2.3,0.9-2.7,1.2c-0.7,0.4-1.2,0.8-1.6,1.3
				s-0.5,0.9-0.5,1.5c0,0.7,0.2,1.2,0.6,1.6s0.8,0.7,1.4,0.7C496.4,45.9,497.4,45.4,498.5,44.5z M507.6,30.4v4.2h3v1h-3v8.2
				c0,0.8,0.1,1.4,0.4,1.7c0.2,0.3,0.5,0.4,0.9,0.4c0.3,0,0.6-0.1,0.9-0.3c0.3-0.2,0.5-0.5,0.7-0.8h0.5c-0.3,0.9-0.8,1.6-1.4,2
				c-0.6,0.4-1.2,0.7-1.8,0.7c-0.4,0-0.8-0.1-1.2-0.3c-0.4-0.2-0.7-0.6-0.9-1c-0.2-0.4-0.3-1.1-0.3-2v-8.5h-2v-0.5
				c0.5-0.2,1-0.6,1.5-1c0.5-0.5,1-1.1,1.4-1.7c0.2-0.4,0.5-1,0.9-1.9H507.6z M515,27.6c0.4,0,0.7,0.1,1,0.4c0.3,0.3,0.4,0.6,0.4,1
				c0,0.4-0.1,0.7-0.4,1c-0.3,0.3-0.6,0.4-1,0.4c-0.4,0-0.7-0.1-1-0.4c-0.3-0.3-0.4-0.6-0.4-1c0-0.4,0.1-0.7,0.4-1
				C514.2,27.7,514.6,27.6,515,27.6z M516.1,34.2v10.2c0,0.8,0.1,1.3,0.2,1.6c0.1,0.3,0.3,0.5,0.5,0.6c0.2,0.1,0.6,0.2,1.2,0.2v0.5
				h-6.1v-0.5c0.6,0,1-0.1,1.2-0.2c0.2-0.1,0.4-0.3,0.5-0.6c0.1-0.3,0.2-0.8,0.2-1.6v-4.9c0-1.4,0-2.2-0.1-2.7
				c-0.1-0.3-0.2-0.5-0.3-0.6c-0.1-0.1-0.3-0.2-0.6-0.2c-0.2,0-0.6,0.1-0.9,0.2l-0.2-0.5l3.8-1.5H516.1z M525.8,34.2
				c1.9,0,3.5,0.7,4.6,2.2c1,1.2,1.5,2.7,1.5,4.3c0,1.1-0.3,2.3-0.8,3.5c-0.5,1.2-1.3,2-2.2,2.6c-0.9,0.6-2,0.9-3.2,0.9
				c-1.9,0-3.4-0.8-4.5-2.3c-0.9-1.3-1.4-2.7-1.4-4.3c0-1.2,0.3-2.3,0.9-3.5c0.6-1.1,1.3-2,2.3-2.5
				C523.7,34.5,524.7,34.2,525.8,34.2z M525.4,35.1c-0.5,0-1,0.1-1.5,0.4c-0.5,0.3-0.9,0.8-1.2,1.5c-0.3,0.7-0.5,1.7-0.5,2.8
				c0,1.8,0.4,3.4,1.1,4.8c0.7,1.3,1.7,2,2.9,2c0.9,0,1.6-0.4,2.2-1.1c0.6-0.7,0.9-2,0.9-3.8c0-2.2-0.5-4-1.4-5.3
				C527.2,35.5,526.4,35.1,525.4,35.1z M537.4,36.9c1.5-1.8,2.9-2.7,4.2-2.7c0.7,0,1.3,0.2,1.8,0.5c0.5,0.3,0.9,0.9,1.2,1.7
				c0.2,0.6,0.3,1.4,0.3,2.5v5.4c0,0.8,0.1,1.3,0.2,1.6c0.1,0.2,0.3,0.4,0.5,0.5c0.2,0.1,0.7,0.2,1.3,0.2v0.5h-6.3v-0.5h0.3
				c0.6,0,1-0.1,1.2-0.3c0.2-0.2,0.4-0.4,0.5-0.8c0-0.1,0-0.6,0-1.3v-5.2c0-1.1-0.2-2-0.5-2.5c-0.3-0.5-0.8-0.8-1.5-0.8
				c-1.1,0-2.2,0.6-3.3,1.8v6.7c0,0.9,0.1,1.4,0.2,1.6c0.1,0.3,0.3,0.5,0.5,0.6s0.7,0.2,1.4,0.2v0.5h-6.2v-0.5h0.3
				c0.6,0,1.1-0.2,1.3-0.5c0.2-0.3,0.3-1,0.3-1.9v-4.7c0-1.5,0-2.4-0.1-2.8c-0.1-0.3-0.2-0.6-0.3-0.7c-0.1-0.1-0.3-0.2-0.6-0.2
				c-0.3,0-0.6,0.1-0.9,0.2l-0.2-0.5l3.8-1.5h0.6V36.9z"/>
			<path class="st4" d="M547,22L547,22v32.5l0,0V22z"/>
			<path d="M300.5,49H547v2.5H300.5V49z"/>
			<path class="st3" d="M309.1,65.9H438v42H309.1V65.9z"/>
			<path d="M323.9,96.5v0.3c-0.9-0.5-1.7-1-2.3-1.6c-0.9-0.9-1.6-1.9-2-3.1c-0.5-1.2-0.7-2.4-0.7-3.7c0-1.9,0.5-3.6,1.4-5.2
				c0.9-1.6,2.1-2.7,3.6-3.3v0.4c-0.8,0.4-1.4,1-1.8,1.7c-0.5,0.7-0.8,1.6-1.1,2.7c-0.2,1.1-0.4,2.2-0.4,3.4c0,1.3,0.1,2.5,0.3,3.5
				c0.2,0.8,0.3,1.5,0.6,2c0.2,0.5,0.5,1,0.9,1.5C322.8,95.6,323.3,96,323.9,96.5z M332.9,86.5c0.9,0.2,1.5,0.5,1.9,0.9
				c0.6,0.6,0.9,1.2,0.9,2c0,0.6-0.2,1.2-0.6,1.8c-0.4,0.6-0.9,1-1.6,1.2c-0.7,0.3-1.7,0.4-3.1,0.4h-5.8v-0.3h0.5
				c0.5,0,0.9-0.2,1.1-0.5c0.1-0.2,0.2-0.7,0.2-1.4v-8c0-0.8-0.1-1.2-0.3-1.4c-0.2-0.3-0.6-0.4-1-0.4h-0.5v-0.3h5.3
				c1,0,1.8,0.1,2.4,0.2c0.9,0.2,1.6,0.6,2.1,1.2c0.5,0.6,0.7,1.2,0.7,1.9c0,0.6-0.2,1.2-0.6,1.7C334.2,85.9,333.7,86.3,332.9,86.5z
				 M328.2,86c0.2,0,0.5,0.1,0.8,0.1c0.3,0,0.6,0,1,0c0.9,0,1.6-0.1,2-0.3s0.8-0.5,1-0.9c0.2-0.4,0.4-0.8,0.4-1.3
				c0-0.7-0.3-1.3-0.9-1.8c-0.6-0.5-1.5-0.8-2.6-0.8c-0.6,0-1.2,0.1-1.6,0.2V86z M328.2,91.9c0.7,0.2,1.4,0.2,2.1,0.2
				c1.1,0,1.9-0.2,2.5-0.7c0.6-0.5,0.9-1.1,0.9-1.8c0-0.5-0.1-0.9-0.4-1.4c-0.3-0.4-0.7-0.8-1.3-1c-0.6-0.3-1.3-0.4-2.2-0.4
				c-0.4,0-0.7,0-1,0c-0.3,0-0.5,0-0.6,0.1V91.9z M337.2,80.2v-0.4c0.9,0.5,1.7,1,2.3,1.6c0.9,0.9,1.5,1.9,2,3.1
				c0.5,1.2,0.7,2.4,0.7,3.7c0,1.9-0.5,3.6-1.4,5.1c-0.9,1.6-2.1,2.7-3.6,3.3v-0.3c0.8-0.4,1.4-1,1.8-1.7c0.5-0.7,0.8-1.6,1.1-2.7
				c0.2-1.1,0.4-2.3,0.4-3.5c0-1.3-0.1-2.5-0.3-3.5c-0.2-0.8-0.3-1.5-0.6-2c-0.2-0.5-0.5-1-0.9-1.5
				C338.3,81.1,337.8,80.6,337.2,80.2z M358.3,84.2V87H358c-0.2-0.9-0.5-1.5-0.9-1.8c-0.4-0.3-0.8-0.5-1.4-0.5c-0.4,0-0.8,0.1-1,0.3
				c-0.3,0.2-0.4,0.5-0.4,0.7c0,0.3,0.1,0.6,0.3,0.9c0.2,0.2,0.6,0.5,1.1,0.8l1.3,0.6c1.2,0.6,1.9,1.4,1.9,2.4
				c0,0.8-0.3,1.4-0.9,1.8c-0.6,0.5-1.2,0.7-1.9,0.7c-0.5,0-1.1-0.1-1.8-0.3c-0.2-0.1-0.4-0.1-0.5-0.1c-0.1,0-0.3,0.1-0.3,0.2h-0.3
				v-3h0.3c0.2,0.8,0.5,1.5,1,1.9c0.5,0.4,1,0.6,1.6,0.6c0.4,0,0.8-0.1,1-0.4c0.3-0.2,0.4-0.6,0.4-0.9c0-0.4-0.1-0.8-0.4-1
				c-0.3-0.3-0.9-0.7-1.8-1.1c-0.9-0.4-1.4-0.8-1.7-1.2c-0.3-0.4-0.4-0.8-0.4-1.3c0-0.7,0.2-1.3,0.7-1.7c0.5-0.5,1.1-0.7,1.8-0.7
				c0.3,0,0.7,0.1,1.2,0.2c0.3,0.1,0.5,0.1,0.6,0.1c0.1,0,0.2,0,0.2-0.1c0.1,0,0.1-0.1,0.2-0.3H358.3z M367.5,84.5v5.1
				c0,1,0,1.5,0.1,1.8c0.1,0.2,0.1,0.4,0.2,0.5c0.1,0.1,0.2,0.1,0.4,0.1c0.2,0,0.4-0.1,0.6-0.2l0.1,0.3l-2.5,1H366v-1.8
				c-0.7,0.8-1.3,1.3-1.6,1.5c-0.4,0.2-0.8,0.3-1.2,0.3c-0.5,0-0.9-0.1-1.2-0.4c-0.3-0.3-0.6-0.6-0.7-1c-0.1-0.4-0.2-1-0.2-1.8v-3.7
				c0-0.4,0-0.7-0.1-0.8c-0.1-0.2-0.2-0.3-0.4-0.4c-0.2-0.1-0.5-0.1-0.9-0.1v-0.3h2.9V90c0,0.8,0.1,1.3,0.4,1.5
				c0.3,0.2,0.6,0.4,1,0.4c0.3,0,0.6-0.1,0.9-0.2c0.3-0.2,0.7-0.5,1.2-0.9V86c0-0.5-0.1-0.8-0.3-1c-0.2-0.2-0.5-0.3-1.1-0.3v-0.3
				H367.5z M371.8,85.9c0.8-1.1,1.7-1.7,2.6-1.7c0.9,0,1.6,0.4,2.2,1.1c0.6,0.7,1,1.7,1,3c0,1.5-0.5,2.7-1.5,3.6
				c-0.8,0.8-1.8,1.2-2.8,1.2c-0.5,0-1-0.1-1.5-0.2c-0.5-0.2-1-0.4-1.5-0.8v-8.7c0-0.9,0-1.5-0.1-1.8c0-0.2-0.1-0.4-0.2-0.4
				c-0.1-0.1-0.2-0.1-0.4-0.1c-0.2,0-0.4,0.1-0.6,0.2l-0.1-0.3l2.5-1h0.4V85.9z M371.8,86.5v5c0.3,0.3,0.6,0.5,1,0.7
				c0.3,0.2,0.7,0.2,1,0.2c0.6,0,1.1-0.3,1.5-0.9c0.5-0.6,0.7-1.5,0.7-2.7c0-1.1-0.2-1.9-0.7-2.5c-0.5-0.6-1-0.9-1.6-0.9
				c-0.3,0-0.6,0.1-1,0.2C372.4,85.9,372.1,86.1,371.8,86.5z M379,87.9h4.7v1.4H379V87.9z M386.6,81.7l3-1.5h0.3v10.4
				c0,0.7,0,1.1,0.1,1.3c0.1,0.2,0.2,0.3,0.4,0.4c0.2,0.1,0.6,0.1,1.1,0.1v0.3h-4.6v-0.3c0.6,0,1-0.1,1.1-0.1
				c0.2-0.1,0.3-0.2,0.4-0.4c0.1-0.1,0.1-0.6,0.1-1.3V84c0-0.9,0-1.5-0.1-1.7c-0.1-0.2-0.1-0.3-0.2-0.4c-0.1-0.1-0.2-0.1-0.4-0.1
				c-0.2,0-0.5,0.1-0.9,0.3L386.6,81.7z M394.4,86.7c0-1.4,0.2-2.6,0.6-3.6c0.4-1,1-1.8,1.7-2.3c0.6-0.4,1.1-0.6,1.7-0.6
				c0.9,0,1.8,0.5,2.5,1.5c0.9,1.2,1.4,2.8,1.4,4.9c0,1.4-0.2,2.7-0.6,3.7c-0.4,1-0.9,1.7-1.6,2.2c-0.6,0.4-1.2,0.7-1.8,0.7
				c-1.2,0-2.2-0.7-2.9-2.1C394.8,89.8,394.4,88.3,394.4,86.7z M396.2,86.9c0,1.7,0.2,3.1,0.6,4.2c0.3,0.9,0.9,1.4,1.5,1.4
				c0.3,0,0.7-0.1,1-0.4c0.4-0.3,0.6-0.8,0.8-1.5c0.3-1,0.4-2.5,0.4-4.4c0-1.4-0.1-2.6-0.4-3.5c-0.2-0.7-0.5-1.2-0.8-1.5
				c-0.2-0.2-0.6-0.3-0.9-0.3c-0.4,0-0.8,0.2-1.1,0.5c-0.4,0.5-0.7,1.3-0.9,2.4C396.3,84.8,396.2,85.9,396.2,86.9z M404,82.8
				c0.3-0.8,0.8-1.5,1.3-1.9c0.5-0.5,1.2-0.7,2-0.7c1,0,1.7,0.3,2.3,1c0.4,0.5,0.6,1,0.6,1.5c0,0.9-0.6,1.8-1.7,2.8
				c0.8,0.3,1.3,0.7,1.7,1.3c0.4,0.6,0.6,1.2,0.6,1.9c0,1.1-0.3,2-1,2.8c-0.9,1-2.2,1.5-3.9,1.5c-0.8,0-1.4-0.1-1.7-0.3
				c-0.3-0.2-0.5-0.4-0.5-0.7c0-0.2,0.1-0.3,0.2-0.5c0.1-0.1,0.3-0.2,0.5-0.2c0.2,0,0.3,0,0.5,0.1c0.1,0,0.3,0.1,0.7,0.3
				s0.6,0.3,0.8,0.3c0.2,0.1,0.5,0.1,0.7,0.1c0.6,0,1.2-0.2,1.6-0.7c0.5-0.5,0.7-1,0.7-1.7c0-0.5-0.1-0.9-0.3-1.4
				c-0.2-0.3-0.3-0.6-0.5-0.8c-0.3-0.2-0.6-0.5-1.1-0.7c-0.5-0.2-0.9-0.3-1.4-0.3h-0.3v-0.3c0.5-0.1,1-0.2,1.4-0.5
				c0.5-0.3,0.8-0.6,1.1-1c0.2-0.4,0.3-0.9,0.3-1.3c0-0.6-0.2-1.1-0.6-1.5c-0.4-0.4-0.9-0.6-1.5-0.6c-0.9,0-1.7,0.5-2.4,1.5
				L404,82.8z"/>
			<path class="st3" d="M309.1,107.8h514.5v248.3H309.1V107.8z"/>
			<g transform="matrix(0.9582582797290772 0.0 0.0 0.958240754278939 49.55371640852483 -286.3780017607281)">
				<g>
					<defs>
						<rect id="SVGID_00000027592029759376932410000003458428315224972183_" x="282.1" y="416.8" width="514.5" height="248.3"/>
					</defs>
					<clipPath id="SVGID_00000178163647370129727940000017250776255170048426_">
						<use xlink:href="#SVGID_00000027592029759376932410000003458428315224972183_"  style="overflow:visible;"/>
					</clipPath>
					<g style="clip-path:url(#SVGID_00000178163647370129727940000017250776255170048426_);enable-background:new    ;">
						
							<image style="overflow:visible;" width="1920" height="1080" xlink:href="55BCE65.png"  transform="matrix(1 0 0 1 0 1.533545e-05)">
						</image>
					</g>
				</g>
			</g>
			<path class="st5" d="M744.4,264.3l-4-9.1l-3.3,1.5l3.7-9.6l9.6,3.7l-3.3,1.5l4,9.1L744.4,264.3z"/>
			<path class="st6" d="M744.4,264.3l-4-9.1l-3.3,1.5l3.7-9.6l9.6,3.7l-3.3,1.5l4,9.1L744.4,264.3z"/>
			<path class="st5" d="M670.2,260.8l4.7-8.8l-3.2-1.7l9.8-3l3,9.8l-3.2-1.7l-4.7,8.8L670.2,260.8z"/>
			<path class="st6" d="M670.2,260.8l4.7-8.8l-3.2-1.7l9.8-3l3,9.8l-3.2-1.7l-4.7,8.8L670.2,260.8z"/>
			<path class="st5" d="M460.7,244.3l4.7-8.8l-3.2-1.7l9.8-3l3,9.8l-3.2-1.7l-4.7,8.8L460.7,244.3z"/>
			<path class="st6" d="M460.7,244.3l4.7-8.8l-3.2-1.7l9.8-3l3,9.8l-3.2-1.7l-4.7,8.8L460.7,244.3z"/>
			<path class="st5" d="M713.8,210.2l0,9.9h3.6l-7.3,7.3l-7.2-7.3h3.6l0-9.9H713.8z"/>
			<path class="st6" d="M713.8,210.2l0,9.9h3.6l-7.3,7.3l-7.2-7.3h3.6l0-9.9H713.8z"/>
			<path class="st3" d="M23.9,65.9h128.9v42H23.9L23.9,65.9z"/>
			<path d="M38.7,96.5v0.3c-0.9-0.5-1.7-1-2.3-1.6c-0.9-0.9-1.6-1.9-2-3.1c-0.5-1.2-0.7-2.4-0.7-3.7c0-1.9,0.5-3.6,1.4-5.2
				c0.9-1.6,2.1-2.7,3.6-3.3v0.4c-0.8,0.4-1.4,1-1.8,1.7s-0.8,1.6-1.1,2.7c-0.2,1.1-0.4,2.2-0.4,3.4c0,1.3,0.1,2.5,0.3,3.5
				c0.2,0.8,0.3,1.5,0.6,2c0.2,0.5,0.5,1,0.9,1.5C37.6,95.6,38.1,96,38.7,96.5z M47.6,88.7h-4.8l-0.8,2c-0.2,0.5-0.3,0.8-0.3,1.1
				c0,0.2,0.1,0.4,0.3,0.5c0.2,0.1,0.6,0.2,1.2,0.3v0.3h-3.9v-0.3c0.5-0.1,0.9-0.2,1-0.3c0.3-0.3,0.7-0.9,1-1.8l4.3-10.2H46
				l4.3,10.3c0.3,0.8,0.7,1.4,0.9,1.6c0.3,0.2,0.7,0.4,1.2,0.4v0.3h-4.9v-0.3c0.5,0,0.8-0.1,1-0.2c0.2-0.1,0.3-0.3,0.3-0.5
				c0-0.3-0.1-0.7-0.4-1.3L47.6,88.7z M47.4,88l-2.1-5l-2.2,5H47.4z M53,80.2v-0.4c0.9,0.5,1.7,1,2.3,1.6c0.9,0.9,1.5,1.9,2,3.1
				c0.5,1.2,0.7,2.4,0.7,3.7c0,1.9-0.5,3.6-1.4,5.1c-0.9,1.6-2.1,2.7-3.6,3.3v-0.3c0.8-0.4,1.4-1,1.8-1.7c0.5-0.7,0.8-1.6,1.1-2.7
				c0.2-1.1,0.4-2.3,0.4-3.5c0-1.3-0.1-2.5-0.3-3.5c-0.2-0.8-0.3-1.5-0.6-2c-0.2-0.5-0.5-1-0.9-1.5C54.1,81.1,53.6,80.6,53,80.2z
				 M74.1,84.2V87h-0.3c-0.2-0.9-0.5-1.5-0.9-1.8c-0.4-0.3-0.8-0.5-1.4-0.5c-0.4,0-0.8,0.1-1,0.3c-0.3,0.2-0.4,0.5-0.4,0.7
				c0,0.3,0.1,0.6,0.3,0.9c0.2,0.2,0.6,0.5,1.1,0.8l1.3,0.6c1.2,0.6,1.9,1.4,1.9,2.4c0,0.8-0.3,1.4-0.9,1.8
				c-0.6,0.5-1.2,0.7-1.9,0.7c-0.5,0-1.1-0.1-1.8-0.3c-0.2-0.1-0.4-0.1-0.5-0.1c-0.1,0-0.3,0.1-0.3,0.2h-0.3v-3h0.3
				c0.2,0.8,0.5,1.5,1,1.9c0.5,0.4,1,0.6,1.6,0.6c0.4,0,0.8-0.1,1-0.4c0.3-0.2,0.4-0.6,0.4-0.9c0-0.4-0.1-0.8-0.4-1
				c-0.3-0.3-0.9-0.7-1.8-1.1c-0.9-0.4-1.4-0.8-1.7-1.2c-0.3-0.4-0.4-0.8-0.4-1.3c0-0.7,0.2-1.3,0.7-1.7c0.5-0.5,1.1-0.7,1.8-0.7
				c0.3,0,0.7,0.1,1.2,0.2c0.3,0.1,0.5,0.1,0.6,0.1c0.1,0,0.2,0,0.2-0.1c0.1,0,0.1-0.1,0.2-0.3H74.1z M83.3,84.5v5.1
				c0,1,0,1.5,0.1,1.8c0.1,0.2,0.1,0.4,0.2,0.5c0.1,0.1,0.2,0.1,0.4,0.1c0.2,0,0.4-0.1,0.6-0.2l0.1,0.3l-2.5,1h-0.4v-1.8
				c-0.7,0.8-1.3,1.3-1.6,1.5c-0.4,0.2-0.8,0.3-1.2,0.3c-0.5,0-0.9-0.1-1.2-0.4c-0.3-0.3-0.6-0.6-0.7-1c-0.1-0.4-0.2-1-0.2-1.8v-3.7
				c0-0.4,0-0.7-0.1-0.8c-0.1-0.2-0.2-0.3-0.4-0.4c-0.2-0.1-0.5-0.1-0.9-0.1v-0.3h2.9V90c0,0.8,0.1,1.3,0.4,1.5
				c0.3,0.2,0.6,0.4,1,0.4c0.3,0,0.6-0.1,0.9-0.2c0.3-0.2,0.7-0.5,1.2-0.9V86c0-0.5-0.1-0.8-0.3-1c-0.2-0.2-0.5-0.3-1.1-0.3v-0.3
				H83.3z M87.6,85.9c0.8-1.1,1.7-1.7,2.6-1.7c0.9,0,1.6,0.4,2.2,1.1c0.6,0.7,1,1.7,1,3c0,1.5-0.5,2.7-1.5,3.6
				c-0.8,0.8-1.8,1.2-2.8,1.2c-0.5,0-1-0.1-1.5-0.2c-0.5-0.2-1-0.4-1.5-0.8v-8.7c0-0.9,0-1.5-0.1-1.8c0-0.2-0.1-0.4-0.2-0.4
				c-0.1-0.1-0.2-0.1-0.4-0.1c-0.2,0-0.4,0.1-0.6,0.2l-0.1-0.3l2.5-1h0.4V85.9z M87.6,86.5v5c0.3,0.3,0.6,0.5,1,0.7
				c0.3,0.2,0.7,0.2,1,0.2c0.6,0,1.1-0.3,1.5-0.9c0.5-0.6,0.7-1.5,0.7-2.7c0-1.1-0.2-1.9-0.7-2.5c-0.5-0.6-1-0.9-1.6-0.9
				c-0.3,0-0.6,0.1-1,0.2C88.3,85.9,88,86.1,87.6,86.5z M94.8,87.9h4.7v1.4h-4.7V87.9z M108.9,88.2v1.3h-1.7v3.3h-1.5v-3.3h-5.2
				v-1.2l5.7-8.2h1v8H108.9z M105.8,88.2v-6.1l-4.3,6.1H105.8z M110.3,86.7c0-1.4,0.2-2.6,0.6-3.6c0.4-1,1-1.8,1.7-2.3
				c0.6-0.4,1.1-0.6,1.7-0.6c0.9,0,1.8,0.5,2.5,1.5c0.9,1.2,1.4,2.8,1.4,4.9c0,1.4-0.2,2.7-0.6,3.7c-0.4,1-0.9,1.7-1.6,2.2
				c-0.6,0.4-1.2,0.7-1.8,0.7c-1.2,0-2.2-0.7-2.9-2.1C110.6,89.8,110.3,88.3,110.3,86.7z M112,86.9c0,1.7,0.2,3.1,0.6,4.2
				c0.3,0.9,0.9,1.4,1.5,1.4c0.3,0,0.7-0.1,1-0.4c0.4-0.3,0.6-0.8,0.8-1.5c0.3-1,0.4-2.5,0.4-4.4c0-1.4-0.1-2.6-0.4-3.5
				c-0.2-0.7-0.5-1.2-0.8-1.5c-0.2-0.2-0.6-0.3-0.9-0.3c-0.4,0-0.8,0.2-1.1,0.5c-0.4,0.5-0.7,1.3-0.9,2.4
				C112.1,84.8,112,85.9,112,86.9z M122.5,86.6c-1-0.8-1.6-1.4-1.9-1.9c-0.3-0.5-0.4-1-0.4-1.5c0-0.8,0.3-1.5,0.9-2.1
				c0.6-0.6,1.5-0.9,2.5-0.9c1,0,1.8,0.3,2.4,0.8c0.6,0.5,0.9,1.2,0.9,1.8c0,0.5-0.2,0.9-0.5,1.4c-0.3,0.5-1,1-2,1.7
				c1.1,0.8,1.8,1.5,2.1,2c0.5,0.6,0.7,1.3,0.7,2c0,0.9-0.3,1.6-1,2.2c-0.7,0.6-1.5,0.9-2.6,0.9c-1.2,0-2.1-0.4-2.8-1.1
				c-0.5-0.6-0.8-1.2-0.8-1.9c0-0.6,0.2-1.1,0.5-1.6C121,87.8,121.6,87.2,122.5,86.6z M123.9,85.6c0.7-0.7,1.2-1.2,1.4-1.5
				c0.2-0.4,0.3-0.8,0.3-1.3c0-0.6-0.2-1.1-0.5-1.5c-0.4-0.4-0.8-0.5-1.5-0.5c-0.6,0-1.1,0.2-1.5,0.5c-0.4,0.4-0.6,0.8-0.6,1.2
				c0,0.3,0.1,0.6,0.2,1c0.2,0.3,0.4,0.6,0.7,0.9L123.9,85.6z M122.9,86.9c-0.5,0.4-0.9,0.9-1.1,1.4c-0.2,0.5-0.4,1-0.4,1.6
				c0,0.8,0.2,1.4,0.6,1.9c0.4,0.5,1,0.7,1.6,0.7s1.2-0.2,1.6-0.6c0.4-0.4,0.6-0.8,0.6-1.3c0-0.4-0.1-0.8-0.3-1.2
				C125.1,88.8,124.2,88,122.9,86.9z"/>
			<path class="st3" d="M23.9,107.9h269v248.2h-269L23.9,107.9z"/>
			<g transform="matrix(1.043321398328542 0.0 0.0 1.0433240175487197 -1395.1077035864682 -95.37273204935255)">
				<g>
					<defs>
						<rect id="SVGID_00000175321626607085249470000011728110917397993878_" x="1354.5" y="189.7" width="269" height="248.2"/>
					</defs>
					<clipPath id="SVGID_00000095325884087828585670000017580739557523977102_">
						<use xlink:href="#SVGID_00000175321626607085249470000011728110917397993878_"  style="overflow:visible;"/>
					</clipPath>
					<g style="clip-path:url(#SVGID_00000095325884087828585670000017580739557523977102_);enable-background:new    ;">
						
							<image style="overflow:visible;" width="1920" height="1080" xlink:href="55BCE67.png"  transform="matrix(1 0 0 1 0 1.375209e-05)">
						</image>
					</g>
				</g>
			</g>
			<path class="st7" d="M174,198.1l2.5,12l4.5-0.9l-7.2,10.9l-10.9-7.2l4.5-0.9l-2.5-12L174,198.1z"/>
			<path class="st8" d="M174,198.1l2.5,12l4.5-0.9l-7.2,10.9l-10.9-7.2l4.5-0.9l-2.5-12L174,198.1z"/>
		</g>
	</g>
</g>
<rect x="66" y="76.2" class="st9" width="63" height="21"/>
<rect x="352" y="76.2" class="st9" width="61" height="21"/>
<rect x="-139" y="12.2" class="st9" width="61" height="21"/>
</svg>
