<?xml version="1.0" encoding="UTF-8" standalone="no"?>
<!-- Created with Inkscape (http://www.inkscape.org/) -->

<svg
   width="180mm"
   height="180mm"
   viewBox="0 0 180 180"
   version="1.1"
   id="svg1"
   xmlns="http://www.w3.org/2000/svg"
   xmlns:svg="http://www.w3.org/2000/svg"
   xmlns:rdf="http://www.w3.org/1999/02/22-rdf-syntax-ns#"
   xmlns:cc="http://creativecommons.org/ns#"
   xmlns:dc="http://purl.org/dc/elements/1.1/">
  <defs
     id="defs1">
    <clipPath
       clipPathUnits="userSpaceOnUse"
       id="clipPath2">
      <g
         id="g3"
         transform="matrix(4.9763274,0,0,-4.9763274,-1458.4908,-373.19286)">
        <path
           d="M 249.26574,-140.15695 H 418.44472 V -20.535398 H 249.26574 Z"
           id="path2"
           style="stroke-width:0.200951" />
      </g>
    </clipPath>
    <clipPath
       clipPathUnits="userSpaceOnUse"
       id="clipPath1">
      <g
         id="g2"
         transform="matrix(4.9763274,0,0,-4.9763274,-1342.6264,-429.01116)">
        <path
           d="M 249.26574,-140.15695 H 418.44472 V -20.535398 H 249.26574 Z"
           id="path1"
           style="stroke-width:0.200951" />
      </g>
    </clipPath>
    <clipPath
       clipPathUnits="userSpaceOnUse"
       id="clipPath3471">
      <path
         d="m 102.199,326.821 c 0,0 -7.917,-8.324 -2.501,-13.74 v 0 c -5.416,-2.499 -5.04,-6.255 -1.894,-8.127 v 0 c 3.145,-1.873 -3.122,-2.705 1.053,-6.039 v 0 c 4.175,-3.332 -2.925,-2.5 0,-5.833 v 0 c 2.068,-2.357 4.341,-1.38 5.494,-0.606 v 0 c -1.395,-1.21 -4.047,-4.052 -2.152,-6.893 v 0 c 2.5,-3.751 7.499,4.572 7.499,4.572 v 0 c -6.096,-10.839 2.855,-10.053 0.508,-9.532 v 0 c 3.75,-0.834 7.825,0 7.825,0 v 0 c 0,0 0.884,-8.373 4.635,-5.04 v 0 c 0,0 1.615,0.327 2.187,-2.016 v 0 c 0.574,-2.344 2.136,-3.803 6.094,-0.261 v 0 c -0.416,-3.333 1.667,-5.495 4.167,-2.122 v 0 c 0,-4.128 5,-12.461 9.166,-6.21 v 0 c 0.833,-2.501 2.083,-9.167 5.834,-4.584 v 0 c 0,0 2.082,-7.305 6.666,-1.57 v 0 c 0,0 4.166,-11.997 8.333,-3.247 v 0 c 0,0 1.024,-10.833 6.345,0.833 v 0 c 0,0 0.595,-6.717 6.429,-5.467 v 0 c 5.833,1.25 4.166,6.25 4.166,6.25 v 0 c 0,0 4.167,-8.75 6.25,-2.501 v 0 c 0,0 2.225,-8.698 4.725,-1.615 v 0 c 0,0 8.477,-4.844 9.141,3.346 v 0 c 0.392,0.148 1.483,0.856 4.192,2.984 v 0 l 2.084,4.544 c 0,0 0,-7.5 4.999,-4.167 v 0 c 5,3.333 5,5.417 5,5.417 v 0 c 0,0 4.583,-8.293 5.833,0.04 v 0 c 0,0 5,-3.75 7.083,2.083 v 0 c 0,0 4.583,-3.333 5.833,0.833 v 0 c 0,0 5.833,-5.497 5.833,-1.747 v 0 c 0,0 6.982,7.421 3.691,10.74 v 0 c 1.234,0.936 1.232,2.402 -2.441,4.676 v 0 c 0,0 6.25,6.25 -1.25,7.917 v 0 c 0,0 5.417,0.416 1.25,7.915 v 0 c 0,0 4.167,2.501 0.417,7.084 v 0 l -96.246,36.249 z"
         id="path3469" />
    </clipPath>
    <clipPath
       clipPathUnits="userSpaceOnUse"
       id="clipPath3483">
      <path
         d="M 0,595.276 H 841.89 V 0 H 0 Z"
         id="path3481" />
    </clipPath>
    <clipPath
       clipPathUnits="userSpaceOnUse"
       id="clipPath3563">
      <path
         d="m 164.149,313.094 c -0.567,-0.532 0.005,-1.141 0.202,-1.641 v 0 c 0.936,-2.37 2.991,-3.555 5.66,-3.297 v 0 c 1.123,0.109 2.232,0.344 3.434,0.535 v 0 c -0.601,-1.013 -1.537,-1.483 -2.49,-1.679 v 0 c -1.785,-0.369 -1.57,-1.259 -1.12,-2.5 v 0 c 2.169,-5.978 8.271,-9.088 15.78,-7.897 v 0 c -0.691,1.384 -2.005,2.51 -1.772,4.431 v 0 c 2.12,-2.835 4.431,-5.408 7.951,-5.641 v 0 c 4.122,-0.272 8.277,0.275 11.908,-2.099 v 0 c 0.63,-0.41 1.799,-0.266 2.849,0.113 v 0 c -0.556,0.707 -1.057,1.343 -1.557,1.978 v 0 c -0.611,0.771 -0.435,1.643 -0.32,2.508 v 0 c 0.095,-0.354 0.303,-0.647 0.697,-0.84 v 0 c 2.288,-3.07 5.429,-3.87 9.096,-3.073 v 0 c 4.508,0.979 7.256,5.47 6.133,9.887 v 0 c -0.51,2.006 -2.595,3.667 -4.482,3.403 v 0 c -2.577,-0.362 -2.829,-2.469 -3.233,-4.59 v 0 c -0.809,0.835 -1.107,1.758 -0.859,2.775 v 0 c 0.163,0.671 -0.109,0.596 -0.392,0.521 v 0 c -0.096,-0.025 -0.193,-0.05 -0.274,-0.046 v 0 c -0.357,0.019 -0.687,-0.068 -1.028,-0.155 v 0 c -0.378,-0.097 -0.771,-0.195 -1.228,-0.145 v 0 c -0.914,0.097 -0.515,-1.176 -0.461,-1.898 v 0 c 0.733,-1.723 0.904,-3.775 3.092,-4.814 v 0 c -1.479,-0.362 -1.929,0.652 -2.586,1.244 v 0 c -0.811,0.732 -1.264,1.87 -2.51,2.109 v 0 c -0.415,-0.058 -0.843,0.005 -1.271,0.068 v 0 c -0.76,0.113 -1.521,0.226 -2.212,-0.339 v 0 c -0.083,0.042 -0.17,0.081 -0.267,0.114 v 0 c -0.59,-0.108 -1.209,0.026 -1.782,-0.234 v 0 c -1.875,-0.43 -3.089,-1.886 -4.662,-3.045 v 0 c -0.439,0.816 0.606,1.326 0.324,2.009 v 0 c -1.871,0.557 -3.714,1.234 -5.352,2.371 v 0 c -2.052,1.424 -3.049,1.304 -4.79,-0.505 v 0 c -0.338,-0.35 -0.641,-0.73 -1.455,-1.663 v 0 c 1.007,2.528 0.065,3.049 -1.705,3.428 v 0 c -3.003,0.643 -5.648,2.022 -7.202,4.812 v 0 c -0.362,0.65 -0.917,1.141 -1.693,1.394 v 0 c -2.748,0.898 -5.51,1.804 -8.266,2.764 v 0 c -0.299,0.103 -0.586,0.156 -0.857,0.156 v 0 c -0.488,0 -0.927,-0.17 -1.3,-0.519"
         id="path3561" />
    </clipPath>
    <clipPath
       clipPathUnits="userSpaceOnUse"
       id="clipPath3575">
      <path
         d="m 139.299,380.934 c -0.65,-1.593 0.289,-1.704 1.583,-1.481 v 0 c 0.929,-0.052 1.857,-0.102 2.783,-0.153 v 0 c 1.143,0.528 2.245,-0.26 3.342,-0.264 v 0 c 0.004,-0.007 0.011,-0.015 0.018,-0.023 v 0 c -0.286,0.016 -0.575,0.043 -0.862,0.01 v 0 c -0.208,-0.06 -0.394,-0.152 -0.558,-0.28 v 0 c -2.899,-0.543 -5.53,-1.604 -7.498,-3.69 v 0 c -0.766,-0.81 -1.168,-0.548 -1.916,0.073 v 0 c -1.539,1.276 -3.252,1.685 -4.934,0.413 v 0 c -1.887,-1.428 -1.593,-2.967 0.697,-3.899 v 0 c 0.765,-0.311 1.582,-0.541 2.064,-1.262 v 0 c 0.194,-0.374 0.334,-0.785 0.774,-1.006 v 0 c -0.476,0.218 -0.976,0.364 -1.492,0.463 v 0 c -1.998,0.719 -4.058,1.088 -6.16,0.839 v 0 c -5.705,-0.676 -8.292,-4.161 -7.389,-9.81 v 0 c 5.156,0.131 4.735,5.087 7.786,7.746 v 0 c -1.1,-4.471 -1.676,-8.512 -1.028,-12.693 v 0 c 1.014,-6.559 4.929,-10.802 11.175,-11.914 v 0 c 3.146,-0.559 4.427,0.396 4.591,3.366 v 0 c 0.11,1.974 -0.377,3.765 -1.716,5.382 v 0 c -0.501,0.605 -0.898,1.299 -1.261,1.989 v 0 c -2.539,4.814 -4.797,5.674 -10.265,3.625 v 0 c 1.193,1.683 2.505,2.892 4.361,3.355 v 0 c 1.445,0.361 2.233,1.091 3.005,2.263 v 0 c 1.808,2.749 3.665,5.481 5.944,7.899 v 0 c 0.291,0.309 0.497,0.771 1.401,0.645 v 0 c -0.646,-1.04 -1.239,-1.994 -2.049,-3.299 v 0 c 3.965,1.598 7.602,2.058 11.373,0.628 v 0 c -0.061,-0.85 -0.542,-0.712 -1.004,-0.574 v 0 c -0.201,0.06 -0.399,0.119 -0.555,0.099 v 0 c -0.411,-0.056 -0.832,-0.013 -1.256,0.031 v 0 c -0.514,0.052 -1.032,0.106 -1.541,-0.018 v 0 c -4.026,-0.312 -7.646,-1.388 -9.214,-5.256 v 0 c -1.542,-3.804 -0.362,-7.311 2.384,-10.43 v 0 c 2.101,-2.385 2.236,-2.353 4.412,-0.168 v 0 c 0.374,0.254 0.746,0.507 1.118,0.761 v 0 c 0.344,0.799 0.728,1.545 1.903,1.252 v 0 c 1,0.447 1.526,1.285 2.011,2.157 v 0 c 0.159,0.531 0.538,0.803 1.124,0.831 v 0 c 0.575,-0.107 0.902,0.298 1.31,0.531 v 0 c 0.633,0.154 1.133,0.899 1.927,0.325 v 0 c -0.027,-0.27 1.181,0.116 0.358,-0.535 v 0 c -1.012,-0.799 -2.419,-1.126 -3.201,-2.375 v 0 c 0.628,-0.542 1.359,-0.443 2.087,-0.357 v 0 c 0.814,-0.392 1.755,-0.044 2.559,-0.471 v 0 c 0.611,-0.248 1.222,-0.496 1.833,-0.745 v 0 c -0.165,-0.805 -0.578,-0.629 -0.992,-0.453 v 0 c -0.179,0.076 -0.358,0.152 -0.517,0.15 v 0 c -1.665,0.068 -3.327,0.255 -5.006,0.007 v 0 c -4.435,-0.657 -7.237,-2.974 -7.729,-6.512 v 0 c -0.571,-4.112 1.768,-8.036 5.961,-9.852 v 0 c 0.405,2.468 0.727,4.961 2.71,7.038 v 0 c 0.719,-1.132 -0.072,-1.879 -0.285,-2.628 v 0 c -1.456,-5.151 -1.126,-10.081 1.893,-14.756 v 0 c 1.154,-1.788 2.556,-2.068 4.368,-1.012 v 0 c 2.016,1.176 3.117,3.098 4.465,4.814 v 0 c 0.372,0.474 0.069,0.805 -0.191,1.19 v 0 c -0.848,1.254 -1.629,2.553 -2.512,3.788 v 0 c -2.487,3.478 -2.224,8.878 1.313,11.149 v 0 c 4.079,2.619 3.31,6.195 0.289,9.51 v 0 c -0.522,0.572 -1.115,1.088 -1.676,1.631 v 0 c -0.111,0.197 -0.217,0.399 -0.439,0.514 v 0 c 0.337,0.248 0.684,0.046 1.027,-0.014 v 0 c 0.626,-0.315 1.295,-0.571 1.866,-0.958 v 0 c 0.822,-0.557 1.736,-1.819 2.318,-1.693 v 0 c 1.282,0.275 2.425,1.17 3.541,1.918 v 0 c 1.047,0.7 1.29,1.709 0.859,2.934 v 0 c -0.305,0.868 -0.704,1.666 -1.34,2.352 v 0 c -0.618,0.666 -1.272,1.304 -2.201,2.252 v 0 c 2.238,-0.268 3.426,-1.424 4.399,-2.741 v 0 c 2.32,-3.141 3.373,-3.288 6.516,-0.742 v 0 c 0.612,-0.051 1.131,-0.155 0.534,-0.869 v 0 c -0.833,-0.996 -1.792,-1.852 -2.929,-2.539 v 0 c -1.144,-0.691 -0.109,-0.717 0.357,-0.901 v 0 c 0.499,-0.52 1.164,-0.637 1.8,-0.751 v 0 c -0.112,-0.012 -0.212,0.012 -0.31,0.036 v 0 c -0.081,0.021 -0.161,0.041 -0.246,0.041 v 0 c -0.896,0.262 -1.77,0.123 -2.647,10e-4 v 0 c -0.537,-0.033 -1.08,-0.037 -1.613,-0.103 v 0 c -4.756,-0.593 -5.646,-1.557 -6.127,-6.622 v 0 c -0.504,-1.177 0.383,-1.127 1.166,-1.243 v 0 c 0.289,-0.043 0.587,-0.035 0.884,-0.027 v 0 c 0.6,0.015 1.199,0.031 1.735,-0.371 v 0 c 0.036,-0.026 0.038,-0.128 0.018,-0.18 v 0 c -0.024,-0.064 -0.089,-0.113 -0.136,-0.168 v 0 c -5.645,-0.441 -8.965,-3.526 -8.734,-8.15 v 0 c 0.136,-2.709 1.519,-4.496 4.023,-5.208 v 0 c 2.319,-0.66 4.415,0.152 6.059,2.231 v 0 c 0.492,0.622 0.563,1.539 1.53,1.978 v 0 c 0.119,-1.284 -0.286,-2.347 -0.828,-3.382 v 0 c 0.72,-0.573 1.506,-0.618 2.364,-0.359 v 0 c 0.743,0.225 1.497,0.192 2.441,-0.167 v 0 c 0.083,-0.024 -0.337,-0.424 -0.206,-0.159 v 0 c 0.026,0.053 -0.014,0.078 -0.091,0.12 v 0 c -1.336,0.738 -2.492,0.093 -3.671,-0.402 v 0 c -0.323,-0.144 -0.646,-0.289 -0.969,-0.434 v 0 c -4.895,-0.966 -7.222,-3.49 -7.287,-7.792 v 0 c -0.021,-1.359 0.35,-2.46 1.431,-3.373 v 0 c 0.491,-0.415 1.218,-0.783 0.902,-1.631 v 0 c 0,0 0,0 -0.001,0 v 0 c -1.553,0.99 -3.1,1.979 -4.938,2.511 v 0 c -3.058,0.884 -5.515,0.293 -7.351,-2.11 v 0 c -3.598,-4.703 -3.32,-9.691 -0.906,-14.692 v 0 c 2.226,-4.609 6.688,-5.652 11.417,-6.169 v 0 c 1.132,-0.124 1.566,0.213 1.418,1.324 v 0 c -0.149,1.128 -0.349,2.135 -1.478,2.832 v 0 c -1.244,0.768 -2.233,1.823 -2.924,3.101 v 0 c -0.484,0.895 -3.99,3.469 -5.379,3.699 v 0 c 3.117,1.042 5.97,1.948 6.71,5.125 v 0 c 0.316,0.702 0.133,1.45 0.23,2.172 v 0 c 0.052,0.391 0.141,0.738 0.695,0.502 v 0 c 0.137,-0.153 0.274,-0.307 0.411,-0.46 v 0 c 0.129,-0.502 0.273,-1.002 0.384,-1.507 v 0 c 0.267,-1.21 -0.606,-2.811 1.266,-3.462 v 0 c 2.294,-0.797 4.677,-1.025 7.082,-0.858 v 0 c 0.713,0.048 0.518,0.799 0.669,1.255 v 0 c 0.405,1.225 0.551,2.571 2.115,3.75 v 0 c -0.544,-1.864 -0.9,-3.341 -0.684,-4.883 v 0 c 0.752,-5.364 5.457,-8.563 10.947,-7.57 v 0 c 1.3,0.235 0.634,0.804 0.512,1.337 v 0 c -0.545,2.401 -0.673,4.706 1.82,6.78 v 0 c -0.341,-1.635 -0.942,-2.874 -0.763,-4.251 v 0 c 0.604,-4.697 4.01,-7.44 8.869,-7.05 v 0 c 2.779,0.222 5.469,1.279 8.43,0.815 v 0 c -0.401,1.548 -1.014,2.857 -2.287,4.383 v 0 c 1.521,-0.301 2.575,-0.522 3.632,-0.716 v 0 c 2.238,-0.412 4.441,-0.354 6.587,0.504 v 0 c 1.377,0.551 2.786,0.786 4.145,0.137 v 0 c 0.774,-0.37 1.098,-0.207 1.405,0.568 v 0 c 1.375,3.471 -1.219,7.151 -4.968,6.973 v 0 c -1.683,-0.08 -2.355,-0.969 -3.069,-4.137 v 0 c -0.883,0.881 -1.678,1.776 -2.58,2.555 v 0 c -2.109,1.824 -4.594,2.34 -7.318,1.572 v 0 c -2.269,-0.639 -3.435,-2.323 -3.431,-4.518 v 0 c 0.002,-1.411 -0.434,-1.786 -1.708,-1.561 v 0 c -0.345,0.061 -0.678,-0.033 -1.025,-0.126 v 0 c -0.456,-0.123 -0.939,-0.246 -1.512,-0.018 v 0 c 1.118,1.312 3.248,1.779 3.183,3.867 v 0 c -0.015,0.481 0.216,0.937 0.005,1.465 v 0 c -1.148,2.86 -5.438,5.889 -8.309,5.794 v 0 c -3.152,-0.103 -5.427,-2.134 -6.826,-6.096 v 0 c -0.038,-0.108 -0.178,-0.183 -0.404,-0.405 v 0 c -0.283,1.49 -0.193,2.83 0.342,4.117 v 0 c 0.552,1.334 0.153,2.384 -0.757,3.417 v 0 c -2.465,2.803 -5.592,4.194 -9.653,4.05 v 0 c 1.024,0.919 2.141,0.881 3.2,0.844 v 0 c 0.227,-0.007 0.452,-0.015 0.674,-0.013 v 0 c 1.301,0.01 1.999,0.575 2.372,1.665 v 0 c 0.569,1.665 1.122,3.333 1.682,4.998 v 0 c 1.068,1.858 2.476,3.439 4.182,4.753 v 0 c 1.139,0.877 1.186,1.873 0.577,3.076 v 0 c -1.363,2.693 -3.602,4.157 -6.669,4.281 v 0 c -3.248,0.131 -5.777,-1.085 -7.182,-4.033 v 0 c -0.731,-0.086 -0.731,-0.086 -0.467,0.927 v 0 c 0.524,1.983 2.111,3.061 3.878,3.768 v 0 c 4.093,1.636 6.926,4.255 8.248,8.378 v 0 c 0.441,1.374 1.229,2.724 2.527,3.498 v 0 c 1.277,0.761 1.291,1.445 0.366,2.515 v 0 c -1.122,1.301 -1.93,2.859 -3.405,3.886 v 0 c -4.176,4.5 -9.271,6.845 -15.531,5.866 v 0 c -3.458,-0.541 -5.444,-2.796 -6.362,-5.999 v 0 c -0.262,-0.916 -0.098,-1.177 0.886,-1.235 v 0 c 1.552,-0.092 3.02,-0.491 4.806,-1.729 v 0 c -2.001,0.125 -3.397,0.227 -4.797,0.299 v 0 c -3.029,0.155 -5.814,-0.644 -8.489,-1.855 v 0 c -0.768,-0.349 -1.511,-0.729 -2.428,-0.524 v 0 c 1.302,2.443 3.907,2.998 6.366,3.572 v 0 c 1.345,0.315 2.05,0.754 2.171,2.104 v 0 c 0.117,1.293 0.913,2.346 1.671,3.366 v 0 c 1.115,1.504 0.876,2.878 -0.454,4.263 v 0 c -1.317,1.373 -2.797,2.557 -4.421,3.595 v 0 c -0.423,0.786 0.09,0.573 0.53,0.44 v 0 c 2.655,-0.791 4.624,-2.442 6.244,-4.523 v 0 c 0.408,-0.526 0.614,-1.113 1.619,-0.706 v 0 c 3.443,1.394 6.965,0.871 10.489,-0.146 v 0 c 0.454,-0.131 1.64,-1.281 1.679,0.218 v 0 c 0.032,1.236 2.578,2.525 -0.174,3.779 v 0 c -3.069,1.4 -6.036,0.988 -8.999,-0.017 v 0 c -0.678,-0.3 0.461,-1.014 -0.183,-1.192 v 0 c -0.531,-0.147 -1.235,-0.153 -1.413,0.662 v 0 c 0.213,0.38 0.469,0.727 0.675,1.103 v 0 c 2.822,1.881 6.554,1.592 9.411,3.311 v 0 c 0.302,0.181 0.66,0.279 1.322,0.551 v 0 c -5.443,2.385 -10.508,3.542 -15.597,0.413 v 0 c 0.752,-1.023 2.002,-1.491 2.693,-3.062 v 0 c -5.309,2.755 -10.557,5.322 -16.038,5.323 v 0 c -2.532,0 -5.112,-0.548 -7.773,-1.878 m 8,-1.929 c 0.003,0.007 0.009,0.008 0.012,0.016 v 0 c 0.142,0.267 0.445,-0.002 0.136,-0.017 v 0 c -0.012,0 -0.025,0 -0.037,0 v 0 c -0.037,0 -0.074,10e-4 -0.111,10e-4"
         id="path3573" />
    </clipPath>
    <clipPath
       clipPathUnits="userSpaceOnUse"
       id="clipPath3587">
      <path
         d="M 0,595.276 H 841.89 V 0 H 0 Z"
         id="path3585" />
    </clipPath>
    <clipPath
       clipPathUnits="userSpaceOnUse"
       id="clipPath3599">
      <path
         d="m 139.299,380.934 c -0.65,-1.593 0.289,-1.704 1.583,-1.481 v 0 c 0.929,-0.052 1.857,-0.102 2.783,-0.153 v 0 c 1.143,0.528 2.245,-0.26 3.342,-0.264 v 0 c 0.004,-0.007 0.011,-0.015 0.018,-0.023 v 0 c -0.286,0.016 -0.575,0.043 -0.862,0.01 v 0 c -0.208,-0.06 -0.394,-0.152 -0.558,-0.28 v 0 c -2.899,-0.543 -5.53,-1.604 -7.498,-3.69 v 0 c -0.766,-0.81 -1.168,-0.548 -1.916,0.073 v 0 c -1.539,1.276 -3.252,1.685 -4.934,0.413 v 0 c -1.887,-1.428 -1.593,-2.967 0.697,-3.899 v 0 c 0.765,-0.311 1.582,-0.541 2.064,-1.262 v 0 c 0.194,-0.374 0.334,-0.785 0.774,-1.006 v 0 c -0.476,0.218 -0.976,0.364 -1.492,0.463 v 0 c -1.998,0.719 -4.058,1.088 -6.16,0.839 v 0 c -5.705,-0.676 -8.292,-4.161 -7.389,-9.81 v 0 c 5.156,0.131 4.735,5.087 7.786,7.746 v 0 c -1.1,-4.471 -1.676,-8.512 -1.028,-12.693 v 0 c 1.014,-6.559 4.929,-10.802 11.175,-11.914 v 0 c 3.146,-0.559 4.427,0.396 4.591,3.366 v 0 c 0.11,1.974 -0.377,3.765 -1.716,5.382 v 0 c -0.501,0.605 -0.898,1.299 -1.261,1.989 v 0 c -2.539,4.814 -4.797,5.674 -10.265,3.625 v 0 c 1.193,1.683 2.505,2.892 4.361,3.355 v 0 c 1.445,0.361 2.233,1.091 3.005,2.263 v 0 c 1.808,2.749 3.665,5.481 5.944,7.899 v 0 c 0.291,0.309 0.497,0.771 1.401,0.645 v 0 c -0.646,-1.04 -1.239,-1.994 -2.049,-3.299 v 0 c 3.965,1.598 7.602,2.058 11.373,0.628 v 0 c -0.061,-0.85 -0.542,-0.712 -1.004,-0.574 v 0 c -0.201,0.06 -0.399,0.119 -0.555,0.099 v 0 c -0.411,-0.056 -0.832,-0.013 -1.256,0.031 v 0 c -0.514,0.052 -1.032,0.106 -1.541,-0.018 v 0 c -4.026,-0.312 -7.646,-1.388 -9.214,-5.256 v 0 c -1.542,-3.804 -0.362,-7.311 2.384,-10.43 v 0 c 2.101,-2.385 2.236,-2.353 4.412,-0.168 v 0 c 0.374,0.254 0.746,0.507 1.118,0.761 v 0 c 0.344,0.799 0.728,1.545 1.903,1.252 v 0 c 1,0.447 1.526,1.285 2.011,2.157 v 0 c 0.159,0.531 0.538,0.803 1.124,0.831 v 0 c 0.575,-0.107 0.902,0.298 1.31,0.531 v 0 c 0.633,0.154 1.133,0.899 1.927,0.325 v 0 c -0.027,-0.27 1.181,0.116 0.358,-0.535 v 0 c -1.012,-0.799 -2.419,-1.126 -3.201,-2.375 v 0 c 0.628,-0.542 1.359,-0.443 2.087,-0.357 v 0 c 0.814,-0.392 1.755,-0.044 2.559,-0.471 v 0 c 0.611,-0.248 1.222,-0.496 1.833,-0.745 v 0 c -0.165,-0.805 -0.578,-0.629 -0.992,-0.453 v 0 c -0.179,0.076 -0.358,0.152 -0.517,0.15 v 0 c -1.665,0.068 -3.327,0.255 -5.006,0.007 v 0 c -4.435,-0.657 -7.237,-2.974 -7.729,-6.512 v 0 c -0.571,-4.112 1.768,-8.036 5.961,-9.852 v 0 c 0.405,2.468 0.727,4.961 2.71,7.038 v 0 c 0.719,-1.132 -0.072,-1.879 -0.285,-2.628 v 0 c -1.456,-5.151 -1.126,-10.081 1.893,-14.756 v 0 c 1.154,-1.788 2.556,-2.068 4.368,-1.012 v 0 c 2.016,1.176 3.117,3.098 4.465,4.814 v 0 c 0.372,0.474 0.069,0.805 -0.191,1.19 v 0 c -0.848,1.254 -1.629,2.553 -2.512,3.788 v 0 c -2.487,3.478 -2.224,8.878 1.313,11.149 v 0 c 4.079,2.619 3.31,6.195 0.289,9.51 v 0 c -0.522,0.572 -1.115,1.088 -1.676,1.631 v 0 c -0.111,0.197 -0.217,0.399 -0.439,0.514 v 0 c 0.337,0.248 0.684,0.046 1.027,-0.014 v 0 c 0.626,-0.315 1.295,-0.571 1.866,-0.958 v 0 c 0.822,-0.557 1.736,-1.819 2.318,-1.693 v 0 c 1.282,0.275 2.425,1.17 3.541,1.918 v 0 c 1.047,0.7 1.29,1.709 0.859,2.934 v 0 c -0.305,0.868 -0.704,1.666 -1.34,2.352 v 0 c -0.618,0.666 -1.272,1.304 -2.201,2.252 v 0 c 2.238,-0.268 3.426,-1.424 4.399,-2.741 v 0 c 2.32,-3.141 3.373,-3.288 6.516,-0.742 v 0 c 0.612,-0.051 1.131,-0.155 0.534,-0.869 v 0 c -0.833,-0.996 -1.792,-1.852 -2.929,-2.539 v 0 c -1.144,-0.691 -0.109,-0.717 0.357,-0.901 v 0 c 0.499,-0.52 1.164,-0.637 1.8,-0.751 v 0 c -0.112,-0.012 -0.212,0.012 -0.31,0.036 v 0 c -0.081,0.021 -0.161,0.041 -0.246,0.041 v 0 c -0.896,0.262 -1.77,0.123 -2.647,10e-4 v 0 c -0.537,-0.033 -1.08,-0.037 -1.613,-0.103 v 0 c -4.756,-0.593 -5.646,-1.557 -6.127,-6.622 v 0 c -0.504,-1.177 0.383,-1.127 1.166,-1.243 v 0 c 0.289,-0.043 0.587,-0.035 0.884,-0.027 v 0 c 0.6,0.015 1.199,0.031 1.735,-0.371 v 0 c 0.036,-0.026 0.038,-0.128 0.018,-0.18 v 0 c -0.024,-0.064 -0.089,-0.113 -0.136,-0.168 v 0 c -5.645,-0.441 -8.965,-3.526 -8.734,-8.15 v 0 c 0.136,-2.709 1.519,-4.496 4.023,-5.208 v 0 c 2.319,-0.66 4.415,0.152 6.059,2.231 v 0 c 0.492,0.622 0.563,1.539 1.53,1.978 v 0 c 0.119,-1.284 -0.286,-2.347 -0.828,-3.382 v 0 c 0.72,-0.573 1.506,-0.618 2.364,-0.359 v 0 c 0.743,0.225 1.497,0.192 2.441,-0.167 v 0 c 0.083,-0.024 -0.337,-0.424 -0.206,-0.159 v 0 c 0.026,0.053 -0.014,0.078 -0.091,0.12 v 0 c -1.336,0.738 -2.492,0.093 -3.671,-0.402 v 0 c -0.323,-0.144 -0.646,-0.289 -0.969,-0.434 v 0 c -4.895,-0.966 -7.222,-3.49 -7.287,-7.792 v 0 c -0.021,-1.359 0.35,-2.46 1.431,-3.373 v 0 c 0.491,-0.415 1.218,-0.783 0.902,-1.631 v 0 c 0,0 0,0 -0.001,0 v 0 c -1.553,0.99 -3.1,1.979 -4.938,2.511 v 0 c -3.058,0.884 -5.515,0.293 -7.351,-2.11 v 0 c -3.598,-4.703 -3.32,-9.691 -0.906,-14.692 v 0 c 2.226,-4.609 6.688,-5.652 11.417,-6.169 v 0 c 1.132,-0.124 1.566,0.213 1.418,1.324 v 0 c -0.149,1.128 -0.349,2.135 -1.478,2.832 v 0 c -1.244,0.768 -2.233,1.823 -2.924,3.101 v 0 c -0.484,0.895 -3.99,3.469 -5.379,3.699 v 0 c 3.117,1.042 5.97,1.948 6.71,5.125 v 0 c 0.316,0.702 0.133,1.45 0.23,2.172 v 0 c 0.052,0.391 0.141,0.738 0.695,0.502 v 0 c 0.137,-0.153 0.274,-0.307 0.411,-0.46 v 0 c 0.129,-0.502 0.273,-1.002 0.384,-1.507 v 0 c 0.267,-1.21 -0.606,-2.811 1.266,-3.462 v 0 c 2.294,-0.797 4.677,-1.025 7.082,-0.858 v 0 c 0.713,0.048 0.518,0.799 0.669,1.255 v 0 c 0.405,1.225 0.551,2.571 2.115,3.75 v 0 c -0.544,-1.864 -0.9,-3.341 -0.684,-4.883 v 0 c 0.752,-5.364 5.457,-8.563 10.947,-7.57 v 0 c 1.3,0.235 0.634,0.804 0.512,1.337 v 0 c -0.545,2.401 -0.673,4.706 1.82,6.78 v 0 c -0.341,-1.635 -0.942,-2.874 -0.763,-4.251 v 0 c 0.604,-4.697 4.01,-7.44 8.869,-7.05 v 0 c 2.779,0.222 5.469,1.279 8.43,0.815 v 0 c -0.401,1.548 -1.014,2.857 -2.287,4.383 v 0 c 1.521,-0.301 2.575,-0.522 3.632,-0.716 v 0 c 2.238,-0.412 4.441,-0.354 6.587,0.504 v 0 c 1.377,0.551 2.786,0.786 4.145,0.137 v 0 c 0.774,-0.37 1.098,-0.207 1.405,0.568 v 0 c 1.375,3.471 -1.219,7.151 -4.968,6.973 v 0 c -1.683,-0.08 -2.355,-0.969 -3.069,-4.137 v 0 c -0.883,0.881 -1.678,1.776 -2.58,2.555 v 0 c -2.109,1.824 -4.594,2.34 -7.318,1.572 v 0 c -2.269,-0.639 -3.435,-2.323 -3.431,-4.518 v 0 c 0.002,-1.411 -0.434,-1.786 -1.708,-1.561 v 0 c -0.345,0.061 -0.678,-0.033 -1.025,-0.126 v 0 c -0.456,-0.123 -0.939,-0.246 -1.512,-0.018 v 0 c 1.118,1.312 3.248,1.779 3.183,3.867 v 0 c -0.015,0.481 0.216,0.937 0.005,1.465 v 0 c -1.148,2.86 -5.438,5.889 -8.309,5.794 v 0 c -3.152,-0.103 -5.427,-2.134 -6.826,-6.096 v 0 c -0.038,-0.108 -0.178,-0.183 -0.404,-0.405 v 0 c -0.283,1.49 -0.193,2.83 0.342,4.117 v 0 c 0.552,1.334 0.153,2.384 -0.757,3.417 v 0 c -2.465,2.803 -5.592,4.194 -9.653,4.05 v 0 c 1.024,0.919 2.141,0.881 3.2,0.844 v 0 c 0.227,-0.007 0.452,-0.015 0.674,-0.013 v 0 c 1.301,0.01 1.999,0.575 2.372,1.665 v 0 c 0.569,1.665 1.122,3.333 1.682,4.998 v 0 c 1.068,1.858 2.476,3.439 4.182,4.753 v 0 c 1.139,0.877 1.186,1.873 0.577,3.076 v 0 c -1.363,2.693 -3.602,4.157 -6.669,4.281 v 0 c -3.248,0.131 -5.777,-1.085 -7.182,-4.033 v 0 c -0.731,-0.086 -0.731,-0.086 -0.467,0.927 v 0 c 0.524,1.983 2.111,3.061 3.878,3.768 v 0 c 4.093,1.636 6.926,4.255 8.248,8.378 v 0 c 0.441,1.374 1.229,2.724 2.527,3.498 v 0 c 1.277,0.761 1.291,1.445 0.366,2.515 v 0 c -1.122,1.301 -1.93,2.859 -3.405,3.886 v 0 c -4.176,4.5 -9.271,6.845 -15.531,5.866 v 0 c -3.458,-0.541 -5.444,-2.796 -6.362,-5.999 v 0 c -0.262,-0.916 -0.098,-1.177 0.886,-1.235 v 0 c 1.552,-0.092 3.02,-0.491 4.806,-1.729 v 0 c -2.001,0.125 -3.397,0.227 -4.797,0.299 v 0 c -3.029,0.155 -5.814,-0.644 -8.489,-1.855 v 0 c -0.768,-0.349 -1.511,-0.729 -2.428,-0.524 v 0 c 1.302,2.443 3.907,2.998 6.366,3.572 v 0 c 1.345,0.315 2.05,0.754 2.171,2.104 v 0 c 0.117,1.293 0.913,2.346 1.671,3.366 v 0 c 1.115,1.504 0.876,2.878 -0.454,4.263 v 0 c -1.317,1.373 -2.797,2.557 -4.421,3.595 v 0 c -0.423,0.786 0.09,0.573 0.53,0.44 v 0 c 2.655,-0.791 4.624,-2.442 6.244,-4.523 v 0 c 0.408,-0.526 0.614,-1.113 1.619,-0.706 v 0 c 3.443,1.394 6.965,0.871 10.489,-0.146 v 0 c 0.454,-0.131 1.64,-1.281 1.679,0.218 v 0 c 0.032,1.236 2.578,2.525 -0.174,3.779 v 0 c -3.069,1.4 -6.036,0.988 -8.999,-0.017 v 0 c -0.678,-0.3 0.461,-1.014 -0.183,-1.192 v 0 c -0.531,-0.147 -1.235,-0.153 -1.413,0.662 v 0 c 0.213,0.38 0.469,0.727 0.675,1.103 v 0 c 2.822,1.881 6.554,1.592 9.411,3.311 v 0 c 0.302,0.181 0.66,0.279 1.322,0.551 v 0 c -5.443,2.385 -10.508,3.542 -15.597,0.413 v 0 c 0.752,-1.023 2.002,-1.491 2.693,-3.062 v 0 c -5.309,2.755 -10.557,5.322 -16.038,5.323 v 0 c -2.532,0 -5.112,-0.548 -7.773,-1.878 m 8,-1.929 c 0.003,0.007 0.009,0.008 0.012,0.016 v 0 c 0.142,0.267 0.445,-0.002 0.136,-0.017 v 0 c -0.012,0 -0.025,0 -0.037,0 v 0 c -0.037,0 -0.074,10e-4 -0.111,10e-4"
         id="path3597" />
    </clipPath>
    <clipPath
       clipPathUnits="userSpaceOnUse"
       id="clipPath3615">
      <path
         d="M 0,595.276 H 841.89 V 0 H 0 Z"
         id="path3613" />
    </clipPath>
  </defs>
  <metadata
     id="metadata1">
    <rdf:RDF>
      <cc:Work
         rdf:about="">
        <dc:format>image/svg+xml</dc:format>
        <dc:type
           rdf:resource="http://purl.org/dc/dcmitype/StillImage" />
      </cc:Work>
    </rdf:RDF>
  </metadata>
  <g
     id="layer3">
    <g
       id="g3457"
       transform="matrix(1.1038449,0,0,-1.1038449,144.97123,134.23982)"
       clip-path="url(#clipPath2)"
       style="display:inline">
      <path
         d="m 0,0 c 0,0 28.61,-8.011 26.321,-15.449 -2.289,-7.439 -57.241,-23.766 -58.936,-24.033 -7.915,-1.243 -15.315,-0.957 -40.491,15.064 -25.177,16.022 -43.398,24.027 -48.065,28.25 -11.444,10.354 -12.198,17.075 0.391,21.652 12.588,4.578 62.416,6.559 62.416,6.559 z"
         style="fill:#32245c;fill-opacity:1;fill-rule:nonzero;stroke:none"
         id="path3459" />
    </g>
    <g
       id="g3461"
       transform="matrix(1.1038449,0,0,-1.1038449,17.074871,72.625069)"
       clip-path="url(#clipPath1)"
       style="display:inline">
      <path
         d="m 0,0 c 0,0 -7.916,-8.322 -2.5,-13.739 -5.416,-2.5 -5.04,-6.255 -1.895,-8.127 3.145,-1.872 -3.122,-2.706 1.053,-6.039 4.175,-3.333 -2.925,-2.5 0,-5.833 2.925,-3.333 6.259,0 6.259,0 0,0 -5.417,-3.75 -2.917,-7.5 2.5,-3.75 7.5,4.573 7.5,4.573 -6.097,-10.839 2.347,-8.021 0,-7.5 3.75,-0.833 8.333,0 8.333,0 0,0 2.916,-6.849 6.666,-3.516 0,0 -1.666,-12.916 6.25,-5.833 -0.417,-3.333 1.666,-5.495 4.166,-2.122 0,-4.128 5,-12.461 9.167,-6.211 0.833,-2.5 2.083,-9.166 5.833,-4.583 0,0 2.083,-7.306 6.666,-1.57 0,0 4.167,-11.997 8.333,-3.247 0,0 1.025,-10.833 6.346,0.833 0,0 0.595,-6.717 6.428,-5.467 5.833,1.25 4.167,6.249 4.167,6.249 0,0 4.166,-8.749 6.249,-2.5 0,0 2.226,-8.698 4.726,-1.615 0,0 8.749,-5 9.166,3.75 0,0 -1.666,-2.003 4.167,2.58 l 2.083,4.543 c 0,0 0,-7.5 5,-4.166 5,3.333 5,5.416 5,5.416 0,0 4.583,-8.292 5.833,0.041 0,0 4.999,-3.75 7.083,2.083 0,0 4.583,-3.333 5.833,0.833 0,0 5.833,-0.417 5.833,3.333 0,0 7.916,3.334 2.916,6.25 -4.999,2.917 -4.999,-2.164 -4.999,-2.164 0,0 12.083,0.833 3.333,6.25 0,0 6.25,6.249 -1.25,7.916 0,0 5.416,0.417 1.25,7.916 0,0 4.166,2.5 0.417,7.084 L 46.248,14.166 Z"
         style="fill:#f2dcd6;fill-opacity:1;fill-rule:nonzero;stroke:none"
         id="path3463" />
    </g>
    <g
       id="g3467"
       clip-path="url(#clipPath3471)"
       style="display:inline;stroke:#9c5cb4;stroke-opacity:1"
       transform="matrix(1.1038449,0,0,-1.1038449,-95.736412,433.38399)">
      <g
         id="g3473"
         transform="translate(255.1092,305.9877)"
         style="stroke:#9c5cb4;stroke-opacity:1">
        <path
           d="m 0,0 c 0,0 -1.25,-5.416 -10.833,-8.333 -9.583,-2.917 -12.916,0 -12.916,0 0,0 7.916,-9.705 -6.666,-2.769 0,0 5.833,-11.814 -6.667,-5.147 0,0 -1.667,-12.083 -11.249,-4.584 0,0 -4.167,-7.824 -7.5,-2.454 0,0 -3.801,-6.545 -5.884,-1.374 0,0 -0.545,5.42 -5.508,2.111 -6.25,-4.167 -0.661,-7.865 1.422,-11.199 2.083,-3.333 -0.132,-2.916 -0.965,-6.666 -0.833,-3.75 1.667,-6.25 1.667,-6.25 l -1.708,-4.634 -5.829,-8.333 c 0,0 -76.942,8.618 -78.192,10.701 -1.249,2.083 -22.082,33.526 -22.082,38.109 v 34.571 l 34.165,22.083 h 22.499 z"
           style="fill:#9c5cb4;fill-opacity:1;fill-rule:nonzero;stroke:#9c5cb4;stroke-opacity:1"
           id="path3475" />
      </g>
    </g>
    <g
       id="g3479"
       clip-path="url(#clipPath3483)"
       transform="matrix(1.1038449,0,0,-1.1038449,-95.736412,433.38399)"
       style="display:inline">
      <g
         id="g3485"
         transform="translate(115.7095,306.3305)">
        <path
           d="M 0,0 C -0.071,0.12 -0.224,0.161 -0.345,0.091 -0.364,0.08 -2.253,-0.986 -3.487,-0.182 -4.448,0.445 -4.815,2.111 -4.549,4.639 -4.536,4.767 -4.621,4.885 -4.746,4.913 -4.877,4.942 -5,4.871 -5.042,4.749 -5.108,4.557 -6.653,0.04 -4.954,-1.336 c 0.325,-0.263 0.73,-0.394 1.219,-0.394 0.914,0 2.122,0.459 3.648,1.384 C 0.032,-0.274 0.07,-0.12 0,0"
           style="fill:#32245c;fill-opacity:1;fill-rule:nonzero;stroke:none"
           id="path3487" />
      </g>
      <g
         id="g3489"
         transform="translate(135.6903,291.7778)">
        <path
           d="m 0,0 c -0.125,0.062 -0.276,0.013 -0.339,-0.111 -0.01,-0.02 -1.014,-1.942 -2.487,-1.939 -1.147,0.002 -2.362,1.2 -3.515,3.465 C -6.4,1.53 -6.535,1.583 -6.656,1.538 -6.78,1.491 -6.845,1.365 -6.814,1.239 c 0.048,-0.197 1.211,-4.827 3.386,-5.056 0.415,-0.044 0.826,0.066 1.237,0.333 0.767,0.497 1.529,1.54 2.306,3.146 C 0.176,-0.213 0.124,-0.062 0,0"
           style="fill:#32245c;fill-opacity:1;fill-rule:nonzero;stroke:none"
           id="path3491" />
      </g>
      <g
         id="g3493"
         transform="translate(159.9864,285.2687)">
        <path
           d="m 0,0 c -0.096,0.101 -0.254,0.107 -0.356,0.011 -0.016,-0.015 -1.609,-1.48 -2.99,-0.973 -1.075,0.394 -1.809,1.936 -2.122,4.461 -0.016,0.128 -0.126,0.224 -0.254,0.223 -0.133,-10e-4 -0.237,-0.098 -0.25,-0.227 -0.021,-0.201 -0.5,-4.954 1.462,-5.913 0.375,-0.183 0.798,-0.22 1.274,-0.11 0.887,0.206 1.956,0.926 3.23,2.171 C 0.093,-0.26 0.096,-0.101 0,0"
           style="fill:#32245c;fill-opacity:1;fill-rule:nonzero;stroke:none"
           id="path3495" />
      </g>
      <g
         id="g3497"
         transform="translate(174.621,268.0779)">
        <path
           d="m 0,0 c -0.13,0.049 -0.275,-0.015 -0.325,-0.146 -0.008,-0.02 -0.8,-2.034 -2.263,-2.183 -1.139,-0.115 -2.473,0.951 -3.859,3.084 -0.07,0.109 -0.21,0.147 -0.325,0.091 -0.119,-0.06 -0.17,-0.192 -0.126,-0.314 0.069,-0.191 1.717,-4.675 3.901,-4.679 0.417,-10e-4 0.813,0.151 1.193,0.458 0.708,0.573 1.354,1.688 1.954,3.365 C 0.197,-0.194 0.13,-0.049 0,0"
           style="fill:#32245c;fill-opacity:1;fill-rule:nonzero;stroke:none"
           id="path3499" />
      </g>
      <g
         id="g3501"
         transform="translate(201.474,270.5872)">
        <path
           d="m 0,0 c -0.13,0.049 -0.275,-0.015 -0.325,-0.146 -0.008,-0.02 -0.8,-2.034 -2.263,-2.183 -1.139,-0.115 -2.473,0.951 -3.859,3.084 -0.07,0.109 -0.21,0.147 -0.325,0.091 -0.119,-0.06 -0.17,-0.192 -0.126,-0.314 0.069,-0.191 1.717,-4.675 3.901,-4.679 0.417,-10e-4 0.813,0.151 1.193,0.458 0.708,0.573 1.354,1.688 1.954,3.365 C 0.197,-0.194 0.13,-0.049 0,0"
           style="fill:#32245c;fill-opacity:1;fill-rule:nonzero;stroke:none"
           id="path3503" />
      </g>
      <g
         id="g3505"
         transform="translate(239.2392,284.3161)">
        <path
           d="m 0,0 c -0.13,0.049 -0.275,-0.015 -0.325,-0.146 -0.008,-0.02 -0.8,-2.034 -2.263,-2.183 -1.139,-0.115 -2.473,0.951 -3.859,3.084 -0.07,0.109 -0.21,0.147 -0.325,0.091 -0.119,-0.06 -0.17,-0.192 -0.126,-0.314 0.069,-0.191 1.717,-4.675 3.901,-4.679 0.417,-10e-4 0.813,0.151 1.193,0.458 0.708,0.573 1.354,1.688 1.954,3.365 C 0.197,-0.194 0.13,-0.049 0,0"
           style="fill:#32245c;fill-opacity:1;fill-rule:nonzero;stroke:none"
           id="path3507" />
      </g>
      <g
         id="g3509"
         transform="translate(222.8845,274.8259)">
        <path
           d="m 0,0 c -0.135,-0.034 -0.218,-0.169 -0.184,-0.305 0.005,-0.021 0.5,-2.128 -0.618,-3.082 -0.871,-0.744 -2.575,-0.626 -4.929,0.339 -0.12,0.049 -0.257,10e-4 -0.319,-0.111 -0.064,-0.117 -0.031,-0.254 0.075,-0.329 0.166,-0.118 4.072,-2.867 5.871,-1.627 0.343,0.236 0.583,0.586 0.72,1.055 0.256,0.874 0.153,2.159 -0.308,3.879 C 0.272,-0.047 0.135,0.034 0,0"
           style="fill:#32245c;fill-opacity:1;fill-rule:nonzero;stroke:none"
           id="path3511" />
      </g>
      <g
         id="g3513"
         transform="translate(104.2604,344.8518)">
        <path
           d="m 0,0 c 0.829,0.722 0.679,1.485 0.68,2.346 0.005,5.452 0.92,10.752 5.016,14.812 2.999,2.971 6.527,5.46 9.176,8.719 0.783,0.963 2.082,1.55 3.397,1.82 2.173,0.447 3.908,1.09 4.388,3.455 0.255,1.259 1.52,2.129 2.816,2.697 1.565,0.686 2.943,1.6 4.221,2.643 3.548,2.899 7.698,4.235 12.512,3.85 1.068,-0.086 2.04,-0.067 2.893,0.696 2.96,2.647 6.696,3.564 10.698,4.054 3.3,0.404 6.599,-0.877 9.842,-0.061 3.971,1 7.968,0.47 11.825,-1.046 1.266,-0.498 2.473,-0.644 3.782,-0.654 4.549,-0.034 8.679,-1.414 12.027,-4.594 1.155,-1.097 2.343,-1.726 3.812,-2.108 6.785,-1.768 11.834,-5.593 14.656,-12.021 0.32,-0.729 0.755,-1.115 1.469,-1.453 4.932,-2.33 8.958,-5.699 11.936,-10.233 0.364,-0.554 0.83,-0.903 1.345,-1.289 5.83,-4.372 9.313,-10.113 10.368,-17.272 0.129,-0.876 0.019,-1.716 0.718,-2.502 2.716,-3.057 3.346,-6.75 2.724,-10.657 -0.259,-1.623 -0.219,-3.144 0.155,-4.698 0.88,-3.667 0.557,-7.242 -0.902,-10.734 -0.521,-1.246 -1.194,-2.525 -2.614,-2.675 -1.254,-0.133 -1.403,-0.892 -1.571,-1.783 -0.504,-2.676 -2.062,-4.56 -4.457,-5.688 -2.763,-1.302 -5.546,-2.641 -8.643,-3.046 -2.34,-0.306 -4.446,-1.142 -6.357,-2.689 -1.623,-1.314 -3.631,-1.976 -5.632,-2.577 -2.166,-0.65 -4.448,-0.324 -6.602,-0.782 -3.585,-0.761 -6.739,-0.528 -10.05,1.198 -3.025,1.576 -6.948,-1.096 -10.168,0.95 -0.123,0.078 -0.261,0.136 -0.39,0.206 -1.159,0.625 -2.415,0.667 -3.716,0.468 -4.848,-0.742 -9.22,0.444 -13.07,3.203 -1.425,1.021 -2.763,1.731 -4.295,1.368 -4.448,0.083 -8.364,0.973 -11.788,3.306 -1.534,1.045 -3.182,1.491 -5.108,1.51 -3.796,0.038 -7.862,-10e-4 -11.085,1.915 -3.275,1.946 -6.8,2.267 -10.424,2.908 -5.92,1.046 -10.716,3.571 -12.353,9.458 -0.207,0.743 -0.705,1.141 -1.385,1.546 -6.88,4.095 -10.685,10.073 -12.124,17.351 C -2.863,-5.126 -2.541,-2.214 0,0"
           style="fill:#2b4a8e;fill-opacity:1;fill-rule:nonzero;stroke:none"
           id="path3515" />
      </g>
      <g
         id="g3517"
         transform="translate(164.3511,311.4529)">
        <path
           d="m 0,0 c -0.197,0.5 -0.769,1.109 -0.202,1.641 0.58,0.544 1.322,0.653 2.156,0.362 2.757,-0.959 5.519,-1.865 8.267,-2.763 0.776,-0.253 1.331,-0.743 1.693,-1.393 1.555,-2.791 4.199,-4.17 7.202,-4.813 1.77,-0.379 2.712,-0.9 1.706,-3.427 0.813,0.933 1.117,1.312 1.453,1.662 1.742,1.809 2.739,1.929 4.791,0.505 1.638,-1.136 3.48,-1.815 5.352,-2.371 0.282,-0.683 -0.763,-1.192 -0.324,-2.009 1.573,1.159 2.787,2.615 4.661,3.045 0.574,0.261 1.193,0.127 1.783,0.234 0.097,-0.032 0.184,-0.072 0.267,-0.114 1.081,0.884 2.332,0.111 3.483,0.271 1.246,-0.239 1.699,-1.377 2.51,-2.108 0.657,-0.593 1.107,-1.607 2.586,-1.245 -2.188,1.04 -2.359,3.091 -3.093,4.814 -0.053,0.722 -0.452,1.995 0.462,1.898 0.871,-0.092 1.505,0.342 2.256,0.301 0.321,-0.016 0.885,0.423 0.666,-0.476 -0.248,-1.017 0.05,-1.94 0.859,-2.776 0.404,2.122 0.656,4.229 3.233,4.591 1.887,0.265 3.971,-1.397 4.481,-3.403 1.124,-4.417 -1.624,-8.907 -6.132,-9.887 -3.667,-0.797 -6.808,0.003 -9.096,3.073 -0.394,0.193 -0.602,0.486 -0.696,0.84 -0.116,-0.865 -0.293,-1.737 0.319,-2.507 0.5,-0.636 1,-1.272 1.557,-1.979 -1.05,-0.379 -2.22,-0.523 -2.848,-0.112 -3.632,2.373 -7.787,1.825 -11.909,2.098 -3.521,0.233 -5.831,2.806 -7.951,5.642 -0.233,-1.922 1.081,-3.048 1.772,-4.432 -7.508,-1.191 -13.611,1.919 -15.78,7.897 -0.45,1.241 -0.664,2.132 1.12,2.5 0.953,0.196 1.889,0.667 2.491,1.679 C 7.892,-2.953 6.783,-3.188 5.66,-3.296 2.992,-3.555 0.935,-2.37 0,0"
           style="fill:#496bbd;fill-opacity:1;fill-rule:nonzero;stroke:none"
           id="path3519" />
      </g>
      <g
         id="g3521"
         transform="translate(116.9279,362.6364)">
        <path
           d="m 0,0 c -0.102,-4.321 0.268,-6.103 1.917,-9 1.087,2.739 1.063,6.142 5.267,7.02 -0.044,-1.491 0.11,-2.763 -0.153,-3.944 -0.757,-3.403 -0.328,-5.988 3.374,-8.264 2.764,-1.7 4.013,-5.127 6.722,-7.173 0.844,-0.638 0.327,-1.239 -0.353,-1.653 -1.025,-0.624 -2.178,-0.649 -3.354,-0.402 -3.032,0.638 -5.342,2.189 -6.816,4.771 -0.488,0.293 -0.731,0.711 -0.778,1.241 -0.082,0.061 -0.185,0.177 -0.025,0.259 0.293,0.148 -0.21,-0.081 -0.058,0.192 0.153,0.273 -0.092,0.119 -0.122,-0.189 -0.052,-0.545 0.161,-1.067 0.207,-1.603 0.077,-0.3 0.199,-0.59 0.265,-0.893 0.805,-2.8 3.059,-4.438 5.841,-4.922 2.687,-0.469 4.455,-1.005 3.723,-3.944 -0.055,-0.223 0.376,-0.554 0.605,-0.869 0.073,0.203 0.151,0.342 0.173,0.488 0.928,6.194 3.176,8.319 9.641,9.208 0.507,0.069 0.92,0.262 1.188,-0.34 0.871,-1.954 2.397,-3.407 4.014,-4.837 0.956,-0.847 0.666,-2.235 0.434,-3.241 -0.154,-0.671 -1.423,-0.124 -2.182,-0.108 -2.306,0.048 -4.455,-0.231 -6.174,-1.977 1.276,-0.507 2.166,0.284 3.169,0.45 5.517,0.911 12.313,-2.368 9.543,-9.401 -0.277,-0.703 -0.482,-1.43 -0.723,-2.146 -1.717,-5.098 -1.717,-5.098 -7.041,-3.922 0.419,-1.414 1.476,-2.314 2.648,-3.089 2.251,-1.488 3.155,-3.801 2.507,-6.229 -0.238,-0.892 -0.695,-0.571 -1.216,-0.43 -5.43,1.473 -9.892,7.057 -9.781,12.262 0.043,2.014 0.539,3.746 2.741,4.672 2.292,0.963 3.156,-0.765 4.345,-1.907 0.044,-0.042 0.156,-0.023 0.45,-0.058 -0.83,2.375 -0.585,4.715 -0.278,7.347 -0.789,-3.388 -4.055,-3.376 -6.399,-4.671 -1.846,-1.021 -3.464,-1.069 -5.338,-0.366 -3.053,1.144 -4.927,3.265 -6.05,6.07 -0.537,1.341 -0.523,2.774 -0.959,4.163 -0.935,-1.692 -0.661,-3.499 -0.507,-5.289 -3.592,0.381 -7.398,1.807 -9.824,3.643 -3.518,2.664 -4.504,5.688 -3.017,9.605 1.232,3.248 3.518,5.802 6.664,7.955 -4.442,-0.152 -6.248,-2.077 -8.673,-8.961 C -10.939,-14.673 -6.265,-1.649 0,0"
           style="fill:#3e7cab;fill-opacity:1;fill-rule:nonzero;stroke:none"
           id="path3523" />
      </g>
      <g
         id="g3525"
         transform="translate(222.8075,310.399)">
        <path
           d="m 0,0 c 2.285,1.814 4.248,3.954 5.54,6.598 1.597,3.268 0.998,5.785 -1.876,7.912 -0.622,0.46 -1.17,0.824 -1.339,1.721 -0.373,1.977 -1.404,3.633 -2.799,5.116 -1.534,1.63 -1.375,3.045 0.376,4.485 0.587,0.484 1.259,0.865 2.05,1.398 -2.307,0.127 -3.78,-0.828 -4.775,-2.633 -0.795,0.044 -0.534,0.51 -0.379,0.934 0.454,1.313 0.909,2.626 1.362,3.938 -0.789,-0.309 -1.224,-0.817 -1.599,-1.367 -0.254,-0.373 -0.403,-0.651 -0.971,-0.378 -3.136,1.503 -3.789,3.652 -1.86,6.525 0.52,0.774 1.172,1.478 1.858,2.11 0.4,0.369 0.311,0.511 -0.055,0.739 -0.033,0.002 -0.052,0.069 -0.058,0.201 -0.002,0.053 0.01,0.103 0.031,0.151 -0.771,-0.088 -0.632,1.536 -1.677,0.935 -0.58,0.505 -0.712,1.429 -1.696,1.703 0.235,-0.939 0.517,-1.818 0.669,-2.715 0.458,-2.709 -0.69,-4.068 -3.434,-4.121 -1.893,-0.037 -3.052,1.095 -4.028,2.539 -1.222,1.809 -1.63,4.04 -3.078,5.738 -0.933,1.094 -0.655,2.058 0.031,3.122 0.997,1.549 2.563,2.412 4.6,3.509 -3.201,-0.185 -3.79,0.096 -5.367,2.181 -0.162,0.214 -0.41,0.365 -0.618,0.546 0.612,-2.251 0.318,-4.337 -0.505,-6.355 -0.134,-0.327 -0.046,-0.982 -0.954,-0.691 -4.228,1.357 -7.676,3.521 -9.068,8.034 -0.787,2.552 -1.889,5.009 -3.624,7.121 -1.12,1.365 -0.247,1.685 0.774,1.803 1.383,0.162 2.803,0.087 4.202,0.113 -0.461,0.229 -0.951,0.686 -1.378,0.65 -4.296,-0.359 -8.107,1.453 -12.001,3.078 -0.136,0.057 -0.306,0.067 -0.453,0.052 -2.495,-0.253 -4.226,1.193 -6.193,2.753 5.197,1.906 10.023,1.581 14.523,-1.464 2.091,-1.415 3.93,-3.228 6.32,-3.951 0.571,0.135 1.312,-0.235 1.955,-0.319 1.211,-0.22 1.832,-1.199 2.55,-2.013 1.106,-1.254 1.424,-2.331 -0.489,-3.154 -0.882,-0.379 -1.451,-1.585 -2.328,-1.771 -0.958,-0.203 -1.402,1.511 -2.965,1.603 0.796,-1.13 1.49,-2.021 2.076,-2.971 0.615,-0.996 1.128,-2.05 1.684,-3.076 0.309,-0.318 0.51,-0.698 0.492,-1.119 -0.002,-0.055 0.226,-0.145 0.088,0.158 -0.284,0.432 0.155,0.927 -0.09,1.396 -0.026,0.651 -0.127,1.312 -0.062,1.952 0.222,2.21 3.936,4.304 5.847,3.165 3.448,-2.055 6.461,-4.568 8.307,-8.211 0.627,-1.237 0.734,-2.214 -0.361,-3.233 -1.177,-1.096 -1.674,-2.564 -1.661,-4.275 3.492,4.669 5.401,4.932 8.578,1.274 0.137,-0.66 0.38,-1.248 1.066,-1.532 0.135,-0.072 0.178,-0.18 0.129,-0.324 0.086,-0.594 0.207,-1.183 0.321,-1.77 0.051,-0.267 0.015,-0.444 -0.079,-0.542 0.35,-0.243 0.666,-0.535 1.01,-0.784 0.582,-0.752 0.372,-1.161 -0.484,-1.495 -0.825,-0.322 -1.712,-0.678 -1.939,-1.72 -0.089,-0.395 -0.293,-0.885 0.476,-0.575 1.625,1.342 3.236,1.038 4.832,-0.102 2.65,-1.893 3.307,-4.67 3.274,-7.644 -0.023,-1.985 -0.343,-3.965 -0.531,-5.946 0.586,0.583 0.841,1.272 1.121,1.95 0.149,0.359 0.182,0.782 0.808,0.73 C 7.549,21.566 9.137,19.263 9.6,17.047 9.995,15.159 8.822,15.065 7.591,14.807 7.314,14.75 6.951,14.56 6.956,14.131 11.551,14.078 12.862,11.975 11.052,7.707 9.706,4.532 7.334,2.355 4.451,0.618 4.204,0.218 3.846,-0.025 3.38,-0.138 3.331,-0.16 3.277,-0.114 3.257,-0.174 c 0.045,-0.002 0.107,0.002 0.184,0.015 0.184,0.031 0.361,0.086 0.534,0.154 0.44,0.151 0.932,-0.141 1.353,0.179 2.215,1.065 3.863,-0.405 5.769,-1.447 C 10.826,0.02 10.153,0.673 9.372,1.211 8.875,1.554 8.406,1.749 9.134,2.387 c 1.382,1.213 2.319,2.754 3.1,4.406 0.553,1.17 1.244,0.939 1.784,0.024 0.303,-0.515 0.514,-1.134 0.591,-1.732 0.414,-3.219 -0.393,-6.118 -2.525,-8.62 0.62,-0.543 1.139,0.533 1.723,0.078 C 12.231,-6.902 10.162,-8.07 6.243,-7.726 4.946,-8.813 7.402,-8.55 6.827,-9.348 5.326,-10.06 3.752,-10.31 2.177,-10.587 c -1.594,-0.281 -2.839,-0.135 -2.212,1.977 0.212,0.715 -0.804,1.817 0.464,2.114 1.93,0.451 3.891,1.285 5.868,0.315 1.311,0.111 2.681,0.09 3.375,1.658 C 8.41,-4.298 7.166,-5.231 6.046,-4.481 5.932,-3.738 7.152,-3.644 6.625,-2.706 5.293,-3.396 3.997,-4.169 2.621,-4.753 1.334,-5.299 -0.27,-5.548 -0.954,-4.145 -1.617,-2.787 -1.538,-1.22 0,0"
           style="fill:#496bbd;fill-opacity:1;fill-rule:nonzero;stroke:none"
           id="path3527" />
      </g>
      <g
         id="g3529"
         transform="translate(147.4472,379.0048)">
        <path
           d="M 0,0 C -0.049,-0.002 -0.099,0 -0.149,0.001 -0.145,0.007 -0.14,0.008 -0.136,0.016 0.006,0.283 0.308,0.014 0,0 m 7.672,-56.227 c -3.597,-4.704 -3.319,-9.692 -0.905,-14.692 2.225,-4.609 6.687,-5.652 11.417,-6.17 1.132,-0.124 1.566,0.213 1.418,1.324 -0.15,1.128 -0.349,2.136 -1.478,2.832 -1.245,0.768 -2.233,1.822 -2.924,3.101 -0.484,0.895 -3.99,3.469 -5.379,3.699 3.118,1.042 5.97,1.948 6.71,5.126 0.316,0.702 0.133,1.449 0.229,2.171 0.052,0.391 0.142,0.738 0.696,0.502 0.137,-0.153 0.274,-0.306 0.41,-0.46 0.13,-0.502 0.274,-1.002 0.385,-1.508 0.266,-1.209 -0.607,-2.81 1.266,-3.461 2.294,-0.797 4.676,-1.025 7.081,-0.859 0.714,0.05 0.519,0.8 0.67,1.256 0.405,1.226 0.551,2.572 2.115,3.751 -0.545,-1.865 -0.9,-3.342 -0.684,-4.884 0.751,-5.363 5.457,-8.563 10.947,-7.57 1.3,0.235 0.634,0.804 0.512,1.337 -0.546,2.401 -0.673,4.706 1.82,6.78 -0.341,-1.635 -0.941,-2.873 -0.764,-4.251 0.606,-4.697 4.011,-7.439 8.87,-7.05 2.779,0.222 5.468,1.279 8.429,0.816 -0.4,1.548 -1.013,2.856 -2.286,4.383 1.521,-0.302 2.575,-0.523 3.632,-0.717 2.238,-0.413 4.442,-0.354 6.587,0.504 1.377,0.551 2.785,0.787 4.144,0.137 0.775,-0.37 1.099,-0.207 1.406,0.568 1.375,3.471 -1.22,7.151 -4.969,6.973 -1.682,-0.08 -2.354,-0.968 -3.068,-4.136 -0.883,0.881 -1.678,1.776 -2.58,2.555 -2.109,1.823 -4.594,2.338 -7.318,1.571 -2.269,-0.639 -3.436,-2.323 -3.431,-4.518 0.002,-1.411 -0.435,-1.786 -1.708,-1.56 -0.798,0.141 -1.528,-0.546 -2.537,-0.145 1.118,1.313 3.248,1.779 3.183,3.867 -0.015,0.481 0.217,0.937 0.005,1.465 -1.148,2.861 -5.438,5.888 -8.309,5.794 -3.152,-0.103 -5.427,-2.133 -6.826,-6.096 -0.039,-0.107 -0.178,-0.183 -0.403,-0.404 -0.284,1.489 -0.194,2.829 0.34,4.116 0.553,1.334 0.153,2.384 -0.756,3.418 -2.464,2.802 -5.592,4.193 -9.653,4.05 1.245,1.116 2.627,0.821 3.874,0.83 1.301,0.01 1.999,0.575 2.372,1.665 0.569,1.665 1.123,3.333 1.682,4.998 v 0 c 1.067,1.859 2.476,3.44 4.182,4.754 1.139,0.876 1.185,1.873 0.577,3.075 -1.364,2.694 -3.602,4.157 -6.67,4.281 -3.247,0.131 -5.776,-1.085 -7.181,-4.033 -0.732,-0.086 -0.732,-0.086 -0.467,0.927 0.524,1.983 2.11,3.061 3.878,3.768 4.093,1.636 6.926,4.255 8.248,8.379 0.44,1.373 1.228,2.723 2.527,3.497 1.277,0.762 1.29,1.445 0.366,2.515 -1.122,1.301 -1.93,2.859 -3.405,3.886 -4.176,4.5 -9.271,6.845 -15.532,5.866 -3.457,-0.541 -5.443,-2.796 -6.361,-5.999 -0.263,-0.916 -0.098,-1.177 0.886,-1.235 1.552,-0.092 3.019,-0.491 4.806,-1.729 -2.001,0.126 -3.397,0.227 -4.797,0.299 -3.029,0.156 -5.814,-0.644 -8.489,-1.855 -0.769,-0.348 -1.511,-0.729 -2.428,-0.524 1.303,2.442 3.907,2.998 6.366,3.573 1.345,0.314 2.05,0.753 2.172,2.104 0.116,1.292 0.912,2.344 1.67,3.366 1.115,1.503 0.876,2.876 -0.454,4.262 -1.318,1.374 -2.797,2.556 -4.42,3.595 -0.424,0.786 0.089,0.574 0.529,0.44 2.656,-0.791 4.624,-2.442 6.243,-4.523 0.409,-0.526 0.614,-1.113 1.62,-0.706 3.443,1.394 6.964,0.872 10.488,-0.145 0.455,-0.132 1.641,-1.282 1.68,0.217 0.032,1.236 2.579,2.525 -0.174,3.78 -3.069,1.399 -6.036,0.987 -8.999,-0.017 -0.678,-0.301 0.46,-1.015 -0.183,-1.193 -0.532,-0.147 -1.235,-0.153 -1.412,0.662 0.211,0.381 0.468,0.727 0.673,1.103 2.823,1.881 6.555,1.592 9.412,3.311 0.302,0.181 0.661,0.279 1.321,0.551 C 23.124,3.519 18.058,4.675 12.969,1.546 13.722,0.523 14.971,0.055 15.663,-1.516 7.901,2.512 0.272,6.138 -8.148,1.929 c -0.65,-1.593 0.289,-1.704 1.583,-1.481 0.929,-0.051 1.857,-0.102 2.783,-0.153 1.143,0.528 2.244,-0.26 3.342,-0.264 0.004,-0.007 0.011,-0.015 0.018,-0.024 -0.286,0.017 -0.576,0.044 -0.863,0.012 -0.208,-0.06 -0.394,-0.153 -0.557,-0.281 -2.9,-0.543 -5.53,-1.604 -7.499,-3.689 -0.765,-0.811 -1.166,-0.548 -1.915,0.073 -1.539,1.276 -3.252,1.684 -4.934,0.412 -1.888,-1.428 -1.594,-2.967 0.698,-3.899 0.764,-0.31 1.581,-0.541 2.063,-1.262 0.194,-0.375 0.333,-0.785 0.774,-1.006 -0.476,0.217 -0.977,0.365 -1.492,0.463 -1.998,0.72 -4.058,1.089 -6.16,0.839 -5.705,-0.676 -8.292,-4.161 -7.389,-9.809 5.155,0.13 4.735,5.086 7.786,7.746 -1.1,-4.472 -1.676,-8.513 -1.029,-12.694 1.015,-6.559 4.93,-10.802 11.176,-11.914 3.146,-0.559 4.426,0.397 4.591,3.367 0.109,1.973 -0.377,3.765 -1.716,5.38 -0.501,0.606 -0.898,1.3 -1.262,1.99 -2.539,4.813 -4.796,5.674 -10.264,3.625 1.193,1.683 2.505,2.893 4.36,3.355 1.446,0.361 2.234,1.091 3.005,2.263 1.808,2.749 3.666,5.481 5.945,7.899 0.291,0.309 0.496,0.771 1.401,0.645 -0.646,-1.04 -1.239,-1.994 -2.049,-3.299 3.964,1.598 7.601,2.058 11.373,0.628 C 5.534,-10.367 4.58,-9.554 4.062,-9.624 3.154,-9.748 2.195,-9.385 1.265,-9.61 c -4.027,-0.313 -7.647,-1.389 -9.214,-5.256 -1.542,-3.805 -0.362,-7.312 2.384,-10.43 2.101,-2.385 2.235,-2.353 4.412,-0.169 0.373,0.254 0.746,0.507 1.118,0.761 0.344,0.799 0.728,1.545 1.903,1.252 1,0.447 1.525,1.286 2.011,2.157 0.159,0.531 0.538,0.803 1.124,0.832 0.575,-0.107 0.902,0.297 1.311,0.531 0.632,0.153 1.131,0.898 1.925,0.324 -0.027,-0.269 1.182,0.116 0.359,-0.535 -1.012,-0.799 -2.42,-1.126 -3.201,-2.374 0.627,-0.543 1.359,-0.444 2.087,-0.358 0.814,-0.391 1.755,-0.044 2.559,-0.47 0.611,-0.249 1.222,-0.497 1.832,-0.745 -0.234,-1.153 -0.981,-0.294 -1.508,-0.304 -1.665,0.069 -3.328,0.255 -5.006,0.007 -4.435,-0.657 -7.237,-2.973 -7.729,-6.513 -0.571,-4.11 1.767,-8.034 5.96,-9.85 0.406,2.467 0.728,4.961 2.711,7.037 0.719,-1.132 -0.073,-1.878 -0.285,-2.628 -1.456,-5.151 -1.125,-10.081 1.893,-14.756 1.154,-1.789 2.555,-2.068 4.368,-1.011 2.015,1.175 3.117,3.098 4.465,4.813 0.372,0.474 0.069,0.805 -0.192,1.191 -0.847,1.253 -1.628,2.552 -2.512,3.788 -2.486,3.477 -2.223,8.877 1.314,11.148 4.079,2.619 3.31,6.195 0.288,9.51 -0.522,0.572 -1.114,1.088 -1.675,1.631 -0.111,0.197 -0.217,0.399 -0.439,0.514 0.337,0.248 0.683,0.046 1.027,-0.014 0.626,-0.315 1.295,-0.57 1.866,-0.957 0.822,-0.557 1.736,-1.82 2.318,-1.695 1.283,0.276 2.424,1.171 3.541,1.918 1.047,0.701 1.29,1.711 0.859,2.935 -0.306,0.869 -0.704,1.667 -1.34,2.352 -0.619,0.666 -1.272,1.304 -2.202,2.252 2.239,-0.268 3.427,-1.424 4.4,-2.741 2.32,-3.141 3.373,-3.288 6.516,-0.742 v 0 c 0.612,-0.052 1.131,-0.154 0.534,-0.869 -0.833,-0.996 -1.792,-1.852 -2.929,-2.539 -1.144,-0.691 -0.109,-0.716 0.357,-0.901 0.498,-0.519 1.164,-0.637 1.8,-0.751 -0.206,-0.022 -0.37,0.079 -0.557,0.077 -0.896,0.262 -1.77,0.123 -2.646,10e-4 -0.538,-0.033 -1.08,-0.036 -1.613,-0.103 -4.756,-0.593 -5.647,-1.557 -6.127,-6.622 -0.504,-1.176 0.383,-1.127 1.166,-1.243 0.875,-0.129 1.818,0.204 2.619,-0.397 0.036,-0.027 0.038,-0.128 0.018,-0.181 -0.024,-0.064 -0.089,-0.113 -0.137,-0.168 -5.644,-0.441 -8.965,-3.526 -8.733,-8.149 0.135,-2.71 1.519,-4.497 4.023,-5.209 2.319,-0.66 4.414,0.152 6.059,2.231 0.492,0.622 0.563,1.539 1.53,1.978 0.119,-1.284 -0.286,-2.347 -0.829,-3.382 0.72,-0.573 1.506,-0.618 2.365,-0.359 0.742,0.225 1.497,0.193 2.441,-0.166 0.083,-0.025 -0.337,-0.425 -0.206,-0.16 0.026,0.053 -0.014,0.077 -0.091,0.12 -1.336,0.738 -2.492,0.094 -3.671,-0.402 -0.323,-0.144 -0.646,-0.289 -0.97,-0.434 -4.894,-0.966 -7.221,-3.49 -7.286,-7.792 -0.02,-1.359 0.35,-2.46 1.431,-3.373 0.491,-0.415 1.217,-0.783 0.901,-1.63 v 0 c 0,0 0,0 0,0 -1.553,0.988 -3.1,1.978 -4.938,2.51 -3.058,0.884 -5.514,0.293 -7.352,-2.109"
           style="fill:#5dc5c2;fill-opacity:1;fill-rule:nonzero;stroke:none"
           id="path3531" />
      </g>
      <g
         id="g3533"
         transform="translate(186.0369,382.071)">
        <path
           d="M 0,0 C -0.522,-0.189 -1.163,-0.212 -1.803,-0.304 -1.181,-0.183 -0.579,-0.068 0,0 m 54.743,-57.108 c 2.381,2.444 1.957,7.46 -0.942,10.345 -0.505,-3.123 -1.488,-6.016 -3.387,-8.987 -0.356,3.22 0.273,6.19 -0.804,8.974 -0.136,2.215 -1.421,3.98 -2.314,5.904 -0.165,0.548 0.112,0.539 0.493,0.397 0.544,-0.449 0.792,-0.287 0.843,0.386 0.171,2.256 -0.774,4.051 -2.336,5.58 -0.496,0.486 -1.131,0.836 -1.586,1.353 -0.373,0.425 0.228,0.262 0.357,0.397 1.234,-0.619 2.545,-1.099 3.566,-2.179 0.052,3.668 -2.724,5.267 -5.188,7.528 -0.036,-1.02 -0.06,-1.698 -0.105,-2.983 -3.562,8.266 -8.607,14.128 -17.614,15.413 -1.104,-0.196 -1.161,-0.175 -1.325,0.479 0.943,0.364 1.943,0.435 3.182,0.437 -1.606,4.17 -4.513,7.006 -8.295,9.095 -3.793,2.095 -7.88,2.749 -12.602,2.139 1.064,1.422 2.217,1.489 3.455,1.99 -4.28,3.15 -8.652,5.076 -13.843,3.913 -0.781,-0.175 -1.5,-0.629 -1.214,0.777 0.015,0.076 -0.722,0.387 -1.131,0.506 -3.025,0.883 -6.074,1.174 -9.839,0.48 1.138,-0.714 1.932,-1.212 2.724,-1.709 -0.13,-0.224 -0.26,-0.447 -0.391,-0.671 -6.829,2.691 -13.616,4.208 -20.195,-0.471 3.383,-1.258 6.228,-1.959 9.464,-0.83 4.457,1.554 9.152,1.025 13.419,-1.201 2.13,-1.112 3.988,-1.327 6.063,-0.706 0.829,0.049 1.635,0.187 2.413,0.335 -0.54,-0.136 -1.051,-0.377 -1.457,-0.879 0.009,-0.074 0.009,-0.208 0.029,-0.212 5.605,-1.07 10.198,-4.411 15.184,-6.678 1.188,-0.539 2.304,-0.291 3.455,-0.254 0.455,0.105 0.867,0.171 0.47,-0.498 -0.306,-0.368 -1.567,-0.482 -0.365,-1.266 1.06,-0.691 1.809,-1.679 2.702,-2.541 0.831,0.578 1.241,1.623 2.344,1.78 0.312,0.093 0.637,-0.011 0.953,0.02 -0.032,-0.269 -0.347,-0.324 -0.422,-0.56 -2.538,-2.127 -2.485,-2.531 0.473,-4.094 1.948,-1.029 3.839,-2.147 5.332,-3.789 1.172,-1.29 2.698,-1.284 4.183,-1.337 3.181,-0.115 5.613,-1.672 7.629,-4.121 -1.176,0.549 -2.354,1.099 -3.516,1.641 -0.517,-0.556 -0.133,-1.142 -0.184,-1.679 0.226,-0.509 0.058,-0.926 -0.172,-1.326 -0.078,0.175 -0.173,0.34 -0.324,0.474 -1.148,3.234 -2.103,3.94 -4.971,3.487 1.249,-1.735 1.994,-3.683 3.466,-5.183 0.865,-1.472 2.107,-2.154 3.818,-2.17 2.127,-0.019 3.834,-1.137 5.431,-2.452 0.516,-0.426 0.842,-1.164 1.659,-1.143 v 0 0 c -0.542,-1.108 -1.21,-0.466 -1.847,-0.09 -1.573,0.928 -3.205,1.648 -5.189,1.656 1.223,-2.824 2.917,-4.818 6.158,-5.023 -0.069,-0.168 -0.139,-0.337 -0.209,-0.505 -0.694,-0.085 -1.39,-0.17 -2.717,-0.333 2.107,-1.061 1.757,-4.246 4.91,-3.661 -0.292,-1.543 -0.729,-3.025 -0.598,-4.572 0.207,-2.436 1.43,-3.659 3.566,-3.561 0.653,-0.202 0.986,0.627 1.705,0.534 -0.223,-1.484 -1.036,-2.247 -2.549,-2.334 1.576,-2.425 2.195,-5.225 3.979,-7.557 1.897,1.058 1.762,3.054 2.313,5.22 0.737,-1.437 1.315,-2.563 1.893,-3.685"
           style="fill:#5dc5c2;fill-opacity:1;fill-rule:nonzero;stroke:none"
           id="path3535" />
      </g>
      <g
         id="g3537"
         transform="translate(124.2285,326.9981)">
        <path
           d="m 0,0 c 1.012,-0.493 2.022,-0.986 3.229,-1.574 -2.538,-1.802 -3.432,-3.895 -2.35,-6.765 0.312,0.937 0.492,1.656 0.786,2.333 1.492,3.432 4.124,4.023 7.49,2.152 2.804,-1.559 5.045,-3.175 4.787,-6.548 -0.043,-0.566 0.31,-1.168 0.531,-1.735 1.001,-2.569 2.692,-4.777 4.56,-7.459 -6.11,1.953 -9.285,5.943 -11.583,11.469 -0.275,-3.37 1.135,-5.583 2.698,-7.913 -3.58,0.127 -6.756,0.675 -9.669,2.105 -5.35,2.628 -7.032,8.761 -3.765,13.492 -1.625,-0.37 -1.858,-0.661 -3.564,-4.455 -4.239,2.022 -5.779,7.546 -3.411,12.513 C -7.28,4.509 -3.318,2.603 0,0"
           style="fill:#3e7cab;fill-opacity:1;fill-rule:nonzero;stroke:none"
           id="path3539" />
      </g>
      <g
         id="g3541"
         transform="translate(238.8066,323.4154)">
        <path
           d="m 0,0 c 0.175,0.277 0.369,0.543 0.622,0.914 0.862,-1.017 0.85,-2.3 1.419,-3.343 0.655,0.709 0.143,1.711 1.111,2.21 0.89,-3.401 1.606,-6.714 0.113,-10.084 -0.296,-0.67 -0.602,-1.492 -1.431,-1.655 -0.442,-0.087 -0.682,0.445 -0.775,0.826 -0.196,0.802 -0.322,1.543 0.602,2.166 1.109,0.747 1.282,1.911 0.884,3.277 C 2.033,-6.411 1.65,-7.058 1.159,-7.607 0.851,-7.951 0.36,-8.286 0.028,-7.578 -0.668,-6.094 -1.659,-4.657 -1.934,-3.086 -2.142,-1.896 -0.66,-1.046 0,0"
           style="fill:#5dc5c2;fill-opacity:1;fill-rule:nonzero;stroke:none"
           id="path3543" />
      </g>
      <g
         id="g3545"
         transform="translate(108.3346,343.5659)">
        <path
           d="M 0,0 C 2.488,-5.15 2.071,-10.722 3.054,-16.27 -1.985,-11.275 -3.481,-2.649 0,0"
           style="fill:#3e7cab;fill-opacity:1;fill-rule:nonzero;stroke:none"
           id="path3547" />
      </g>
      <g
         id="g3549"
         transform="translate(235.6649,344.1172)">
        <path
           d="M 0,0 C -0.031,0.538 -0.369,1.238 0.186,1.52 0.9,1.883 1.275,1.109 1.612,0.635 1.966,0.135 2.26,-0.446 2.433,-1.034 3.361,-4.189 3.046,-7.322 2.393,-10.697 0.946,-7.122 0.208,-3.618 0,0"
           style="fill:#5dc5c2;fill-opacity:1;fill-rule:nonzero;stroke:none"
           id="path3551" />
      </g>
      <g
         id="g3553"
         transform="translate(164.3511,311.4529)">
        <path
           d="m 0,0 c -0.197,0.5 -0.769,1.109 -0.202,1.641 0.58,0.544 1.322,0.653 2.156,0.362 2.757,-0.959 5.519,-1.865 8.267,-2.763 0.776,-0.253 1.331,-0.743 1.693,-1.393 1.555,-2.791 4.199,-4.17 7.202,-4.813 1.77,-0.379 2.712,-0.9 1.706,-3.427 0.813,0.933 1.117,1.312 1.453,1.662 1.742,1.809 2.739,1.929 4.791,0.505 1.638,-1.136 3.48,-1.815 5.352,-2.371 0.282,-0.683 -0.763,-1.192 -0.324,-2.009 1.573,1.159 2.787,2.615 4.661,3.045 0.574,0.261 1.193,0.127 1.783,0.234 0.097,-0.032 0.184,-0.072 0.267,-0.114 1.081,0.884 2.332,0.111 3.483,0.271 1.246,-0.239 1.699,-1.377 2.51,-2.108 0.657,-0.593 1.107,-1.607 2.586,-1.245 -2.188,1.04 -2.359,3.091 -3.093,4.814 -0.053,0.722 -0.452,1.995 0.462,1.898 0.871,-0.092 1.505,0.342 2.256,0.301 0.321,-0.016 0.885,0.423 0.666,-0.476 -0.248,-1.017 0.05,-1.94 0.859,-2.776 0.404,2.122 0.656,4.229 3.233,4.591 1.887,0.265 3.971,-1.397 4.481,-3.403 1.124,-4.417 -1.624,-8.907 -6.132,-9.887 -3.667,-0.797 -6.808,0.003 -9.096,3.073 -0.394,0.193 -0.602,0.486 -0.696,0.84 -0.116,-0.865 -0.293,-1.737 0.319,-2.507 0.5,-0.636 1,-1.272 1.557,-1.979 -1.05,-0.379 -2.22,-0.523 -2.848,-0.112 -3.632,2.373 -7.787,1.825 -11.909,2.098 -3.521,0.233 -5.831,2.806 -7.951,5.642 -0.233,-1.922 1.081,-3.048 1.772,-4.432 -7.508,-1.191 -13.611,1.919 -15.78,7.897 -0.45,1.241 -0.664,2.132 1.12,2.5 0.953,0.196 1.889,0.667 2.491,1.679 C 7.892,-2.953 6.783,-3.188 5.66,-3.296 2.992,-3.555 0.935,-2.37 0,0"
           style="fill:#5dc5c2;fill-opacity:1;fill-rule:nonzero;stroke:none"
           id="path3555" />
      </g>
    </g>
    <g
       id="g3559"
       clip-path="url(#clipPath3563)"
       transform="matrix(1.1038449,0,0,-1.1038449,-95.736412,433.38399)"
       style="display:inline">
      <g
         id="g3565"
         transform="translate(116.1965,377.6409)">
        <path
           d="m 0,0 c 0,0 -39.085,6.979 6.899,-18.139 45.983,-25.119 22.334,-26.072 60.152,-31.764 37.819,-5.692 21.619,-34.276 7.426,-35.365 -14.192,-1.089 -87.631,19.346 -87.631,19.346 l -23.12,30.583 3.433,29.556 z"
           style="fill:#3e7cab;fill-opacity:1;fill-rule:nonzero;stroke:none"
           id="path3567" />
      </g>
    </g>
    <g
       id="g3571"
       clip-path="url(#clipPath3575)"
       transform="matrix(1.1038449,0,0,-1.1038449,-95.736412,433.38399)"
       style="display:inline">
      <g
         id="g3577"
         transform="translate(116.1965,377.6409)">
        <path
           d="m 0,0 c 0,0 -39.085,6.979 6.899,-18.139 45.983,-25.119 22.334,-26.072 60.152,-31.764 37.819,-5.692 21.619,-34.276 7.426,-35.365 -14.192,-1.089 -87.631,19.346 -87.631,19.346 l -23.12,30.583 3.433,29.556 z"
           style="fill:#ba5b6b;fill-opacity:1;fill-rule:nonzero;stroke:none"
           id="path3579" />
      </g>
    </g>
    <g
       id="g3583"
       clip-path="url(#clipPath3587)"
       transform="matrix(1.1038449,0,0,-1.1038449,-95.736412,433.38399)"
       style="display:inline">
      <g
         id="g3589"
         transform="translate(222.8075,310.399)">
        <path
           d="m 0,0 c 2.285,1.814 4.248,3.954 5.54,6.598 1.597,3.268 0.998,5.785 -1.876,7.912 -0.622,0.46 -1.17,0.824 -1.339,1.721 -0.373,1.977 -1.404,3.633 -2.799,5.116 -1.534,1.63 -1.375,3.045 0.376,4.485 0.587,0.484 1.259,0.865 2.05,1.398 -2.307,0.127 -3.78,-0.828 -4.775,-2.633 -0.795,0.044 -0.534,0.51 -0.379,0.934 0.454,1.313 0.909,2.626 1.362,3.938 -0.789,-0.309 -1.224,-0.817 -1.599,-1.367 -0.254,-0.373 -0.403,-0.651 -0.971,-0.378 -3.136,1.503 -3.789,3.652 -1.86,6.525 0.52,0.774 1.172,1.478 1.858,2.11 0.4,0.369 0.311,0.511 -0.055,0.739 -0.033,0.002 -0.052,0.069 -0.058,0.201 -0.002,0.053 0.01,0.103 0.031,0.151 -0.771,-0.088 -0.632,1.536 -1.677,0.935 -0.58,0.505 -0.712,1.429 -1.696,1.703 0.235,-0.939 0.517,-1.818 0.669,-2.715 0.458,-2.709 -0.69,-4.068 -3.434,-4.121 -1.893,-0.037 -3.052,1.095 -4.028,2.539 -1.222,1.809 -1.63,4.04 -3.078,5.738 -0.933,1.094 -0.655,2.058 0.031,3.122 0.997,1.549 2.563,2.412 4.6,3.509 -3.201,-0.185 -3.79,0.096 -5.367,2.181 -0.162,0.214 -0.41,0.365 -0.618,0.546 0.612,-2.251 0.318,-4.337 -0.505,-6.355 -0.134,-0.327 -0.046,-0.982 -0.954,-0.691 -4.228,1.357 -7.676,3.521 -9.068,8.034 -0.787,2.552 -1.889,5.009 -3.624,7.121 -1.12,1.365 -0.247,1.685 0.774,1.803 1.383,0.162 2.803,0.087 4.202,0.113 -0.461,0.229 -0.951,0.686 -1.378,0.65 -4.296,-0.359 -8.107,1.453 -12.001,3.078 -0.136,0.057 -0.306,0.067 -0.453,0.052 -2.495,-0.253 -4.226,1.193 -6.193,2.753 5.197,1.906 10.023,1.581 14.523,-1.464 2.091,-1.415 3.93,-3.228 6.32,-3.951 0.571,0.135 1.312,-0.235 1.955,-0.319 1.211,-0.22 1.832,-1.199 2.55,-2.013 1.106,-1.254 1.424,-2.331 -0.489,-3.154 -0.882,-0.379 -1.451,-1.585 -2.328,-1.771 -0.958,-0.203 -1.402,1.511 -2.965,1.603 0.796,-1.13 1.49,-2.021 2.076,-2.971 0.615,-0.996 1.128,-2.05 1.684,-3.076 0.309,-0.318 0.51,-0.698 0.492,-1.119 -0.002,-0.055 0.226,-0.145 0.088,0.158 -0.284,0.432 0.155,0.927 -0.09,1.396 -0.026,0.651 -0.127,1.312 -0.062,1.952 0.222,2.21 3.936,4.304 5.847,3.165 3.448,-2.055 6.461,-4.568 8.307,-8.211 0.627,-1.237 0.734,-2.214 -0.361,-3.233 -1.177,-1.096 -1.674,-2.564 -1.661,-4.275 3.492,4.669 5.401,4.932 8.578,1.274 0.137,-0.66 0.38,-1.248 1.066,-1.532 0.135,-0.072 0.178,-0.18 0.129,-0.324 0.086,-0.594 0.207,-1.183 0.321,-1.77 0.051,-0.267 0.015,-0.444 -0.079,-0.542 0.35,-0.243 0.666,-0.535 1.01,-0.784 0.582,-0.752 0.372,-1.161 -0.484,-1.495 -0.825,-0.322 -1.712,-0.678 -1.939,-1.72 -0.089,-0.395 -0.293,-0.885 0.476,-0.575 1.625,1.342 3.236,1.038 4.832,-0.102 2.65,-1.893 3.307,-4.67 3.274,-7.644 -0.023,-1.985 -0.343,-3.965 -0.531,-5.946 0.586,0.583 0.841,1.272 1.121,1.95 0.149,0.359 0.182,0.782 0.808,0.73 C 7.549,21.566 9.137,19.263 9.6,17.047 9.995,15.159 8.822,15.065 7.591,14.807 7.314,14.75 6.951,14.56 6.956,14.131 11.551,14.078 12.862,11.975 11.052,7.707 9.706,4.532 7.334,2.355 4.451,0.618 4.204,0.218 3.846,-0.025 3.38,-0.138 3.331,-0.16 3.277,-0.114 3.257,-0.174 c 0.045,-0.002 0.107,0.002 0.184,0.015 0.184,0.031 0.361,0.086 0.534,0.154 0.44,0.151 0.932,-0.141 1.353,0.179 2.215,1.065 3.863,-0.405 5.769,-1.447 C 10.826,0.02 10.153,0.673 9.372,1.211 8.875,1.554 8.406,1.749 9.134,2.387 c 1.382,1.213 2.319,2.754 3.1,4.406 0.553,1.17 1.244,0.939 1.784,0.024 0.303,-0.515 0.514,-1.134 0.591,-1.732 0.414,-3.219 -0.393,-6.118 -2.525,-8.62 0.62,-0.543 1.139,0.533 1.723,0.078 C 12.231,-6.902 10.162,-8.07 6.243,-7.726 4.946,-8.813 7.402,-8.55 6.827,-9.348 5.326,-10.06 3.752,-10.31 2.177,-10.587 c -1.594,-0.281 -2.839,-0.135 -2.212,1.977 0.212,0.715 -0.804,1.817 0.464,2.114 1.93,0.451 3.891,1.285 5.868,0.315 1.311,0.111 2.681,0.09 3.375,1.658 C 8.41,-4.298 7.166,-5.231 6.046,-4.481 5.932,-3.738 7.152,-3.644 6.625,-2.706 5.293,-3.396 3.997,-4.169 2.621,-4.753 1.334,-5.299 -0.27,-5.548 -0.954,-4.145 -1.617,-2.787 -1.538,-1.22 0,0"
           style="fill:#5dc5c2;fill-opacity:1;fill-rule:nonzero;stroke:none"
           id="path3591" />
      </g>
    </g>
    <g
       id="g3595"
       clip-path="url(#clipPath3599)"
       transform="matrix(1.1038449,0,0,-1.1038449,-95.736412,433.38399)"
       style="display:inline">
      <g
         id="g3601"
         transform="translate(116.1965,377.6409)">
        <path
           d="m 0,0 c 0,0 -39.085,6.979 6.899,-18.139 45.983,-25.119 22.334,-26.072 60.152,-31.764 37.819,-5.692 21.619,-34.276 7.426,-35.365 -14.192,-1.089 -87.631,19.346 -87.631,19.346 l -23.12,30.583 3.433,29.556 z"
           style="fill:#ba5b6b;fill-opacity:1;fill-rule:nonzero;stroke:none"
           id="path3603" />
      </g>
      <g
         id="g3605"
         transform="translate(129.772,362.4833)">
        <path
           d="m 0,0 c 45.984,-25.119 22.334,-26.072 60.153,-31.764 37.818,-5.692 21.618,-34.276 7.426,-35.365 -14.193,-1.089 -87.632,19.346 -87.632,19.346 l -23.12,30.584 3.433,29.556"
           style="fill:#3e7cab;fill-opacity:1;fill-rule:nonzero;stroke:none"
           id="path3607" />
      </g>
    </g>
    <g
       id="g3611"
       clip-path="url(#clipPath3615)"
       transform="matrix(1.1038449,0,0,-1.1038449,-95.736412,433.38399)"
       style="display:inline">
      <g
         id="g3617"
         transform="translate(188.0319,346.148)">
        <path
           d="M 0,0 C 2.539,0.157 5.137,-0.273 6.824,2.214 7.187,2.748 8.036,3 8.824,2.958 9.298,3.1 9.445,2.894 9.375,2.458 8.877,2.159 8.352,1.894 7.885,1.552 5.987,0.161 6.005,-0.178 7.877,-1.496 c 2.191,-1.542 3.423,-3.579 3.433,-6.251 0.012,-3.098 4.168,-5.605 7.17,-4.377 0.744,0.304 0.809,0.841 0.821,1.545 0.021,1.263 0.111,2.542 1.118,3.825 0.04,-1.163 0.07,-2.048 0.101,-2.97 1.066,0.069 1.834,1.097 2.953,0.575 -0.987,-1.116 -2.006,-2.197 -2.941,-3.349 -0.712,-0.876 -1.287,-2.013 -0.117,-2.812 1.345,-0.918 1.723,-3.702 4.349,-2.319 1.347,0.708 2.778,1.157 4.588,0.493 -1.041,-0.295 -1.809,-0.444 -2.521,-0.731 -0.902,-0.364 -2.122,-0.633 -2.1,-1.829 0.025,-1.286 1.169,-1.871 2.24,-2.311 0.726,-0.297 1.51,-0.387 2.308,-0.25 0.677,0.116 1.361,0.188 2.249,0.307 -2.426,-2.002 -4.091,-2.192 -6.325,-0.551 -1.478,1.085 -2.758,2.442 -4.133,3.682 -0.944,0.253 -1.54,0.947 -2.411,1.974 1.193,-2.274 0.887,-4.248 0.417,-6.227 -0.158,-0.278 -0.316,-0.555 -0.474,-0.833 -1.308,0.37 -0.103,1.56 -0.717,2.158 -0.861,2.336 -3.038,3.062 -5.068,3.983 1.014,0.432 2.024,0.231 3.032,-0.014 1.073,-0.098 0.809,0.407 0.501,1.01 -1.798,3.517 -5.273,4.55 -8.679,2.498 -1.696,-1.022 -3.298,-2.207 -5.038,-3.174 -1.863,-1.034 -3.76,-1.11 -5.478,0.538 1.928,-0.417 3.752,-0.406 5.502,0.714 -0.765,0.78 -1.839,0.954 -2.171,1.826 0.319,0.553 0.613,0.357 0.995,0.248 3.065,-0.875 5.992,0.166 7.721,2.687 1.173,1.71 0.787,5.036 -0.825,7.152 C 7.175,-2.701 5.553,-1.704 3.672,-1.085 2.463,-0.687 1.228,-0.36 0,0 m 1.769,13.537 c -5.691,-0.87 -7.718,-4.746 -8.474,-9.65 -0.238,-1.545 0.144,-2.868 1.457,-3.972 0.733,-0.616 1.325,-1.438 1.817,-2.255 0.808,-1.343 0.805,-3.685 3.708,-2.109 -4.791,-3.031 -8.193,-6.633 -8.816,-12.116 -0.459,-4.042 3.027,-7.103 7.191,-6.422 2.579,0.422 4.852,-0.139 6.904,-1.766 1.565,-1.24 3.13,-2.666 5.672,-2.292 -1.493,1.807 -3.42,3.206 -3.661,5.655 1.755,-1.914 3.56,-3.712 5.779,-5.066 3.887,-2.373 6.33,-1.695 8.379,2.389 1.071,0.175 0.48,-0.484 0.44,-0.866 -0.131,-0.478 -0.156,-1.021 -0.412,-1.421 -0.843,-1.318 -0.395,-2.171 1.024,-1.887 2.276,0.456 4.54,0.265 6.788,0.473 0.926,0.085 1.638,0.735 2.739,1.065 -0.583,-1.294 -2.506,-1.744 -0.786,-3.621 1.51,-1.649 2.575,-1.418 4.074,-0.616 4.063,2.173 4.786,6.409 1.396,9.021 -0.352,-0.836 -0.32,-1.802 -0.988,-2.524 -0.821,5.596 -1.373,11.374 -8.635,12.584 -0.88,-0.179 -0.88,-0.179 -0.905,0.484 0.699,0.537 1.556,0.646 2.377,0.847 -1.686,5.903 -6.624,8.092 -13.05,5.642 0.102,0.238 0.132,0.44 0.249,0.562 2.632,2.744 2.752,4.294 0.601,8.017 C 14.63,7.169 11.812,8.66 8.451,7.858 7.178,7.554 5.942,7.033 4.761,6.466 3.653,5.935 2.644,5.212 1.404,4.46 1.565,5.965 2.409,6.893 3.419,7.531 5.039,8.555 5.054,9.976 4.703,11.547 3.639,16.301 1.46,20.243 -4.453,21.8 c 2.396,0.628 3.834,-0.262 5.374,-0.997 -1.077,2.883 -3.866,5.59 -6.557,6.475 -1.396,0.459 -2.735,0.329 -3.993,-0.245 -1.493,-0.68 -1.753,-2.221 -0.4,-3.161 3.416,-2.374 6.156,-5.296 8.329,-8.68 0.846,-1.317 2.407,-0.695 3.469,-1.655"
           style="fill:#5dc5c2;fill-opacity:1;fill-rule:nonzero;stroke:none"
           id="path3619" />
      </g>
      <g
         id="g3621"
         transform="translate(115.6221,305.9842)">
        <path
           d="m 0,0 c -1.526,-0.924 -2.733,-1.384 -3.647,-1.384 -0.49,0 -0.895,0.132 -1.219,0.395 -1.7,1.376 -0.155,5.893 -0.089,6.084 0.036,0.104 0.131,0.171 0.239,0.171 0.019,0 0.038,-0.002 0.057,-0.006 0.126,-0.028 0.211,-0.147 0.197,-0.275 -0.266,-2.528 0.101,-4.194 1.062,-4.82 0.338,-0.22 0.724,-0.3 1.108,-0.3 1.02,0 2.02,0.565 2.034,0.573 0.04,0.023 0.083,0.034 0.126,0.034 0.087,0 0.172,-0.046 0.219,-0.126 C 0.158,0.226 0.119,0.072 0,0 m -0.132,0.98 c -0.133,0 -0.264,-0.036 -0.38,-0.102 -0.006,-0.004 -0.904,-0.505 -1.78,-0.505 -0.329,0 -0.609,0.073 -0.83,0.217 -0.779,0.508 -1.076,2.05 -0.835,4.342 0.041,0.385 -0.213,0.739 -0.59,0.823 -0.059,0.013 -0.114,0.019 -0.169,0.019 v 0 c -0.324,0 -0.613,-0.206 -0.719,-0.514 -0.178,-0.513 -1.69,-5.075 0.249,-6.644 0.416,-0.337 0.933,-0.508 1.539,-0.508 1.012,0 2.291,0.477 3.91,1.457 0.355,0.215 0.473,0.68 0.263,1.038 C 0.387,0.836 0.136,0.98 -0.132,0.98"
           style="fill:#32245c;fill-opacity:1;fill-rule:nonzero;stroke:none"
           id="path3623" />
      </g>
      <g
         id="g3625"
         transform="translate(135.8055,291.4398)">
        <path
           d="m 0,0 c -0.777,-1.606 -1.54,-2.649 -2.306,-3.146 -0.352,-0.229 -0.705,-0.342 -1.06,-0.342 -0.059,0 -0.118,0.003 -0.178,0.009 -2.174,0.229 -3.337,4.859 -3.385,5.056 -0.031,0.126 0.033,0.252 0.158,0.299 0.029,0.011 0.059,0.016 0.088,0.016 0.093,0 0.182,-0.052 0.227,-0.139 1.152,-2.265 2.368,-3.463 3.515,-3.465 h 0.003 c 1.471,0 2.474,1.919 2.483,1.939 0.045,0.088 0.134,0.138 0.226,0.138 0.038,0 0.077,-0.009 0.114,-0.027 C 0.009,0.276 0.061,0.125 0,0 m 0.113,0.792 c -0.108,0.053 -0.225,0.081 -0.342,0.081 -0.288,0 -0.547,-0.159 -0.678,-0.416 -0.24,-0.46 -1.077,-1.661 -2.031,-1.661 -0.932,10e-4 -2.02,1.133 -3.065,3.187 C -6.134,2.24 -6.395,2.4 -6.683,2.4 -6.773,2.4 -6.862,2.384 -6.947,2.353 -7.313,2.214 -7.515,1.829 -7.422,1.454 c 0.13,-0.528 1.345,-5.177 3.825,-5.438 0.077,-0.008 0.154,-0.012 0.231,-0.012 0.453,0 0.903,0.142 1.337,0.424 0.849,0.551 1.662,1.647 2.486,3.351 0.181,0.373 0.027,0.827 -0.344,1.013"
           style="fill:#32245c;fill-opacity:1;fill-rule:nonzero;stroke:none"
           id="path3627" />
      </g>
      <g
         id="g3629"
         transform="translate(159.98,284.9113)">
        <path
           d="m 0,0 c -1.274,-1.245 -2.342,-1.965 -3.23,-2.171 -0.178,-0.041 -0.349,-0.062 -0.513,-0.062 -0.273,0 -0.526,0.058 -0.76,0.172 -1.963,0.959 -1.484,5.712 -1.462,5.914 0.013,0.129 0.116,0.225 0.25,0.227 h 10e-4 c 0.128,0 0.236,-0.096 0.252,-0.224 0.313,-2.524 1.047,-4.067 2.122,-4.461 0.204,-0.075 0.411,-0.106 0.618,-0.106 1.198,0 2.359,1.067 2.372,1.08 0.049,0.045 0.11,0.068 0.172,0.068 0.067,0 0.134,-0.027 0.184,-0.08 C 0.102,0.256 0.099,0.097 0,0 m -0.178,0.945 c -0.194,0 -0.378,-0.073 -0.519,-0.206 -0.284,-0.26 -1.205,-0.942 -2.025,-0.942 -0.158,0 -0.307,0.025 -0.443,0.075 -0.872,0.32 -1.508,1.757 -1.793,4.047 -0.048,0.382 -0.373,0.669 -0.756,0.669 H -5.716 -5.718 C -6.11,4.583 -6.432,4.289 -6.471,3.904 c -0.057,-0.54 -0.495,-5.327 1.745,-6.421 0.303,-0.149 0.634,-0.224 0.983,-0.224 0.202,0 0.413,0.025 0.628,0.075 0.984,0.228 2.119,0.981 3.47,2.303 C 0.651,-0.075 0.66,0.405 0.376,0.706 0.23,0.858 0.029,0.945 -0.178,0.945"
           style="fill:#32245c;fill-opacity:1;fill-rule:nonzero;stroke:none"
           id="path3631" />
      </g>
      <g
         id="g3633"
         transform="translate(172.8169,264.3889)">
        <path
           d="m 0,0 c -0.378,-0.306 -0.773,-0.458 -1.189,-0.458 h -0.004 c -2.184,0.004 -3.832,4.488 -3.901,4.679 -0.044,0.122 0.007,0.254 0.126,0.314 0.035,0.017 0.073,0.026 0.111,0.026 0.084,0 0.166,-0.042 0.214,-0.117 1.318,-2.028 2.589,-3.092 3.691,-3.092 0.056,0 0.113,0.003 0.169,0.008 C 0.68,1.509 1.471,3.523 1.479,3.543 1.518,3.644 1.613,3.705 1.715,3.705 1.744,3.705 1.775,3.7 1.804,3.689 1.934,3.64 2.002,3.495 1.955,3.365 1.354,1.688 0.708,0.573 0,0 M 1.984,4.164 C 1.896,4.197 1.806,4.213 1.715,4.213 1.401,4.213 1.116,4.017 1.004,3.724 0.815,3.242 0.113,1.962 -0.835,1.866 -0.874,1.862 -0.913,1.86 -0.952,1.86 c -0.907,0 -2.066,1.016 -3.264,2.861 -0.142,0.218 -0.382,0.348 -0.641,0.348 -0.116,0 -0.232,-0.027 -0.336,-0.079 -0.35,-0.176 -0.511,-0.58 -0.378,-0.943 0.185,-0.512 1.886,-5.008 4.377,-5.013 0.538,0 1.046,0.192 1.514,0.571 0.784,0.636 1.476,1.809 2.113,3.588 0.14,0.389 -0.062,0.825 -0.449,0.971"
           style="fill:#32245c;fill-opacity:1;fill-rule:nonzero;stroke:none"
           id="path3635" />
      </g>
      <g
         id="g3637"
         transform="translate(199.6699,266.8982)">
        <path
           d="m 0,0 c -0.378,-0.306 -0.773,-0.458 -1.189,-0.458 h -0.004 c -2.184,0.004 -3.832,4.488 -3.901,4.679 -0.044,0.122 0.007,0.254 0.126,0.314 0.035,0.017 0.073,0.026 0.111,0.026 0.084,0 0.166,-0.042 0.214,-0.117 1.318,-2.028 2.589,-3.092 3.69,-3.092 0.057,0 0.114,0.003 0.17,0.008 C 0.68,1.509 1.471,3.523 1.479,3.543 1.518,3.644 1.613,3.705 1.715,3.705 1.744,3.705 1.775,3.7 1.804,3.689 1.934,3.64 2.001,3.495 1.955,3.365 1.354,1.688 0.708,0.573 0,0 M 1.984,4.164 C 1.896,4.197 1.806,4.213 1.715,4.213 1.401,4.213 1.116,4.017 1.004,3.725 0.815,3.242 0.113,1.962 -0.835,1.866 -0.874,1.862 -0.913,1.86 -0.953,1.86 c -0.906,0 -2.065,1.016 -3.263,2.861 -0.142,0.218 -0.382,0.348 -0.641,0.348 -0.116,0 -0.232,-0.027 -0.336,-0.079 -0.35,-0.176 -0.51,-0.581 -0.378,-0.943 0.185,-0.512 1.886,-5.008 4.377,-5.013 0.538,0 1.045,0.192 1.514,0.571 0.784,0.636 1.476,1.809 2.113,3.589 0.139,0.388 -0.062,0.824 -0.449,0.97"
           style="fill:#32245c;fill-opacity:1;fill-rule:nonzero;stroke:none"
           id="path3639" />
      </g>
      <g
         id="g3641"
         transform="translate(237.435,280.6271)">
        <path
           d="m 0,0 c -0.378,-0.306 -0.773,-0.458 -1.189,-0.458 h -0.004 c -2.184,0.004 -3.831,4.488 -3.901,4.679 -0.044,0.122 0.007,0.254 0.126,0.314 0.035,0.017 0.074,0.026 0.111,0.026 0.084,0 0.166,-0.042 0.214,-0.117 1.318,-2.028 2.59,-3.092 3.691,-3.092 0.056,0 0.113,0.003 0.169,0.008 C 0.68,1.509 1.471,3.523 1.479,3.543 1.518,3.644 1.613,3.705 1.715,3.705 1.744,3.705 1.775,3.7 1.804,3.689 1.934,3.64 2.002,3.495 1.955,3.365 1.354,1.688 0.708,0.573 0,0 M 1.984,4.164 C 1.896,4.197 1.806,4.213 1.715,4.213 1.401,4.213 1.116,4.017 1.004,3.725 0.815,3.242 0.112,1.962 -0.835,1.866 -0.874,1.862 -0.913,1.86 -0.952,1.86 c -0.907,0 -2.066,1.016 -3.264,2.861 -0.142,0.218 -0.382,0.348 -0.641,0.348 -0.116,0 -0.232,-0.027 -0.336,-0.079 -0.349,-0.176 -0.51,-0.58 -0.378,-0.943 0.048,-0.131 0.488,-1.323 1.2,-2.498 1.009,-1.667 2.078,-2.513 3.177,-2.515 0.538,0 1.046,0.192 1.514,0.571 0.784,0.635 1.476,1.809 2.113,3.588 0.14,0.389 -0.062,0.825 -0.449,0.971"
           style="fill:#32245c;fill-opacity:1;fill-rule:nonzero;stroke:none"
           id="path3643" />
      </g>
      <g
         id="g3645"
         transform="translate(223.5005,270.7659)">
        <path
           d="m 0,0 c -0.137,-0.469 -0.377,-0.819 -0.721,-1.055 -0.329,-0.228 -0.729,-0.321 -1.164,-0.321 -1.94,0 -4.571,1.852 -4.706,1.948 -0.106,0.075 -0.139,0.212 -0.075,0.329 0.046,0.083 0.132,0.13 0.222,0.13 0.032,0 0.066,-0.006 0.097,-0.019 1.334,-0.547 2.46,-0.822 3.343,-0.822 0.675,0 1.208,0.161 1.586,0.483 1.118,0.954 0.623,3.061 0.618,3.082 -0.034,0.136 0.049,0.271 0.184,0.305 0.021,0.005 0.042,0.008 0.062,0.008 0.113,0 0.216,-0.075 0.246,-0.189 C 0.153,2.159 0.256,0.874 0,0 M -0.554,4.576 C -0.616,4.576 -0.678,4.568 -0.739,4.553 -1.145,4.45 -1.393,4.038 -1.294,3.634 -1.175,3.13 -1.024,1.677 -1.748,1.059 -2.029,0.82 -2.451,0.698 -3.004,0.698 c -0.822,0 -1.882,0.264 -3.15,0.784 -0.093,0.038 -0.19,0.057 -0.29,0.057 -0.277,0 -0.532,-0.15 -0.666,-0.391 -0.188,-0.344 -0.089,-0.768 0.226,-0.991 0.293,-0.208 2.933,-2.041 4.999,-2.041 0.569,0 1.058,0.138 1.453,0.41 0.44,0.303 0.75,0.751 0.92,1.331 0.283,0.97 0.184,2.328 -0.305,4.153 -0.088,0.333 -0.392,0.566 -0.737,0.566"
           style="fill:#32245c;fill-opacity:1;fill-rule:nonzero;stroke:none"
           id="path3647" />
      </g>
    </g>
  </g>
</svg>
